<svg xmlns="http://www.w3.org/2000/svg" width="85.001" height="76.409" viewBox="0 0 85.001 76.409">
  <g id="residuos-toxicos" transform="translate(0.001 0.001)">
    <path id="Trazado_911483" data-name="Trazado 911483" d="M299.255,140.233a1.9,1.9,0,0,0-1.018-1.68V123.308a1.33,1.33,0,0,0,0-2.586v-.038H259.749a1.331,1.331,0,1,0,0,2.663h0v15.075a1.9,1.9,0,0,0,0,3.621V157.2a1.9,1.9,0,0,0,0,3.621V175.9h0a1.331,1.331,0,1,0,0,2.663h38.489v-.038a1.33,1.33,0,0,0,0-2.586V160.693a1.894,1.894,0,0,0,0-3.359V141.912a1.894,1.894,0,0,0,1.018-1.679Zm0,0" transform="translate(-215.517 -103.415)" fill="#89e5ff"/>
    <path id="Trazado_911484" data-name="Trazado 911484" d="M480.731,140.233a1.9,1.9,0,0,0-1.018-1.68V123.308a1.33,1.33,0,0,0,0-2.586v-.038h-3.695v57.839l3.381.038h.314v-.038a1.33,1.33,0,0,0,0-2.586V160.693a1.895,1.895,0,0,0,0-3.359V141.912A1.894,1.894,0,0,0,480.731,140.233Zm0,0" transform="translate(-396.993 -103.415)" fill="#67cbef"/>
    <path id="Trazado_911485" data-name="Trazado 911485" d="M61.682,32.553a2.409,2.409,0,0,0-1.348-2.143V10.948a1.684,1.684,0,0,0,0-3.3V7.6H9.361a1.7,1.7,0,1,0,0,3.4h0V30.242a2.4,2.4,0,0,0,0,4.623V54.218a2.4,2.4,0,0,0,0,4.623V78.085h0a1.7,1.7,0,1,0,0,3.4H60.335v-.049a1.685,1.685,0,0,0,0-3.3V58.673a2.379,2.379,0,0,0,0-4.288V34.7a2.409,2.409,0,0,0,1.348-2.143Zm0,0" transform="translate(-6.337 -6.338)" fill="#ff8086"/>
    <path id="Trazado_911486" data-name="Trazado 911486" d="M300.075,32.553a2.409,2.409,0,0,0-1.348-2.143V10.948a1.684,1.684,0,0,0,0-3.3V7.6h-5.281c-.027,1.129.851,73.886.851,73.886h4.429v-.049a1.684,1.684,0,0,0,0-3.3V58.673a2.379,2.379,0,0,0,0-4.288V34.7a2.409,2.409,0,0,0,1.348-2.143Zm0,0" transform="translate(-244.73 -6.338)" fill="#e5646e"/>
    <path id="Trazado_911487" data-name="Trazado 911487" d="M104.408,155.954a16.423,16.423,0,1,1-16.423-16.423A16.423,16.423,0,0,1,104.408,155.954Zm0,0" transform="translate(-59.683 -117.751)" fill="#ffe07e"/>
    <path id="Trazado_911488" data-name="Trazado 911488" d="M158.7,139.531a16.562,16.562,0,0,0-2.346.167,16.424,16.424,0,0,1,0,32.512,16.424,16.424,0,1,0,2.346-32.679Zm0,0" transform="translate(-130.402 -117.751)" fill="#ffd064"/>
    <g id="Grupo_1100931" data-name="Grupo 1100931" transform="translate(17.399 27.411)">
      <path id="Trazado_911489" data-name="Trazado 911489" d="M149.068,175.047l-3.721,6.446a4.068,4.068,0,0,0-3.071,0l-3.722-6.447a.391.391,0,0,1,.158-.542,10.928,10.928,0,0,1,10.2,0,.392.392,0,0,1,.158.543Zm0,0" transform="translate(-132.908 -173.242)" fill="#5d5360"/>
      <path id="Trazado_911490" data-name="Trazado 911490" d="M114.175,241.62l-3.722,6.447a.39.39,0,0,1-.543.136,10.9,10.9,0,0,1-5.1-8.835.393.393,0,0,1,.392-.407h7.441c0,1.736.134,1.849,1.535,2.66Zm0,0" transform="translate(-104.807 -228.05)" fill="#5d5360"/>
      <path id="Trazado_911491" data-name="Trazado 911491" d="M189.1,238.945a10.906,10.906,0,0,1-5.1,8.837.39.39,0,0,1-.545-.137L179.73,241.2c1.4-.811,1.309-1.008,1.309-2.745l7.67.084A.391.391,0,0,1,189.1,238.945Zm0,0" transform="translate(-167.292 -227.627)" fill="#5d5360"/>
      <path id="Trazado_911492" data-name="Trazado 911492" d="M158.13,223.536a3.071,3.071,0,1,1-1.536-2.66A3.068,3.068,0,0,1,158.13,223.536Zm0,0" transform="translate(-144.155 -212.625)" fill="#5d5360"/>
    </g>
    <path id="Trazado_911493" data-name="Trazado 911493" d="M85,38.2a2.991,2.991,0,0,0-1.018-2.241V22.608A2.466,2.466,0,0,0,85,20.619a2.493,2.493,0,0,0-1.6-2.31,1.286,1.286,0,0,0-.679-.192H55.259V5.348a2.884,2.884,0,0,0,1.348-2.43,2.911,2.911,0,0,0-1.9-2.709A1.29,1.29,0,0,0,54,0H16.482a1.24,1.24,0,0,0-1.261,1.217,1.24,1.24,0,0,0,1.261,1.217H53.641l.059.016a.479.479,0,0,1,0,.938,1.226,1.226,0,0,0-.964,1.183V24.055a1.211,1.211,0,0,0,.676,1.078,1.185,1.185,0,0,1,0,2.136,1.213,1.213,0,0,0-.676,1.078V48.059a1.213,1.213,0,0,0,.676,1.078,1.185,1.185,0,0,1,0,2.136,1.211,1.211,0,0,0-.676,1.078V71.836a1.227,1.227,0,0,0,.964,1.183.479.479,0,0,1,0,.938l-.059.016H3.024a.485.485,0,1,1,0-.969,1.24,1.24,0,0,0,1.261-1.217V52.519A1.224,1.224,0,0,0,3.4,51.357a1.194,1.194,0,0,1,0-2.3,1.224,1.224,0,0,0,.887-1.163V28.516A1.224,1.224,0,0,0,3.4,27.353a1.194,1.194,0,0,1,0-2.3,1.224,1.224,0,0,0,.887-1.163V4.619A1.241,1.241,0,0,0,3.024,3.4a.484.484,0,1,1,0-.968h6.86a1.24,1.24,0,0,0,1.261-1.218A1.24,1.24,0,0,0,9.885,0H3.024A2.976,2.976,0,0,0,0,2.918,2.918,2.918,0,0,0,1.764,5.571V23.116a3.579,3.579,0,0,0,0,6.17V47.12a3.579,3.579,0,0,0,0,6.17V70.835A2.919,2.919,0,0,0,0,73.489a2.977,2.977,0,0,0,3.027,2.919h67.7a1.218,1.218,0,1,0,0-2.435H56.564a2.852,2.852,0,0,0,.043-.484,2.884,2.884,0,0,0-1.348-2.43V57.789h5.163a1.218,1.218,0,1,0,0-2.435H55.259v-2.36a3.558,3.558,0,0,0,0-5.577V39.171H77.226a1.218,1.218,0,1,0,0-2.435H55.259V28.99a3.558,3.558,0,0,0,0-5.577V20.552H82.411l.013,0a.068.068,0,0,1,.053.063.07.07,0,0,1-.053.065,1.227,1.227,0,0,0-.965,1.183V36.579a1.213,1.213,0,0,0,.675,1.078.6.6,0,0,1,0,1.084,1.213,1.213,0,0,0-.678,1.079V54.7a1.211,1.211,0,0,0,.678,1.079.639.639,0,0,1,.246.22.583.583,0,0,1,.093.32.613.613,0,0,1-.342.544,1.212,1.212,0,0,0-.675,1.078V72.659a1.227,1.227,0,0,0,.966,1.183.065.065,0,0,1,.036.021.061.061,0,0,1,.016.042.07.07,0,0,1-.053.065l-.014,0H77.226a1.218,1.218,0,1,0,0,2.435h5.495a1.284,1.284,0,0,0,.679-.192A2.494,2.494,0,0,0,85,73.905a2.462,2.462,0,0,0-.565-1.559,2.537,2.537,0,0,0-.452-.426V58.566a2.971,2.971,0,0,0,.547-3.843,3.1,3.1,0,0,0-.547-.636V40.441A2.989,2.989,0,0,0,85,38.2Zm0,0" transform="translate(0)"/>
    <path id="Trazado_911494" data-name="Trazado 911494" d="M401.754,346.762a1.261,1.261,0,0,0-1.261-1.261H388.878a1.261,1.261,0,0,0,0,2.523h11.615A1.261,1.261,0,0,0,401.754,346.762Zm0,0" transform="translate(-323.267 -290.212)"/>
    <path id="Trazado_911495" data-name="Trazado 911495" d="M91.311,136.839a1.262,1.262,0,0,0-1.261-1.261H82.388a17.664,17.664,0,0,0-21.5,0H53.215a1.261,1.261,0,0,0,0,2.523h5.006a17.65,17.65,0,0,0,0,23.029H53.215a1.261,1.261,0,1,0,0,2.523h7.674a17.684,17.684,0,0,0,21.512,0h7.647a1.261,1.261,0,1,0,0-2.523H85.068a17.64,17.64,0,0,0,3.719-7.2,1.262,1.262,0,1,0-2.447-.613,15.1,15.1,0,0,1-5.078,8.022,1.277,1.277,0,0,0-.208.169,15.17,15.17,0,1,1,5.661-13.44,1.262,1.262,0,0,0,2.51-.255,17.618,17.618,0,0,0-4.175-9.708h5a1.261,1.261,0,0,0,1.262-1.261Zm0,0" transform="translate(-43.329 -111.411)"/>
    <path id="Trazado_911496" data-name="Trazado 911496" d="M98.864,176.559a1.654,1.654,0,0,0-1.651,1.715,12.165,12.165,0,0,0,5.691,9.857,1.656,1.656,0,0,0,.878.252,1.621,1.621,0,0,0,.394-.048,1.661,1.661,0,0,0,1.034-.778l3.186-5.517a4.336,4.336,0,0,0,1.957,0l3.187,5.519a1.651,1.651,0,0,0,2.307.575,12.166,12.166,0,0,0,5.693-9.857,1.653,1.653,0,0,0-1.651-1.716h-6.372a4.354,4.354,0,0,0-.979-1.695l3.187-5.519h0a1.654,1.654,0,0,0-.661-2.287,12.188,12.188,0,0,0-11.378,0,1.654,1.654,0,0,0-.66,2.288l3.187,5.52a4.359,4.359,0,0,0-.977,1.693H98.864Zm4.636,8.916a9.642,9.642,0,0,1-3.69-6.393h5.423a4.383,4.383,0,0,0,.979,1.7Zm4.973-6.087a1.811,1.811,0,0,1,1.809-3.135C112.308,177.392,110.49,180.559,108.472,179.387Zm6.78,6.088-2.713-4.7a4.36,4.36,0,0,0,.98-1.7h5.424a9.643,9.643,0,0,1-3.691,6.394Zm-5.875-17.3a9.689,9.689,0,0,1,3.691.732l-2.712,4.7a4.375,4.375,0,0,0-1.96,0l-2.711-4.7a9.7,9.7,0,0,1,3.693-.732Zm0,0" transform="translate(-81.074 -139.497)"/>
  </g>
</svg>
