<svg id="Grupo_1100900" data-name="Grupo 1100900" xmlns="http://www.w3.org/2000/svg" width="98.784" height="98.784" viewBox="0 0 98.784 98.784">
  <path id="Trazado_911276" data-name="Trazado 911276" d="M98.784,49.392A49.392,49.392,0,1,1,49.392,0,49.392,49.392,0,0,1,98.784,49.392" transform="translate(0 0)" fill="#ffc621"/>
  <path id="Trazado_911277" data-name="Trazado 911277" d="M68.434,22.406a46.028,46.028,0,1,0,46.028,46.028A46.029,46.029,0,0,0,68.434,22.406m0,89.465a43.436,43.436,0,1,1,43.436-43.436,43.437,43.437,0,0,1-43.436,43.436" transform="translate(-19.042 -19.042)"/>
  <path id="Trazado_911278" data-name="Trazado 911278" d="M109.269,144.031h-26.1a36.9,36.9,0,0,1,19.728-32.674l12.15,23.111a10.8,10.8,0,0,0-5.774,9.563" transform="translate(-70.679 -94.639)" fill="#020202"/>
  <path id="Trazado_911279" data-name="Trazado 911279" d="M222.834,390.064l13.052,22.608a36.9,36.9,0,0,1-38.161-.749l13.94-22.078a10.8,10.8,0,0,0,11.169.219" transform="translate(-168.04 -331.318)" fill="#020202"/>
  <path id="Trazado_911280" data-name="Trazado 911280" d="M396.455,149.52l-26.09-1.033a10.8,10.8,0,0,0-5.394-9.782L378.022,116.1a36.9,36.9,0,0,1,18.432,33.423" transform="translate(-310.177 -98.667)" fill="#020202"/>
  <path id="Trazado_911281" data-name="Trazado 911281" d="M297.528,290.777a6.751,6.751,0,1,1-6.751-6.751,6.751,6.751,0,0,1,6.751,6.751" transform="translate(-241.385 -241.385)" fill="#020202"/>
</svg>
