<svg xmlns="http://www.w3.org/2000/svg" xmlns:xlink="http://www.w3.org/1999/xlink" width="820.564" height="233.566" viewBox="0 0 820.564 233.566">
  <defs>
    <clipPath id="clip-path">
      <rect id="Rectángulo_403797" data-name="Rectángulo 403797" width="820" height="193.872" fill="none"/>
    </clipPath>
  </defs>
  <g id="Grupo_1102687" data-name="Grupo 1102687" transform="translate(-390.185 -2427.366)">
    <g id="Grupo_1102587" data-name="Grupo 1102587" transform="translate(0 -22.501)">
      <g id="Grupo_1102126" data-name="Grupo 1102126" transform="translate(390.75 2449.867)">
        <g id="Grupo_1102125" data-name="Grupo 1102125" clip-path="url(#clip-path)">
          <path id="Trazado_913859" data-name="Trazado 913859" d="M3.545,62.888H0A28.911,28.911,0,0,1,14.421,37.911L73.392,3.863A28.9,28.9,0,0,1,87.811,0V3.544A25.289,25.289,0,0,0,75.163,6.937L16.193,40.984a25.348,25.348,0,0,0-12.648,21.9" transform="translate(0 0)" fill="#fc4e4d"/>
          <path id="Trazado_913860" data-name="Trazado 913860" d="M87.811,164.08a28.91,28.91,0,0,1-14.421-3.863L14.421,126.17A28.911,28.911,0,0,1,0,101.192V90.351H3.545v10.841a25.347,25.347,0,0,0,12.648,21.9l58.969,34.048a25.3,25.3,0,0,0,12.648,3.392Z" transform="translate(0 29.791)" fill="#33dacd"/>
          <path id="Trazado_913861" data-name="Trazado 913861" d="M144.473,124.424V56.69a4.193,4.193,0,0,0-2.1-3.63L83.718,19.193a4.192,4.192,0,0,0-4.191,0L20.867,53.06a4.193,4.193,0,0,0-2.1,3.63v67.734a4.193,4.193,0,0,0,2.1,3.63l58.66,33.867a4.192,4.192,0,0,0,4.191,0l58.66-33.867a4.193,4.193,0,0,0,2.1-3.63" transform="translate(6.189 6.143)" fill="#7ad8ec"/>
          <path id="Trazado_913862" data-name="Trazado 913862" d="M306,124.424V56.69a4.193,4.193,0,0,0-2.1-3.63l-58.66-33.867a4.192,4.192,0,0,0-4.191,0L182.4,53.06a4.193,4.193,0,0,0-2.1,3.63v67.734a4.193,4.193,0,0,0,2.1,3.63l58.66,33.867a4.192,4.192,0,0,0,4.191,0l58.66-33.867a4.193,4.193,0,0,0,2.1-3.63" transform="translate(59.45 6.143)" fill="#6fec86"/>
          <path id="Trazado_913863" data-name="Trazado 913863" d="M467.534,124.424V56.69a4.193,4.193,0,0,0-2.1-3.63l-58.66-33.867a4.192,4.192,0,0,0-4.191,0L343.928,53.06a4.193,4.193,0,0,0-2.1,3.63v67.734a4.193,4.193,0,0,0,2.1,3.63l58.66,33.867a4.192,4.192,0,0,0,4.191,0l58.66-33.867a4.193,4.193,0,0,0,2.1-3.63" transform="translate(112.711 6.143)" fill="#7ad8ec"/>
          <path id="Trazado_913864" data-name="Trazado 913864" d="M629.064,124.424V56.69a4.193,4.193,0,0,0-2.1-3.63l-58.66-33.867a4.191,4.191,0,0,0-4.191,0L505.458,53.06a4.193,4.193,0,0,0-2.1,3.63v67.734a4.193,4.193,0,0,0,2.1,3.63l58.66,33.867a4.191,4.191,0,0,0,4.191,0l58.66-33.867a4.193,4.193,0,0,0,2.1-3.63" transform="translate(165.972 6.143)" fill="#f56364"/>
          <path id="Trazado_913865" data-name="Trazado 913865" d="M83.839,171.509A24.124,24.124,0,0,1,71.78,168.29L24.108,140.763a24.185,24.185,0,0,1-12.061-20.886V64.825A24.185,24.185,0,0,1,24.108,43.939L71.78,16.412a24.2,24.2,0,0,1,24.119,0l47.679,27.527a24.179,24.179,0,0,1,12.054,20.886v55.052a24.179,24.179,0,0,1-12.054,20.886L95.9,168.29a24.123,24.123,0,0,1-12.059,3.219m0-154.771a20.535,20.535,0,0,0-10.288,2.749L25.88,47.012A20.6,20.6,0,0,0,15.592,64.825v55.052A20.6,20.6,0,0,0,25.88,137.69l47.671,27.525a20.61,20.61,0,0,0,20.576,0l47.679-27.525a20.611,20.611,0,0,0,10.28-17.813V64.825a20.611,20.611,0,0,0-10.28-17.813L94.127,19.487a20.535,20.535,0,0,0-10.288-2.749" transform="translate(3.972 4.35)" fill="#7ad8ec"/>
          <path id="Trazado_913866" data-name="Trazado 913866" d="M245.37,171.509a24.132,24.132,0,0,1-12.061-3.219l-47.677-27.527a24.179,24.179,0,0,1-12.054-20.886V64.825a24.179,24.179,0,0,1,12.054-20.886l47.677-27.527a24.2,24.2,0,0,1,24.12,0L305.1,43.939a24.185,24.185,0,0,1,12.061,20.886v55.052A24.185,24.185,0,0,1,305.1,140.763L257.429,168.29a24.123,24.123,0,0,1-12.059,3.219m0-154.771a20.535,20.535,0,0,0-10.288,2.749L187.4,47.012a20.611,20.611,0,0,0-10.28,17.813v55.052A20.611,20.611,0,0,0,187.4,137.69l47.679,27.525a20.61,20.61,0,0,0,20.576,0l47.671-27.525a20.6,20.6,0,0,0,10.288-17.813V64.825a20.6,20.6,0,0,0-10.288-17.813L255.658,19.487a20.534,20.534,0,0,0-10.288-2.749" transform="translate(57.233 4.35)" fill="#6fec86"/>
          <path id="Trazado_913867" data-name="Trazado 913867" d="M406.9,171.507a24.109,24.109,0,0,1-12.059-3.219l-47.679-27.525a24.187,24.187,0,0,1-12.061-20.887V64.823a24.185,24.185,0,0,1,12.061-20.886L394.844,16.41a24.207,24.207,0,0,1,24.112,0l47.679,27.527A24.185,24.185,0,0,1,478.7,64.823v55.052a24.187,24.187,0,0,1-12.061,20.887l-47.679,27.525a24.1,24.1,0,0,1-12.053,3.219M406.9,16.73a20.527,20.527,0,0,0-10.28,2.755L348.938,47.01A20.6,20.6,0,0,0,338.65,64.823v55.052a20.6,20.6,0,0,0,10.288,17.813l47.679,27.525a20.591,20.591,0,0,0,20.568,0l47.679-27.525a20.6,20.6,0,0,0,10.287-17.813V64.823A20.6,20.6,0,0,0,464.864,47.01L417.185,19.485A20.542,20.542,0,0,0,406.9,16.73" transform="translate(110.493 4.351)" fill="#7ad8ec"/>
          <path id="Trazado_913868" data-name="Trazado 913868" d="M568.428,171.507a24.145,24.145,0,0,1-12.059-3.219L508.7,140.762a24.187,24.187,0,0,1-12.061-20.887V64.823A24.185,24.185,0,0,1,508.7,43.937L556.369,16.41a24.219,24.219,0,0,1,24.119,0l47.679,27.527a24.185,24.185,0,0,1,12.061,20.886v55.052a24.187,24.187,0,0,1-12.061,20.887l-47.679,27.525a24.105,24.105,0,0,1-12.059,3.219m0-154.778a20.56,20.56,0,0,0-10.288,2.755L510.469,47.01a20.6,20.6,0,0,0-10.288,17.813v55.052a20.6,20.6,0,0,0,10.288,17.813l47.671,27.525a20.606,20.606,0,0,0,20.576,0l47.679-27.525a20.619,20.619,0,0,0,10.287-17.813V64.823A20.621,20.621,0,0,0,626.395,47.01L578.716,19.485a20.542,20.542,0,0,0-10.288-2.755" transform="translate(163.754 4.351)" fill="#f56364"/>
          <rect id="Rectángulo_403777" data-name="Rectángulo 403777" width="3.545" height="6.881" transform="translate(0 108.539)" fill="#33dacd"/>
          <path id="Trazado_913869" data-name="Trazado 913869" d="M153.848,73.729H150.3V62.888a25.348,25.348,0,0,0-12.648-21.9L78.685,6.936A25.3,25.3,0,0,0,66.037,3.544V0A28.9,28.9,0,0,1,80.458,3.863l58.969,34.048a28.909,28.909,0,0,1,14.421,24.978Z" transform="translate(21.774)" fill="#fc4e4d"/>
          <path id="Trazado_913870" data-name="Trazado 913870" d="M132.953,105.276h-3.545c0-9.1,15.626-25.476,17.4-27.311l2.548,2.464c-4.562,4.709-16.407,18.346-16.407,24.847" transform="translate(42.669 25.707)" fill="#33dacd"/>
          <rect id="Rectángulo_403778" data-name="Rectángulo 403778" width="3.545" height="6.881" transform="translate(172.077 78.451)" fill="#fc4e4d"/>
          <rect id="Rectángulo_403779" data-name="Rectángulo 403779" width="3.545" height="6.888" transform="translate(172.077 89.812)" fill="#fc4e4d"/>
          <path id="Trazado_913871" data-name="Trazado 913871" d="M149.28,85.366a9.99,9.99,0,1,1,9.99-9.99,10,10,0,0,1-9.99,9.99m0-16.435a6.445,6.445,0,1,0,6.445,6.445,6.455,6.455,0,0,0-6.445-6.445" transform="translate(45.928 21.56)" fill="#33dacd"/>
          <path id="Trazado_913872" data-name="Trazado 913872" d="M165.076,62.888h-3.545a28.911,28.911,0,0,1,14.421-24.978L234.923,3.863A28.905,28.905,0,0,1,249.342,0V3.544a25.289,25.289,0,0,0-12.648,3.393L177.724,40.984a25.348,25.348,0,0,0-12.648,21.9" transform="translate(53.261 0)" fill="#33dacd"/>
          <path id="Trazado_913873" data-name="Trazado 913873" d="M249.342,164.08a28.91,28.91,0,0,1-14.421-3.863L175.952,126.17a28.911,28.911,0,0,1-14.421-24.978V90.351h3.545v10.841a25.347,25.347,0,0,0,12.648,21.9l58.969,34.048a25.3,25.3,0,0,0,12.648,3.392Z" transform="translate(53.261 29.791)" fill="#6fec86"/>
          <path id="Trazado_913874" data-name="Trazado 913874" d="M151.74,74.605l-2.548-2.465C153.754,67.433,165.6,53.8,165.6,47.294h3.545c0,9.1-15.626,25.476-17.4,27.311" transform="translate(49.193 15.594)" fill="#33dacd"/>
          <rect id="Rectángulo_403780" data-name="Rectángulo 403780" width="3.545" height="6.881" transform="translate(214.792 108.539)" fill="#6fec86"/>
          <rect id="Rectángulo_403781" data-name="Rectángulo 403781" width="3.545" height="6.888" transform="translate(214.792 97.171)" fill="#6fec86"/>
          <path id="Trazado_913875" data-name="Trazado 913875" d="M315.379,73.729h-3.545V62.888a25.348,25.348,0,0,0-12.648-21.9L240.216,6.936a25.3,25.3,0,0,0-12.648-3.392V0a28.9,28.9,0,0,1,14.421,3.863l58.969,34.048a28.909,28.909,0,0,1,14.421,24.978Z" transform="translate(75.035)" fill="#33dacd"/>
          <path id="Trazado_913876" data-name="Trazado 913876" d="M294.484,105.276h-3.545c0-9.1,15.619-25.476,17.4-27.311l2.548,2.464c-4.562,4.709-16.4,18.346-16.4,24.847" transform="translate(95.93 25.707)" fill="#6fec86"/>
          <rect id="Rectángulo_403782" data-name="Rectángulo 403782" width="3.545" height="6.881" transform="translate(386.869 78.451)" fill="#33dacd"/>
          <rect id="Rectángulo_403783" data-name="Rectángulo 403783" width="3.545" height="6.888" transform="translate(386.869 89.812)" fill="#33dacd"/>
          <path id="Trazado_913877" data-name="Trazado 913877" d="M310.811,85.366a9.99,9.99,0,1,1,9.99-9.99,10,10,0,0,1-9.99,9.99m0-16.435a6.445,6.445,0,1,0,6.445,6.445,6.455,6.455,0,0,0-6.445-6.445" transform="translate(99.189 21.56)" fill="#6fec86"/>
          <path id="Trazado_913878" data-name="Trazado 913878" d="M326.6,62.888h-3.545a28.919,28.919,0,0,1,14.421-24.978L396.455,3.863A28.906,28.906,0,0,1,410.876,0V3.544a25.286,25.286,0,0,0-12.648,3.393L339.25,40.984a25.357,25.357,0,0,0-12.648,21.9" transform="translate(106.521 0)" fill="#6fec86"/>
          <path id="Trazado_913879" data-name="Trazado 913879" d="M410.876,164.08a28.91,28.91,0,0,1-14.421-3.863L337.479,126.17a28.916,28.916,0,0,1-14.421-24.978V90.351H326.6v10.841a25.358,25.358,0,0,0,12.648,21.9l58.977,34.048a25.3,25.3,0,0,0,12.648,3.392Z" transform="translate(106.521 29.791)" fill="#43bdd7"/>
          <path id="Trazado_913880" data-name="Trazado 913880" d="M313.272,74.605l-2.548-2.465c4.562-4.707,16.4-18.345,16.4-24.846h3.544c0,9.1-15.618,25.476-17.4,27.311" transform="translate(102.454 15.594)" fill="#6fec86"/>
          <rect id="Rectángulo_403784" data-name="Rectángulo 403784" width="3.545" height="6.881" transform="translate(429.578 108.539)" fill="#43bdd7"/>
          <rect id="Rectángulo_403785" data-name="Rectángulo 403785" width="3.545" height="6.888" transform="translate(429.578 97.171)" fill="#43bdd7"/>
          <path id="Trazado_913881" data-name="Trazado 913881" d="M476.911,73.729h-3.545V62.888a25.348,25.348,0,0,0-12.648-21.9L401.742,6.936A25.259,25.259,0,0,0,389.1,3.544V0a28.848,28.848,0,0,1,14.413,3.863L462.49,37.911a28.909,28.909,0,0,1,14.421,24.978Z" transform="translate(128.297)" fill="#6fec86"/>
          <path id="Trazado_913882" data-name="Trazado 913882" d="M456.016,105.276h-3.545c0-9.1,15.619-25.476,17.4-27.311l2.548,2.464c-4.562,4.709-16.4,18.346-16.4,24.847" transform="translate(149.192 25.707)" fill="#43bdd7"/>
          <rect id="Rectángulo_403786" data-name="Rectángulo 403786" width="3.545" height="6.881" transform="translate(601.663 78.451)" fill="#6fec86"/>
          <rect id="Rectángulo_403787" data-name="Rectángulo 403787" width="3.545" height="6.888" transform="translate(601.663 89.812)" fill="#6fec86"/>
          <path id="Trazado_913883" data-name="Trazado 913883" d="M472.338,85.366a9.99,9.99,0,1,1,9.989-9.99,10,10,0,0,1-9.989,9.99m0-16.435a6.445,6.445,0,1,0,6.444,6.445,6.456,6.456,0,0,0-6.444-6.445" transform="translate(152.448 21.56)" fill="#43bdd7"/>
          <path id="Trazado_913884" data-name="Trazado 913884" d="M488.134,62.888h-3.545A28.911,28.911,0,0,1,499.01,37.911L557.981,3.863A28.905,28.905,0,0,1,572.4,0V3.544a25.289,25.289,0,0,0-12.648,3.393L500.782,40.984a25.348,25.348,0,0,0-12.648,21.9" transform="translate(159.782 0)" fill="#43bdd7"/>
          <path id="Trazado_913885" data-name="Trazado 913885" d="M572.4,164.08a28.91,28.91,0,0,1-14.421-3.863L499.01,126.17a28.911,28.911,0,0,1-14.421-24.978V90.351h3.545v10.841a25.347,25.347,0,0,0,12.648,21.9l58.969,34.048a25.3,25.3,0,0,0,12.648,3.392Z" transform="translate(159.782 29.791)" fill="#fc4e4d"/>
          <path id="Trazado_913886" data-name="Trazado 913886" d="M474.8,74.605l-2.548-2.465c4.562-4.707,16.4-18.345,16.4-24.846H492.2c0,9.1-15.618,25.476-17.4,27.311" transform="translate(155.715 15.594)" fill="#43bdd7"/>
          <rect id="Rectángulo_403788" data-name="Rectángulo 403788" width="3.545" height="6.881" transform="translate(644.371 108.539)" fill="#fc4e4d"/>
          <rect id="Rectángulo_403789" data-name="Rectángulo 403789" width="3.545" height="6.888" transform="translate(644.371 97.171)" fill="#fc4e4d"/>
          <path id="Trazado_913887" data-name="Trazado 913887" d="M638.444,73.729H634.9V62.888a25.357,25.357,0,0,0-12.648-21.9L563.274,6.936a25.3,25.3,0,0,0-12.648-3.392V0a28.9,28.9,0,0,1,14.421,3.863l58.976,34.048a28.919,28.919,0,0,1,14.421,24.978Z" transform="translate(181.556)" fill="#43bdd7"/>
          <rect id="Rectángulo_403790" data-name="Rectángulo 403790" width="3.545" height="6.881" transform="translate(816.455 78.451)" fill="#43bdd7"/>
          <rect id="Rectángulo_403791" data-name="Rectángulo 403791" width="3.545" height="6.888" transform="translate(816.455 89.812)" fill="#43bdd7"/>
          <rect id="Rectángulo_403792" data-name="Rectángulo 403792" width="3.545" height="6.888" transform="translate(816.455 106.296)" fill="#fc4e4d"/>
          <rect id="Rectángulo_403793" data-name="Rectángulo 403793" width="3.545" height="6.888" transform="translate(816.455 117.664)" fill="#fc4e4d"/>
          <rect id="Rectángulo_403794" data-name="Rectángulo 403794" width="3.545" height="6.888" transform="translate(0 70.207)" fill="#fc4e4d"/>
          <rect id="Rectángulo_403795" data-name="Rectángulo 403795" width="3.545" height="6.881" transform="translate(0 81.573)" fill="#fc4e4d"/>
          <rect id="Rectángulo_403796" data-name="Rectángulo 403796" width="3.545" height="6.881" transform="translate(0 98.057)" fill="#33dacd"/>
        </g>
      </g>
      <rect id="Rectángulo_403798" data-name="Rectángulo 403798" width="175" height="44" rx="10" transform="translate(390.185 2639.434)" fill="#7ad8ec"/>
      <rect id="Rectángulo_404077" data-name="Rectángulo 404077" width="175" height="44" rx="10" transform="translate(607 2639)" fill="#7ad8ec"/>
      <rect id="Rectángulo_404078" data-name="Rectángulo 404078" width="175" height="44" rx="10" transform="translate(825 2639)" fill="#7ad8ec"/>
      <rect id="Rectángulo_404079" data-name="Rectángulo 404079" width="175" height="44" rx="10" transform="translate(1035 2639)" fill="#7ad8ec"/>
      <text id="Acondicionamiento" transform="translate(407.685 2668.434)" fill="#12263f" font-size="16" font-family="Roboto-Black, Roboto" font-weight="800"><tspan x="0" y="0">Acondicionamiento</tspan></text>
      <text id="Almacenamiento" transform="translate(1061.5 2667.5)" fill="#12263f" font-size="16" font-family="Roboto-Black, Roboto" font-weight="800"><tspan x="0" y="0">Almacenamiento</tspan></text>
      <text id="Rotulado_y_etiquetado" data-name="Rotulado y etiquetado" transform="translate(694.5 2668)" fill="#12263f" font-size="16" font-family="Roboto-Black, Roboto" font-weight="800"><tspan x="-79.184" y="0">Rotulado y etiquetado</tspan></text>
      <text id="Movilización_interna" data-name="Movilización interna" transform="translate(912.5 2668)" fill="#12263f" font-size="16" font-family="Roboto-Black, Roboto" font-weight="800"><tspan x="-73.492" y="0">Movilización interna</tspan></text>
      <g id="Grupo_1101242" data-name="Grupo 1101242" transform="translate(105.403 -3390.342)">
        <path id="Unión_3" data-name="Unión 3" d="M10.326,0C4.709,0,.113,5.512.113,12.25S4.709,24.5,10.326,24.5a2.289,2.289,0,0,1,2.05,2.458,2.289,2.289,0,0,1-2.05,2.458H4.982C2.242,29.416,0,32.1,0,35.391s2.242,5.976,4.982,5.976c2.37,0,4.309,2.326,4.309,5.168,0,5.186,3.538,9.43,7.862,9.43H63.3c5.617,0,10.213-5.512,10.213-12.25S68.921,31.466,63.3,31.466h-.988a2.289,2.289,0,0,1-2.049-2.458,2.289,2.289,0,0,1,2.049-2.459h6.65c2.74,0,4.982-2.689,4.982-5.976S71.711,14.6,68.975,14.6h-5.35c-2.37,0-4.309-2.326-4.309-5.168C59.316,4.243,55.778,0,51.454,0Z" transform="translate(386.848 5897.649) rotate(90)" fill="#f56364" stroke="rgba(0,0,0,0)" stroke-miterlimit="10" stroke-width="1" fill-rule="evenodd"/>
        <g id="Grupo_1102134" data-name="Grupo 1102134" transform="translate(349.183 5926.384)">
          <g id="Grupo_1102132" data-name="Grupo 1102132" transform="translate(0.987 0.987)">
            <path id="Trazado_913888" data-name="Trazado 913888" d="M305.619,156.5H278.5v31.858h27.119a8.976,8.976,0,0,0,2.633-6.351V162.851a8.976,8.976,0,0,0-2.629-6.347Z" transform="translate(-242.825 -146.89)" fill="#6f6571"/>
            <path id="Trazado_913889" data-name="Trazado 913889" d="M461.082,162.85v19.157a8.978,8.978,0,0,1-2.633,6.35H454.5a8.978,8.978,0,0,0,2.633-6.35V162.85A8.974,8.974,0,0,0,454.5,156.5l0,0h3.949l0,0A8.975,8.975,0,0,1,461.082,162.85Z" transform="translate(-395.655 -146.89)" fill="#5d5360"/>
            <path id="Trazado_913890" data-name="Trazado 913890" d="M306.277,130.449H278.5V126.5h27.777a1.975,1.975,0,1,1,0,3.949Z" transform="translate(-242.825 -120.839)" fill="#8c858e"/>
            <path id="Trazado_913891" data-name="Trazado 913891" d="M297.593,402.449H268.5V398.5h29.093a1.975,1.975,0,1,1,0,3.949Z" transform="translate(-234.141 -357.032)" fill="#8c858e"/>
            <path id="Trazado_913892" data-name="Trazado 913892" d="M465.424,128.475a1.978,1.978,0,0,1-1.975,1.975H459.5a1.975,1.975,0,1,0,0-3.949h3.949A1.975,1.975,0,0,1,465.424,128.475Z" transform="translate(-399.997 -120.839)" fill="#7f7882"/>
            <path id="Trazado_913893" data-name="Trazado 913893" d="M465.424,400.475a1.978,1.978,0,0,1-1.975,1.975H459.5a1.975,1.975,0,1,0,0-3.949h3.949A1.975,1.975,0,0,1,465.424,400.475Z" transform="translate(-399.997 -357.032)" fill="#7f7882"/>
            <path id="Trazado_913894" data-name="Trazado 913894" d="M344.609,96.5h-5.792a1.316,1.316,0,0,0-1.316,1.316v2.633h8.425V97.816A1.316,1.316,0,0,0,344.609,96.5Z" transform="translate(-294.058 -94.789)" fill="#faf2f3"/>
            <path id="Trazado_913895" data-name="Trazado 913895" d="M366.766,97.816v2.633h-3.949V97.816A1.317,1.317,0,0,0,361.5,96.5h3.949A1.317,1.317,0,0,1,366.766,97.816Z" transform="translate(-314.898 -94.789)" fill="#f0e5e0"/>
            <g id="Grupo_1102131" data-name="Grupo 1102131" transform="translate(40.546 15.271)">
              <path id="Trazado_913896" data-name="Trazado 913896" d="M315.5,200.027v6.582a1.975,1.975,0,1,0,3.949,0V199.5Z" transform="translate(-315.5 -199.5)" fill="#b3e59f"/>
              <path id="Trazado_913897" data-name="Trazado 913897" d="M435.5,200.027v6.582a1.975,1.975,0,1,0,3.949,0V199.5Z" transform="translate(-419.703 -199.5)" fill="#b3e59f"/>
              <path id="Trazado_913898" data-name="Trazado 913898" d="M375.5,229.027v6.582a1.975,1.975,0,0,0,3.949,0V228.5Z" transform="translate(-367.601 -224.682)" fill="#b3e59f"/>
            </g>
            <path id="Trazado_913899" data-name="Trazado 913899" d="M315.5,164a1.975,1.975,0,0,0,3.949,0v-1.58a1.975,1.975,0,0,1,3.949,0v5.4a1.975,1.975,0,0,0,3.949,0v-5.4a1.975,1.975,0,1,1,3.949,0V164a1.975,1.975,0,0,0,3.949,0v-7.5H315.5Z" transform="translate(-274.954 -146.89)" fill="#ccf49f"/>
            <path id="Trazado_913900" data-name="Trazado 913900" d="M455.948,156.5v1.894a8.974,8.974,0,0,0-1.444-1.89l0,0Z" transform="translate(-395.655 -146.89)" fill="#b3e59f"/>
            <path id="Trazado_913901" data-name="Trazado 913901" d="M43.175,87.449H9.475a1.975,1.975,0,1,1,0-3.949h33.7a1.975,1.975,0,1,1,0,3.949Z" transform="translate(-7.5 -83.5)" fill="#fff1ca"/>
            <path id="Trazado_913902" data-name="Trazado 913902" d="M254.424,85.475a1.978,1.978,0,0,1-1.975,1.975H248.5a1.975,1.975,0,1,0,0-3.949h3.949A1.975,1.975,0,0,1,254.424,85.475Z" transform="translate(-216.774 -83.5)" fill="#ffe2a1"/>
            <path id="Trazado_913903" data-name="Trazado 913903" d="M43.175,402.449H9.475a1.975,1.975,0,1,1,0-3.949h33.7a1.975,1.975,0,1,1,0,3.949Z" transform="translate(-7.5 -357.032)" fill="#fff1ca"/>
            <path id="Trazado_913904" data-name="Trazado 913904" d="M254.424,400.475a1.978,1.978,0,0,1-1.975,1.975H248.5a1.975,1.975,0,1,0,0-3.949h3.949A1.975,1.975,0,0,1,254.424,400.475Z" transform="translate(-216.774 -357.032)" fill="#ffe2a1"/>
            <path id="Trazado_913905" data-name="Trazado 913905" d="M22.5,113.5H56.2v37.518H22.5Z" transform="translate(-20.525 -109.551)" fill="#ffe07d"/>
            <path id="Trazado_913906" data-name="Trazado 913906" d="M248.5,113.5h3.949v37.518H248.5Z" transform="translate(-216.774 -109.551)" fill="#ffd064"/>
            <path id="Trazado_913907" data-name="Trazado 913907" d="M43.175,297.449H9.475a1.975,1.975,0,0,1,0-3.949h33.7a1.975,1.975,0,0,1,0,3.949Z" transform="translate(-7.5 -265.855)" fill="#fff1ca"/>
            <path id="Trazado_913908" data-name="Trazado 913908" d="M254.424,295.475a1.978,1.978,0,0,1-1.975,1.975H248.5a1.975,1.975,0,0,0,0-3.949h3.949A1.975,1.975,0,0,1,254.424,295.475Z" transform="translate(-216.774 -265.855)" fill="#ffe2a1"/>
            <path id="Trazado_913909" data-name="Trazado 913909" d="M43.175,192.449H9.475a1.975,1.975,0,0,1,0-3.949h33.7a1.975,1.975,0,0,1,0,3.949Z" transform="translate(-7.5 -174.677)" fill="#fff1ca"/>
            <path id="Trazado_913910" data-name="Trazado 913910" d="M254.424,190.475a1.978,1.978,0,0,1-1.975,1.975H248.5a1.975,1.975,0,1,0,0-3.949h3.949A1.975,1.975,0,0,1,254.424,190.475Z" transform="translate(-216.774 -174.677)" fill="#ffe2a1"/>
            <path id="Trazado_913911" data-name="Trazado 913911" d="M78.426,194.853a10.926,10.926,0,1,1,10.926-10.926A10.926,10.926,0,0,1,78.426,194.853Z" transform="translate(-59.601 -161.218)" fill="#6f6571"/>
            <path id="Trazado_913912" data-name="Trazado 913912" d="M148.4,183.926a10.931,10.931,0,0,1-12.9,10.747,10.928,10.928,0,0,0,0-21.495,10.928,10.928,0,0,1,12.9,10.747Z" transform="translate(-118.65 -161.218)" fill="#5d5360"/>
            <path id="Trazado_913913" data-name="Trazado 913913" d="M104.511,256l-3.354,5.811a.265.265,0,0,1-.373.089,6.974,6.974,0,0,1-3.245-5.623A.265.265,0,0,1,97.8,256h6.708Z" transform="translate(-85.686 -233.291)" fill="#fff"/>
            <path id="Trazado_913914" data-name="Trazado 913914" d="M157.208,256a.265.265,0,0,1,.263.277,6.957,6.957,0,0,1-2.038,4.657,7.072,7.072,0,0,1-1.209.966.265.265,0,0,1-.371-.09L150.5,256Z" transform="translate(-131.675 -233.291)" fill="#fff"/>
            <path id="Trazado_913915" data-name="Trazado 913915" d="M131.5,204.165l-3.354,5.811-3.354-5.811a.265.265,0,0,1,.109-.367,6.99,6.99,0,0,1,6.491,0A.265.265,0,0,1,131.5,204.165Z" transform="translate(-109.318 -187.268)" fill="#fff"/>
            <path id="Trazado_913916" data-name="Trazado 913916" d="M137.475,244.949a1.975,1.975,0,1,1,1.975-1.975A1.975,1.975,0,0,1,137.475,244.949Z" transform="translate(-118.65 -220.266)" fill="#6f6571"/>
          </g>
          <g id="Grupo_1102133" data-name="Grupo 1102133" transform="translate(0 0)">
            <path id="Trazado_913917" data-name="Trazado 913917" d="M100.784,202.477a2.96,2.96,0,0,0-.542-.936l1.959-3.395a1.261,1.261,0,0,0-.5-1.734,7.978,7.978,0,0,0-7.412,0,1.261,1.261,0,0,0-.5,1.734l1.959,3.395a2.962,2.962,0,0,0-.542.936H91.284a1.261,1.261,0,0,0-1.25,1.3,7.968,7.968,0,0,0,3.7,6.418,1.261,1.261,0,0,0,1.756-.429l1.958-3.393a2.931,2.931,0,0,0,1.081,0l1.958,3.392a1.26,1.26,0,0,0,1.755.43,8.082,8.082,0,0,0,1.379-1.1,7.94,7.94,0,0,0,2.326-5.316,1.26,1.26,0,0,0-1.25-1.3h-3.916Zm-2.792-5a5.94,5.94,0,0,1,2.1.377l-1.559,2.7a2.932,2.932,0,0,0-1.081,0l-1.559-2.7A5.935,5.935,0,0,1,97.992,197.475Zm-3.809,10.613a5.994,5.994,0,0,1-2.1-3.636H95.2a2.964,2.964,0,0,0,.542.936ZM97,203.464a.987.987,0,1,1,.987.987A.988.988,0,0,1,97,203.464Zm5.224,4.235q-.2.2-.428.388l-1.559-2.7a2.962,2.962,0,0,0,.542-.936H103.9A5.973,5.973,0,0,1,102.229,207.7Z" transform="translate(-78.18 -179.769)"/>
            <path id="Trazado_913918" data-name="Trazado 913918" d="M67.4,84.623a2.965,2.965,0,0,0-2.962-2.962h-10.6V80.015a2.306,2.306,0,0,0-2.3-2.3H45.746a2.306,2.306,0,0,0-2.3,2.3v1.646H37.881A2.961,2.961,0,0,0,36.663,76H2.962a2.962,2.962,0,0,0-.987,5.754v8.238a2.961,2.961,0,0,0,0,5.584v8.238a2.961,2.961,0,0,0,0,5.584v8.238a2.962,2.962,0,0,0,.987,5.754H64.44a2.961,2.961,0,0,0,1.219-5.66A9.911,9.911,0,0,0,67.4,112.1v-.271a.987.987,0,1,0-1.975,0v.271a7.949,7.949,0,0,1-2.071,5.363H37.65V109.4a2.961,2.961,0,0,0,0-5.584V95.577a2.961,2.961,0,0,0,0-5.584V87.585h2.9V99.367a2.962,2.962,0,1,0,5.924,0V92.521a.987.987,0,0,1,1.975,0v10.663a2.962,2.962,0,0,0,5.924,0V92.521a.987.987,0,0,1,1.975,0v6.845a2.962,2.962,0,1,0,5.924,0V87.585h1.088a7.952,7.952,0,0,1,2.071,5.363v14.277a.987.987,0,1,0,1.975,0V92.948a9.915,9.915,0,0,0-1.743-5.627A2.966,2.966,0,0,0,67.4,84.623ZM45.417,80.015a.329.329,0,0,1,.329-.329h5.792a.329.329,0,0,1,.329.329v1.646H45.417ZM2.962,77.975h33.7a.987.987,0,0,1,0,1.975H10.27a.987.987,0,1,0,0,1.975H35.675v7.9h-9.2a11.892,11.892,0,0,0-13.322,0h-9.2v-7.9H5.662a.987.987,0,1,0,0-1.975h-2.7a.987.987,0,0,1,0-1.975Zm28.09,25.671a11.912,11.912,0,0,0,0-7.9h4.623v7.9Zm-1.3-3.949a9.939,9.939,0,1,1-9.939-9.939A9.95,9.95,0,0,1,29.752,99.7Zm-25.8,17.772v-7.9h9.2a11.892,11.892,0,0,0,13.323,0h9.2v7.9ZM8.572,95.747a11.912,11.912,0,0,0,0,7.9H3.949v-7.9ZM2.962,91.8H10.9a11.987,11.987,0,0,0-1.423,1.975H2.962a.987.987,0,0,1,0-1.975Zm0,13.823H9.478a11.972,11.972,0,0,0,1.423,1.975H2.962a.987.987,0,1,1,0-1.975Zm-.987,14.81a.988.988,0,0,1,.987-.987h33.7a.987.987,0,1,1,0,1.975H2.962a.988.988,0,0,1-.987-.987Zm62.465.987H39.455a2.955,2.955,0,0,0,0-1.975H64.44a.987.987,0,1,1,0,1.975ZM36.663,107.595h-7.94a11.987,11.987,0,0,0,1.423-1.975h6.517a.987.987,0,1,1,0,1.975Zm0-13.823H30.146A11.972,11.972,0,0,0,28.723,91.8h7.94a.987.987,0,0,1,0,1.975Zm.987-10.137H64.44a.987.987,0,1,1,0,1.975H37.65Zm5.858,16.719a.988.988,0,0,1-.987-.987V96.893a2.955,2.955,0,0,0,1.975,0v2.474A.988.988,0,0,1,43.508,100.354Zm7.9,3.818a.988.988,0,0,1-.987-.987v-2.474a2.955,2.955,0,0,0,1.975,0v2.474A.988.988,0,0,1,51.407,104.172Zm7.9-3.818a.988.988,0,0,1-.987-.987V96.893a2.955,2.955,0,0,0,1.975,0v2.474A.988.988,0,0,1,59.306,100.354Zm.987-6.253a.987.987,0,1,1-1.975,0v-1.58a2.962,2.962,0,0,0-5.924,0v5.4a.987.987,0,1,1-1.975,0v-5.4a2.962,2.962,0,0,0-5.924,0V94.1a.987.987,0,1,1-1.975,0V87.585H60.293Z" transform="translate(0 -76)"/>
          </g>
        </g>
      </g>
      <g id="Grupo_1102135" data-name="Grupo 1102135" transform="translate(322.58 -3390.342)">
        <path id="Unión_3-2" data-name="Unión 3" d="M10.326,0C4.709,0,.113,5.512.113,12.25S4.709,24.5,10.326,24.5a2.289,2.289,0,0,1,2.05,2.458,2.289,2.289,0,0,1-2.05,2.458H4.982C2.242,29.416,0,32.1,0,35.391s2.242,5.976,4.982,5.976c2.37,0,4.309,2.326,4.309,5.168,0,5.186,3.538,9.43,7.862,9.43H63.3c5.617,0,10.213-5.512,10.213-12.25S68.921,31.466,63.3,31.466h-.988a2.289,2.289,0,0,1-2.049-2.458,2.289,2.289,0,0,1,2.049-2.459h6.65c2.74,0,4.982-2.689,4.982-5.976S71.711,14.6,68.975,14.6h-5.35c-2.37,0-4.309-2.326-4.309-5.168C59.316,4.243,55.778,0,51.454,0Z" transform="translate(386.848 5897.649) rotate(90)" fill="#ffe07d" stroke="rgba(0,0,0,0)" stroke-miterlimit="10" stroke-width="1" fill-rule="evenodd"/>
        <g id="Grupo_1102141" data-name="Grupo 1102141" transform="translate(334.336 5890.664)">
          <g id="Grupo_1102138" data-name="Grupo 1102138" transform="translate(16.008 20.56)">
            <g id="Grupo_1102136" data-name="Grupo 1102136" transform="translate(1.143 1.143)">
              <path id="Trazado_913919" data-name="Trazado 913919" d="M49.368,136l10.268,11.295a5.715,5.715,0,0,1,1.422,2.988l4.461,29.441a5.715,5.715,0,0,1-5.651,6.572H29.724a5.715,5.715,0,0,1-5.651-6.572l4.461-29.441a5.715,5.715,0,0,1,1.422-2.988L40.223,136Z" transform="translate(-24.008 -124.569)" fill="#f56364"/>
              <circle id="Elipse_11519" data-name="Elipse 11519" cx="10.288" cy="10.288" r="10.288" transform="translate(10.286 25.148)" fill="#f7e1db"/>
              <path id="Trazado_913920" data-name="Trazado 913920" d="M251.854,309.835H248v-2.286h3.854a4.572,4.572,0,0,0,4.521-5.257l-3.507-23.148,2.261-.343,3.507,23.149a6.858,6.858,0,0,1-6.781,7.886Z" transform="translate(-215.995 -246.965)"/>
              <path id="Trazado_913921" data-name="Trazado 913921" d="M110.063,67.431l-4.572-9.145V56H123.78v2.286l-4.572,9.145Z" transform="translate(-93.848 -56)" fill="#f56364"/>
            </g>
            <g id="Grupo_1102137" data-name="Grupo 1102137" transform="translate(0)">
              <path id="Trazado_913922" data-name="Trazado 913922" d="M46.388,75.028a4.558,4.558,0,0,1,1.138-2.391l9.928-10.921h2.1l-3.595,6.291,1.985,1.134,3.686-6.452,4.678,6.549,1.86-1.329-4.424-6.194h1.845l2.876,3.164,1.692-1.538-2.689-2.958,4.222-8.444a1.142,1.142,0,0,0,.121-.511V49.143A1.143,1.143,0,0,0,70.665,48H52.376a1.143,1.143,0,0,0-1.143,1.143v2.286a1.142,1.142,0,0,0,.121.511l4.222,8.444L45.834,71.1a6.835,6.835,0,0,0-1.706,3.586l-.607,4.005,2.26.343Zm7.13-24.742h16v.873l-4.136,8.271H57.654l-4.136-8.271Z" transform="translate(-39.59 -48)"/>
              <path id="Trazado_913923" data-name="Trazado 913923" d="M19.4,305.957a4.568,4.568,0,0,1-1.054-3.666l3.507-23.148-2.26-.343-3.508,23.149a6.858,6.858,0,0,0,6.781,7.886h24v-2.286h-24A4.568,4.568,0,0,1,19.4,305.957Z" transform="translate(-16.008 -245.822)"/>
              <path id="Trazado_913924" data-name="Trazado 913924" d="M136,400h9.145v2.286H136Z" transform="translate(-118.855 -349.705)"/>
              <path id="Trazado_913925" data-name="Trazado 913925" d="M104,432h18.289v2.286H104Z" transform="translate(-91.427 -377.132)"/>
              <path id="Trazado_913926" data-name="Trazado 913926" d="M97.3,233.007a7.167,7.167,0,0,0-4.745-1.54,3.6,3.6,0,0,0,.291-.81,8.165,8.165,0,0,0,.221-.9,7.121,7.121,0,0,0,.107-1.826,6.358,6.358,0,0,0-1.1-3.149A5.589,5.589,0,0,0,91.42,224a2.241,2.241,0,0,1,.262.741,7.931,7.931,0,0,1,.2.825,7.533,7.533,0,0,1,.126,1.677,6.832,6.832,0,0,1-.916,3.176c-.039.067-.079.134-.119.2q-.15.227-.316.441a6.839,6.839,0,0,0-4.94-2.106,7.238,7.238,0,0,0-4.953,2.1,13.36,13.36,0,0,1-.859-1.534,6.969,6.969,0,0,1-.452-1.776A7.564,7.564,0,0,1,80.014,224c-.088.213-.413.452-.557.646a6.028,6.028,0,0,0-.529.862,6.369,6.369,0,0,0-.592,1.788,7.19,7.19,0,0,0,.183,3.2,4.634,4.634,0,0,1,.312.956,11.206,11.206,0,0,0-2.273.3,6.848,6.848,0,0,0-2.429,1.254,6.211,6.211,0,0,0-2.13,3.2c.118-.45.969-1.066,1.332-1.355a7.389,7.389,0,0,1,1.785-1.057,6.59,6.59,0,0,1,4.147-.307,6.86,6.86,0,0,0,4.028,8.741q-.038.081-.078.162a6.594,6.594,0,0,1-2.229,2.482,7.163,7.163,0,0,1-1.524.781,4,4,0,0,1-1.758.431,6.2,6.2,0,0,0,4.327-.474,7.3,7.3,0,0,0,2.566-2.1c.054-.07.526-.865.567-.862q.274.022.554.022t.554-.022a7.042,7.042,0,0,0,3.623,3.19,6.216,6.216,0,0,0,3.837.247,3.827,3.827,0,0,1-1.566-.372,7.5,7.5,0,0,1-1.608-.783,6.947,6.947,0,0,1-2.337-2.539q-.04-.081-.078-.162a6.86,6.86,0,0,0,4.028-8.741,7.1,7.1,0,0,1,1.309-.2,6.632,6.632,0,0,1,3.216.666,7.609,7.609,0,0,1,2.739,2.258,1.374,1.374,0,0,1-.1-.337q-.066-.2-.147-.391a5.936,5.936,0,0,0-.365-.726,6.457,6.457,0,0,0-1.519-1.746Zm-11.586,3.681a8.243,8.243,0,0,0-.351-.889q.175.01.351.013l.354-.019A8.249,8.249,0,0,0,85.717,236.688Zm3.226-4.112c-.125.08-.247.164-.372.245a5.982,5.982,0,0,1-2.866.686,6.425,6.425,0,0,1-1.5-.186,4.536,4.536,0,0,1-1.324-.484c-.133-.086-.263-.176-.4-.261a4.565,4.565,0,0,1,6.453,0Zm-7.8,3.237a4.558,4.558,0,0,1,.2-1.354c.082.06.164.12.247.177a5.549,5.549,0,0,1,1.561,1.876,5.777,5.777,0,0,1,.764,2.822,5.665,5.665,0,0,1-.018.675A4.579,4.579,0,0,1,81.145,235.813Zm6.387,4.2c.018-.008-.02-.662-.017-.737a6.227,6.227,0,0,1,2.336-4.618c.077-.066.153-.136.235-.2a4.574,4.574,0,0,1-2.554,5.551Z" transform="translate(-64 -198.852)"/>
            </g>
          </g>
          <path id="Trazado_913927" data-name="Trazado 913927" d="M265.146,24a17.15,17.15,0,0,0-14.7,25.974L248,58.292l9.8-1.647A17.148,17.148,0,1,0,265.146,24Z" transform="translate(-198.844 -6.87)" fill="#e8faf8"/>
          <g id="Grupo_1102140" data-name="Grupo 1102140" transform="translate(48.013 15.985)">
            <path id="Trazado_913928" data-name="Trazado 913928" d="M288,122.288l11.431,3.429,11.431-3.429v-8L299.431,112,288,114.286Z" transform="translate(-281.141 -98.281)" fill="#55e1b2"/>
            <g id="Grupo_1102139" data-name="Grupo 1102139" transform="translate(0 0)">
              <path id="Trazado_913929" data-name="Trazado 913929" d="M268.044,18.8l-1.221,1.933a16.007,16.007,0,0,1-15.386,28.007,1.143,1.143,0,0,0-.679-.095l-8,1.345,1.929-6.566a1.143,1.143,0,0,0-.117-.912A16.01,16.01,0,0,1,264.69,19.6l.914-2.095a18.3,18.3,0,0,0-23.253,25.745L240.046,51.1a1.143,1.143,0,0,0,1.286,1.45l9.456-1.589A18.293,18.293,0,0,0,268.044,18.8Z" transform="translate(-239.999 -15.985)"/>
              <path id="Trazado_913930" data-name="Trazado 913930" d="M299.432,72c-2.331,0-4.26,2.192-4.538,5.014l-2.1-.419a1.144,1.144,0,0,0-.448,0l-2.1.419c-.278-2.822-2.207-5.014-4.538-5.014-2.521,0-4.572,2.564-4.572,5.715a7.2,7.2,0,0,0,.086,1.1l-.309.062A1.143,1.143,0,0,0,280,80v8a1.143,1.143,0,0,0,.815,1.095l11.431,3.429a1.144,1.144,0,0,0,.657,0L304.333,89.1A1.143,1.143,0,0,0,305.148,88V80a1.143,1.143,0,0,0-.919-1.121l-.309-.062a7.2,7.2,0,0,0,.085-1.1C304,74.564,301.953,72,299.432,72Zm0,2.286c1.239,0,2.286,1.57,2.286,3.429a4.968,4.968,0,0,1-.043.655l-4.523-.9C297.241,75.718,298.249,74.286,299.432,74.286Zm-16,3.429c0-1.859,1.047-3.429,2.286-3.429,1.183,0,2.191,1.432,2.28,3.179l-4.523.9A4.963,4.963,0,0,1,283.429,77.715Zm19.432,9.437-10.288,3.086-10.288-3.086V80.939l10.288-2.058,10.288,2.058Z" transform="translate(-274.285 -63.996)"/>
              <path id="Trazado_913931" data-name="Trazado 913931" d="M334.614,136.239l-.554,2.218,4.572,1.143a1.142,1.142,0,0,0,.554,0l4.572-1.143-.554-2.218-4.3,1.074Z" transform="translate(-320.62 -119.057)"/>
              <path id="Trazado_913932" data-name="Trazado 913932" d="M352,168h4.572v2.286H352Z" transform="translate(-335.997 -146.279)"/>
            </g>
          </g>
        </g>
      </g>
      <g id="Grupo_1102150" data-name="Grupo 1102150" transform="translate(754.58 -3390.342)">
        <path id="Unión_3-3" data-name="Unión 3" d="M10.326,0C4.709,0,.113,5.512.113,12.25S4.709,24.5,10.326,24.5a2.289,2.289,0,0,1,2.05,2.458,2.289,2.289,0,0,1-2.05,2.458H4.982C2.242,29.416,0,32.1,0,35.391s2.242,5.976,4.982,5.976c2.37,0,4.309,2.326,4.309,5.168,0,5.186,3.538,9.43,7.862,9.43H63.3c5.617,0,10.213-5.512,10.213-12.25S68.921,31.466,63.3,31.466h-.988a2.289,2.289,0,0,1-2.049-2.458,2.289,2.289,0,0,1,2.049-2.459h6.65c2.74,0,4.982-2.689,4.982-5.976S71.711,14.6,68.975,14.6h-5.35c-2.37,0-4.309-2.326-4.309-5.168C59.316,4.243,55.778,0,51.454,0Z" transform="translate(386.848 5897.649) rotate(90)" fill="#6fec86" stroke="rgba(0,0,0,0)" stroke-miterlimit="10" stroke-width="1" fill-rule="evenodd"/>
        <g id="Grupo_1102152" data-name="Grupo 1102152" transform="translate(337.025 5902.928)">
          <path id="Trazado_913962" data-name="Trazado 913962" d="M24,232H92.4v40.1H24Z" transform="translate(-20.462 -197.798)" fill="#d5edf6"/>
          <path id="Trazado_913963" data-name="Trazado 913963" d="M72,292H96.767v18.28H72Z" transform="translate(-61.386 -248.953)" fill="#7a868e"/>
          <path id="Trazado_913964" data-name="Trazado 913964" d="M72,416H96.767v12.973H72Z" transform="translate(-61.386 -354.673)" fill="#7a868e"/>
          <path id="Trazado_913965" data-name="Trazado 913965" d="M272,416h24.767v12.973H272Z" transform="translate(-231.902 -354.673)" fill="#7a868e"/>
          <path id="Trazado_913966" data-name="Trazado 913966" d="M272,292h24.767v18.28H272Z" transform="translate(-231.902 -248.953)" fill="#7a868e"/>
          <path id="Trazado_913967" data-name="Trazado 913967" d="M24,232H91.814v4.128H24Z" transform="translate(-20.462 -197.798)" fill="#94d4eb"/>
          <rect id="Rectángulo_403803" data-name="Rectángulo 403803" width="59" height="4" rx="2" transform="translate(7.58 38.58)" fill="#75dad5"/>
          <path id="Trazado_913968" data-name="Trazado 913968" d="M72,292h8.256v1.769a4.128,4.128,0,0,1-8.256,0Z" transform="translate(-61.386 -248.953)" fill="#00bbb6"/>
          <path id="Trazado_913969" data-name="Trazado 913969" d="M128,292h8.256v1.769a4.128,4.128,0,0,1-8.256,0Z" transform="translate(-109.13 -248.953)" fill="#eb907c"/>
          <path id="Trazado_913970" data-name="Trazado 913970" d="M184,292h8.256v1.769a4.128,4.128,0,0,1-8.256,0Z" transform="translate(-156.875 -248.953)" fill="#00bbb6"/>
          <path id="Trazado_913971" data-name="Trazado 913971" d="M272,292h8.256v1.769a4.128,4.128,0,0,1-8.256,0Z" transform="translate(-231.902 -248.953)" fill="#00bbb6"/>
          <path id="Trazado_913972" data-name="Trazado 913972" d="M328,292h8.256v1.769a4.128,4.128,0,0,1-8.256,0Z" transform="translate(-279.646 -248.953)" fill="#eb907c"/>
          <path id="Trazado_913973" data-name="Trazado 913973" d="M384,292h8.256v1.769a4.128,4.128,0,0,1-8.256,0Z" transform="translate(-327.39 -248.953)" fill="#00bbb6"/>
          <path id="Trazado_913974" data-name="Trazado 913974" d="M407.659,12.717h-4.586a1.619,1.619,0,0,1-1.607-1.821l.363-2.9h7.076l.363,2.9a1.619,1.619,0,0,1-1.607,1.821Z" transform="translate(-342.271 -6.821)" fill="#ffe07d"/>
          <path id="Trazado_913975" data-name="Trazado 913975" d="M405.435,63.587H396L397.179,40h7.076Z" transform="translate(-337.621 -34.103)" fill="#d8eaec"/>
          <path id="Trazado_913976" data-name="Trazado 913976" d="M311.659,12.717h-4.586a1.619,1.619,0,0,1-1.607-1.821l.363-2.9h7.076l.363,2.9a1.619,1.619,0,0,1-1.607,1.821Z" transform="translate(-260.423 -6.821)" fill="#ffe07d"/>
          <path id="Trazado_913977" data-name="Trazado 913977" d="M309.435,63.587H300L301.179,40h7.076Z" transform="translate(-255.774 -34.103)" fill="#d8eaec"/>
          <path id="Trazado_913978" data-name="Trazado 913978" d="M300,63.587h4.717V40h-3.538Z" transform="translate(-255.774 -34.103)" fill="#94d4eb"/>
          <path id="Trazado_913979" data-name="Trazado 913979" d="M396,63.587h4.717V40h-3.538Z" transform="translate(-337.621 -34.103)" fill="#94d4eb"/>
          <path id="Trazado_913980" data-name="Trazado 913980" d="M86.408,16.845A8.845,8.845,0,0,0,77.563,8H72.845A8.845,8.845,0,0,0,64,16.845Z" transform="translate(-54.565 -6.821)" fill="#e9544e"/>
          <path id="Trazado_913981" data-name="Trazado 913981" d="M100,364h7.076v7.666H100Z" transform="translate(-85.258 -310.339)" fill="#f56364"/>
          <path id="Trazado_913982" data-name="Trazado 913982" d="M148,380h9.435v5.307H148Z" transform="translate(-126.182 -323.98)" fill="#f56364"/>
          <path id="Trazado_913983" data-name="Trazado 913983" d="M64,68H86.408V87.46H64Z" transform="translate(-54.565 -57.975)" fill="#d8eaec"/>
          <path id="Trazado_913984" data-name="Trazado 913984" d="M64,64H74.614V83.46H64Z" transform="translate(-54.565 -54.565)" fill="#94d4eb"/>
          <path id="Trazado_913985" data-name="Trazado 913985" d="M56,116H67.794v5.9H56Z" transform="translate(-47.744 -98.899)" fill="#f8f4df"/>
          <path id="Trazado_913986" data-name="Trazado 913986" d="M56,116h5.307v5.9H56Z" transform="translate(-47.744 -98.899)" fill="#efe4b2"/>
          <path id="Trazado_913987" data-name="Trazado 913987" d="M184,116h5.9v5.9H184Z" transform="translate(-156.875 -98.899)" fill="#f8f4df"/>
          <path id="Trazado_913988" data-name="Trazado 913988" d="M8,200H81.121v4.717H8Z" transform="translate(-6.821 -170.516)" fill="#fdd16f"/>
          <g id="Grupo_1102151" data-name="Grupo 1102151" transform="translate(14.742 54.841)">
            <path id="Trazado_913989" data-name="Trazado 913989" d="M100,472h9.435v4.717H100Z" transform="translate(-100 -457.258)" fill="#f56364"/>
            <path id="Trazado_913990" data-name="Trazado 913990" d="M164,460h7.076v6.487H164Z" transform="translate(-154.565 -447.027)" fill="#f56364"/>
            <path id="Trazado_913991" data-name="Trazado 913991" d="M300,372h10.025v6.487H300Z" transform="translate(-270.516 -372)" fill="#f56364"/>
            <path id="Trazado_913992" data-name="Trazado 913992" d="M368,384h6.487v4.717H368Z" transform="translate(-328.491 -382.231)" fill="#f56364"/>
            <path id="Trazado_913993" data-name="Trazado 913993" d="M300,468h5.9v5.307H300Z" transform="translate(-270.516 -453.848)" fill="#f56364"/>
            <path id="Trazado_913994" data-name="Trazado 913994" d="M340,460h10.614v6.487H340Z" transform="translate(-304.619 -447.027)" fill="#f56364"/>
          </g>
          <path id="Trazado_913995" data-name="Trazado 913995" d="M120,260h10.614v4.717H120Z" transform="translate(-102.31 -221.671)" fill="#f8f4df"/>
          <path id="Trazado_913996" data-name="Trazado 913996" d="M320,260h10.614v4.717H320Z" transform="translate(-272.825 -221.671)" fill="#f8f4df"/>
          <path id="Trazado_913997" data-name="Trazado 913997" d="M136.256,292v1.769a4.132,4.132,0,0,1-4.128,4.128A4.148,4.148,0,0,1,128,293.769V292Z" transform="translate(-109.13 -248.953)" fill="#efe4b2"/>
          <path id="Trazado_913998" data-name="Trazado 913998" d="M336.256,292v1.769a4.132,4.132,0,0,1-4.128,4.128A4.147,4.147,0,0,1,328,293.769V292Z" transform="translate(-279.646 -248.953)" fill="#efe4b2"/>
          <path id="Trazado_913999" data-name="Trazado 913999" d="M407.409,103.076H398.8L399.154,96h7.9Z" transform="translate(-340.009 -81.848)" fill="#ffe07d"/>
          <path id="Trazado_914000" data-name="Trazado 914000" d="M311.409,103.076H302.8L303.154,96h7.9Z" transform="translate(-258.161 -81.848)" fill="#ffe07d"/>
          <path id="Trazado_914001" data-name="Trazado 914001" d="M75.2,8c-3.762,0-4.588,5.555-4.717,8.845H64A8.848,8.848,0,0,1,72.845,8Z" transform="translate(-54.565 -6.821)" fill="#ffe07d"/>
          <path id="Trazado_914002" data-name="Trazado 914002" d="M151.2,16.845h-6.487C144.588,13.555,143.762,8,140,8h2.359a8.859,8.859,0,0,1,8.845,8.845Z" transform="translate(-119.361 -6.821)" fill="#ffe07d"/>
          <path id="Trazado_914003" data-name="Trazado 914003" d="M117.435,16.845H108c.13-3.29.955-8.845,4.717-8.845S117.305,13.555,117.435,16.845Z" transform="translate(-92.079 -6.821)" fill="#ffe07d"/>
          <path id="Trazado_914004" data-name="Trazado 914004" d="M112.717,16.845H108c.13-3.29.955-8.845,4.717-8.845Z" transform="translate(-92.079 -6.821)" fill="#ffe07d"/>
          <path id="Trazado_914005" data-name="Trazado 914005" d="M307.1,96v7.076h-4.3L303.154,96Z" transform="translate(-258.161 -81.848)" fill="#ffe07d"/>
          <path id="Trazado_914006" data-name="Trazado 914006" d="M403.1,96v7.076h-4.3L399.154,96Z" transform="translate(-340.009 -81.848)" fill="#ffe07d"/>
          <path id="Trazado_914007" data-name="Trazado 914007" d="M136,116h7.076v12.383H136Z" transform="translate(-115.951 -98.899)" fill="#ffe07d"/>
          <path id="Trazado_914008" data-name="Trazado 914008" d="M74.3,28.3H68.935L67.812,5.838a.828.828,0,0,0-.031-.122,2.8,2.8,0,0,0,.385-1.785l-.363-2.9A1.18,1.18,0,0,0,66.633,0H59.557a1.18,1.18,0,0,0-1.171,1.033l-.363,2.9a2.8,2.8,0,0,0,.385,1.785,1.241,1.241,0,0,0-.031.122L57.254,28.3H54.78L53.657,5.838a.826.826,0,0,0-.031-.122,2.8,2.8,0,0,0,.385-1.785l-.363-2.9A1.18,1.18,0,0,0,52.477,0H45.4a1.18,1.18,0,0,0-1.171,1.033l-.363,2.9a2.8,2.8,0,0,0,.385,1.785,1.239,1.239,0,0,0-.031.122L43.1,28.3H33.016V24.177A1.179,1.179,0,0,0,34.2,23V17.1a1.179,1.179,0,0,0-1.179-1.179v-5.9A10.027,10.027,0,0,0,23,0H18.28A10.036,10.036,0,0,0,8.256,10.025v5.9A1.179,1.179,0,0,0,7.076,17.1V23a1.179,1.179,0,0,0,1.179,1.179V28.3H1.179A1.179,1.179,0,0,0,0,29.484V34.2a1.179,1.179,0,0,0,1.179,1.179H2.359V74.3a1.179,1.179,0,0,0,1.179,1.179h68.4A1.179,1.179,0,0,0,73.121,74.3V35.381H74.3A1.179,1.179,0,0,0,75.479,34.2V29.484A1.179,1.179,0,0,0,74.3,28.3ZM65.512,7.076l.295,5.9H60.385l.295-5.9Zm-5.245,8.256h5.658l.236,4.717h-6.13ZM60.6,2.359h4.993l.233,1.863a.442.442,0,0,1-.438.5H60.8a.442.442,0,0,1-.438-.5L60.6,2.359Zm-.686,20.049h6.366l.295,5.9H59.618ZM51.36,7.076l.295,5.9H46.233l.295-5.9Zm-5.245,8.256h5.658l.236,4.717h-6.13Zm.332-12.973H51.44l.233,1.863a.442.442,0,0,1-.438.5H46.648a.442.442,0,0,1-.438-.5l.233-1.863Zm-.686,20.049h6.366l.295,5.9H45.466Zm-15.1,5.9H28.3V24.177h2.359ZM9.435,21.818V18.28H18.87v3.538ZM31.843,18.28v3.538H28.3V18.28ZM21.229,22.408h4.717v1.769H21.229Zm4.717-4.128v1.769H21.229V18.28Zm-2.359-2.359a1.179,1.179,0,1,1,2.359,0Zm-7.076,0a1.179,1.179,0,0,1,2.359,0Zm4.717,10.614h4.717V28.3H21.229ZM30.563,8.845H26.469A14.77,14.77,0,0,0,24.835,2.59a7.677,7.677,0,0,1,5.73,6.255ZM20.639,2.359c2.5,0,3.239,4.07,3.458,6.487H17.182c.22-2.416.958-6.487,3.458-6.487Zm-4.194.231A14.72,14.72,0,0,0,14.81,8.845H10.716a7.675,7.675,0,0,1,5.73-6.255ZM10.614,11.2H30.664v4.717H28.3a3.538,3.538,0,1,0-7.076,0,3.538,3.538,0,0,0-7.076,0H10.614Zm0,12.973H18.87V28.3H10.614ZM60.737,66.634H50.123a1.179,1.179,0,0,0-1.179,1.179H44.226a1.179,1.179,0,0,0-1.179,1.179v4.128H41.278V62.506H63.686V73.121H61.917V67.814A1.179,1.179,0,0,0,60.737,66.634ZM15.921,60.148V54.841h4.717v5.307ZM23,57.2h7.076v2.948H23Zm8.256-2.359H23V53.661a1.179,1.179,0,0,0-1.179-1.179H14.742a1.179,1.179,0,0,0-1.179,1.179v6.487H11.794V49.225a5.259,5.259,0,0,0,7.076-1.115,5.24,5.24,0,0,0,8.256,0A5.259,5.259,0,0,0,34.2,49.225V60.148H32.433V56.02A1.179,1.179,0,0,0,31.253,54.841ZM11.794,44.226h5.9v.59a2.948,2.948,0,0,1-5.9,0Zm14.152,0v.59a2.948,2.948,0,0,1-5.9,0v-.59Zm21.229,0v.59a2.948,2.948,0,1,1-5.9,0v-.59Zm8.256,0v.59a2.948,2.948,0,0,1-5.9,0v-.59ZM45.406,60.148V56.02h7.666v4.128ZM55.43,57.789h4.128v2.359H55.43Zm5.307-2.359H55.43v-.59a1.179,1.179,0,0,0-1.179-1.179H44.226a1.179,1.179,0,0,0-1.179,1.179v5.307H41.278V49.225a5.259,5.259,0,0,0,7.076-1.115,5.24,5.24,0,0,0,8.256,0,5.259,5.259,0,0,0,7.076,1.115V60.148H61.917V56.61A1.179,1.179,0,0,0,60.737,55.43Zm2.948-10.614a2.948,2.948,0,1,1-5.9,0v-.59h5.9Zm-29.484,0a2.948,2.948,0,1,1-5.9,0v-.59h5.9Zm2.359,0v-.59h2.359V73.121H36.56Zm28.3-2.948h-5.9V39.509h5.9a1.179,1.179,0,1,1,0,2.359Zm-8.256,0H48.354V39.509H56.61ZM46,41.868H38.919V39.509H46Zm-9.435,0H29.484V39.509H36.56Zm-9.435,0H18.87V39.509h8.256Zm-10.614,0h-5.9a1.179,1.179,0,0,1,0-2.359h5.9ZM11.794,62.506H34.2V73.121H32.433V67.814a1.179,1.179,0,0,0-1.179-1.179H24.177A1.179,1.179,0,0,0,23,67.814v.59H14.742a1.179,1.179,0,0,0-1.179,1.179v3.538H11.794Zm4.128,8.256H23v2.359H15.921Zm9.435,2.359V68.993h4.717v4.128Zm20.049-2.948h3.538v2.948H45.406Zm5.9,2.948V68.993h8.256v4.128Zm19.46,0H66.045V44.01a3.53,3.53,0,0,0-1.179-6.859H10.614A3.53,3.53,0,0,0,9.435,44.01V73.121H4.717V35.381H70.762Zm2.359-40.1H2.359V30.664H73.121Z"/>
        </g>
      </g>
      <g id="Grupo_1102144" data-name="Grupo 1102144" transform="translate(537.58 -3390.342)">
        <path id="Unión_3-4" data-name="Unión 3" d="M10.326,0C4.709,0,.113,5.512.113,12.25S4.709,24.5,10.326,24.5a2.289,2.289,0,0,1,2.05,2.458,2.289,2.289,0,0,1-2.05,2.458H4.982C2.242,29.416,0,32.1,0,35.391s2.242,5.976,4.982,5.976c2.37,0,4.309,2.326,4.309,5.168,0,5.186,3.538,9.43,7.862,9.43H63.3c5.617,0,10.213-5.512,10.213-12.25S68.921,31.466,63.3,31.466h-.988a2.289,2.289,0,0,1-2.049-2.458,2.289,2.289,0,0,1,2.049-2.459h6.65c2.74,0,4.982-2.689,4.982-5.976S71.711,14.6,68.975,14.6h-5.35c-2.37,0-4.309-2.326-4.309-5.168C59.316,4.243,55.778,0,51.454,0Z" transform="translate(386.848 5897.649) rotate(90)" fill="#ffe07d" stroke="rgba(0,0,0,0)" stroke-miterlimit="10" stroke-width="1" fill-rule="evenodd"/>
      </g>
      <g id="Grupo_1102143" data-name="Grupo 1102143" transform="translate(871.519 2524.071)">
        <path id="Trazado_913933" data-name="Trazado 913933" d="M74.047,376h46.628a2.027,2.027,0,0,1,2.027,2.027v4.055a2.027,2.027,0,0,1-2.027,2.027H74.047a2.027,2.027,0,0,1-2.027-2.027v-4.055A2.027,2.027,0,0,1,74.047,376Zm0,0" transform="translate(-62.877 -328.359)" fill="#238892"/>
        <path id="Trazado_913934" data-name="Trazado 913934" d="M125.088,96.546H120.02l5.068-22.3L120.02,56h5.068l5.068,18.246Zm0,0" transform="translate(-104.796 -48.905)" fill="#aabece"/>
        <path id="Trazado_913935" data-name="Trazado 913935" d="M106.156,405.068A5.068,5.068,0,1,1,101.088,400,5.068,5.068,0,0,1,106.156,405.068Zm0,0" transform="translate(-83.837 -349.318)" fill="#aabece"/>
        <path id="Trazado_913936" data-name="Trazado 913936" d="M394.156,405.068A5.068,5.068,0,1,1,389.088,400,5.068,5.068,0,0,1,394.156,405.068Zm0,0" transform="translate(-335.345 -349.318)" fill="#aabece"/>
        <path id="Trazado_913943" data-name="Trazado 913943" d="M10.047,8C8.8,8,8.02,9.361,8.02,11.041s.783,3.041,2.027,3.041a2.344,2.344,0,0,1,2.027-1.52,2.344,2.344,0,0,1,2.027,1.52h3.016a2.377,2.377,0,0,1,2.053-1.52,2.377,2.377,0,0,1,2.053,1.52h7.07V10.027A2.027,2.027,0,0,0,26.265,8Zm0,0" transform="translate(-6.986 -6.987)" fill="#5a6470"/>
        <path id="Trazado_913944" data-name="Trazado 913944" d="M124.075,426.027A2.027,2.027,0,1,1,122.047,424,2.027,2.027,0,0,1,124.075,426.027Zm0,0" transform="translate(-104.796 -370.277)" fill="#5a6470"/>
        <path id="Trazado_913945" data-name="Trazado 913945" d="M412.075,426.027A2.027,2.027,0,1,1,410.047,424,2.027,2.027,0,0,1,412.075,426.027Zm0,0" transform="translate(-356.304 -370.277)" fill="#5a6470"/>
        <path id="Trazado_913952" data-name="Trazado 913952" d="M124.075,426.027A2.027,2.027,0,1,1,122.047,424,2.027,2.027,0,0,1,124.075,426.027Zm0,0" transform="translate(-104.796 -370.277)"/>
        <path id="Trazado_913953" data-name="Trazado 913953" d="M412.075,426.027A2.027,2.027,0,1,1,410.047,424,2.027,2.027,0,0,1,412.075,426.027Zm0,0" transform="translate(-356.304 -370.277)"/>
        <path id="Trazado_913955" data-name="Trazado 913955" d="M57.8,46.627H21.562l4.787-21.061a1.006,1.006,0,0,0-.012-.5L21.61,8.048A1,1,0,0,0,22.32,7.1V3.041A3.041,3.041,0,0,0,19.279,0H3.06C1.3,0,.02,1.7.02,4.054S1.3,8.109,3.06,8.109a1.013,1.013,0,0,0,.93-.608,1.364,1.364,0,0,1,1.1-.912,1.364,1.364,0,0,1,1.1.912,1.013,1.013,0,0,0,.93.608h3.016a1.013,1.013,0,0,0,.931-.613,1.394,1.394,0,0,1,1.121-.907A1.393,1.393,0,0,1,13.3,7.5a1.014,1.014,0,0,0,.931.613h.218l4.794,17.256L14.413,46.627H11.17a3.041,3.041,0,0,0-3.041,3.041v4.055a3.041,3.041,0,0,0,3.041,3.041h1.115a5.068,5.068,0,0,0,9.934,0H48.776a5.06,5.06,0,0,0,9.948-.16,3.033,3.033,0,0,0,2.114-2.881V49.668A3.041,3.041,0,0,0,57.8,46.627ZM12.183,4.561a3.28,3.28,0,0,0-2.649,1.52H7.716a3.2,3.2,0,0,0-2.629-1.52A3.156,3.156,0,0,0,2.607,5.879a2.657,2.657,0,0,1-.56-1.824c0-1.137.445-2.027,1.014-2.027H19.279a1.014,1.014,0,0,1,1.014,1.014V6.082H14.833a3.281,3.281,0,0,0-2.65-1.52Zm9.1,21a1.006,1.006,0,0,0-.012-.5L16.557,8.109h2.965l4.794,17.256L19.482,46.627H16.494ZM17.252,58.791a3.041,3.041,0,1,1,3.041-3.041A3.041,3.041,0,0,1,17.252,58.791Zm36.491,0a3.041,3.041,0,1,1,3.041-3.041A3.041,3.041,0,0,1,53.743,58.791Zm5.068-5.068a.991.991,0,0,1-.226.608,5.053,5.053,0,0,0-9.809.405H22.218a5.068,5.068,0,0,0-9.934,0H11.17a1.014,1.014,0,0,1-1.014-1.014V49.668a1.014,1.014,0,0,1,1.014-1.014H57.8a1.014,1.014,0,0,1,1.014,1.014Zm0,0"/>
      </g>
      <g id="Grupo_1102149" data-name="Grupo 1102149" transform="translate(824.549 2516.75)">
        <g id="Grupo_1102148" data-name="Grupo 1102148" transform="translate(77.06 9.661)">
          <g id="Grupo_1102146" data-name="Grupo 1102146" transform="translate(0 0)">
            <path id="Trazado_913956" data-name="Trazado 913956" d="M102.034,21h29.1V65.411h-29.1Z" transform="translate(-100.273 -20.528)" fill="#f56364" fill-rule="evenodd"/>
            <g id="Grupo_1102145" data-name="Grupo 1102145">
              <path id="Trazado_913957" data-name="Trazado 913957" d="M84.762,16h29.891a1.364,1.364,0,0,1,0,2.728H84.762a1.364,1.364,0,1,1,0-2.728Z" transform="translate(-83.398 -16)" fill="#f56364" fill-rule="evenodd"/>
              <path id="Trazado_913958" data-name="Trazado 913958" d="M84.762,467.129h29.891a1.364,1.364,0,0,1,0,2.728H84.762a1.364,1.364,0,1,1,0-2.728Z" transform="translate(-83.398 -424.501)" fill="#f56364" fill-rule="evenodd"/>
              <path id="Trazado_913959" data-name="Trazado 913959" d="M84.762,241.564h29.891a1.364,1.364,0,0,1,0,2.728H84.762a1.364,1.364,0,1,1,0-2.728Z" transform="translate(-83.398 -220.25)" fill="#f56364" fill-rule="evenodd"/>
            </g>
          </g>
          <g id="Grupo_1102147" data-name="Grupo 1102147" transform="translate(0.252 6.626)">
            <circle id="Elipse_11520" data-name="Elipse 11520" cx="11.352" cy="11.352" r="11.352" transform="translate(0 16.052) rotate(-45)" fill="#fdcd56"/>
            <path id="Trazado_913960" data-name="Trazado 913960" d="M177.385,173.69l2.8-4.849a8.394,8.394,0,0,0-8.348,0l2.8,4.849A2.75,2.75,0,0,1,177.385,173.69Zm-5.548,9.609a8.349,8.349,0,0,1-4.173-7.229h5.6a2.744,2.744,0,0,0,1.374,2.38Zm12.521-7.229h-5.6a2.75,2.75,0,0,1-1.374,2.38l2.8,4.849A8.35,8.35,0,0,0,184.358,176.07Z" transform="translate(-159.954 -160.018)" fill="#636c77" fill-rule="evenodd"/>
          </g>
        </g>
        <path id="Trazado_913961" data-name="Trazado 913961" d="M101.027,33a7.732,7.732,0,0,1-3.255,5.639l-2.156-3.734a3.436,3.436,0,0,0,1.1-1.9Zm-5.57-.662a2.1,2.1,0,0,1-1.043,1.809.661.661,0,0,0-.242.9l2.8,4.849a.663.663,0,0,0,.4.309.7.7,0,0,0,.171.022.665.665,0,0,0,.332-.089,9.049,9.049,0,0,0,4.5-7.8.661.661,0,0,0-.661-.662h-5.6A.661.661,0,0,0,95.457,32.339Zm1.169-6.961-2.157,3.735a3.435,3.435,0,0,0-2.2,0l-2.157-3.736A7.712,7.712,0,0,1,96.626,25.377Zm-5.2,4.913a.661.661,0,0,0,.9.242,2.1,2.1,0,0,1,2.088,0,.661.661,0,0,0,.9-.243l2.8-4.849a.662.662,0,0,0-.242-.9,9.032,9.032,0,0,0-9.01,0,.661.661,0,0,0-.242.9Zm-2.454,8.349A7.727,7.727,0,0,1,85.713,33h4.311a3.418,3.418,0,0,0,1.1,1.9Zm3.357-4.493a2.084,2.084,0,0,1-1.043-1.806.661.661,0,0,0-.661-.662h-5.6a.662.662,0,0,0-.661.662,9.049,9.049,0,0,0,4.5,7.8.662.662,0,0,0,.9-.242l2.8-4.849a.661.661,0,0,0-.243-.9Zm1.459-1.088a.83.83,0,1,1,.3-1.134A.831.831,0,0,1,93.785,33.059Zm15.233,20.595a.7.7,0,0,1-.7.7H78.425a.7.7,0,0,1,0-1.405h29.891A.7.7,0,0,1,109.018,53.653ZM77.722,32.34a.7.7,0,0,1,.7-.7h2.953c-.013.233-.021.466-.021.7s.008.47.021.7H78.425A.7.7,0,0,1,77.722,32.34Zm0-21.314a.7.7,0,0,1,.7-.7h29.891a.7.7,0,0,1,0,1.405H78.425A.7.7,0,0,1,77.722,11.026Zm31.3,21.314a.7.7,0,0,1-.7.7h-2.953c.013-.232.021-.467.021-.7s-.008-.47-.021-.7h2.953A.7.7,0,0,1,109.018,32.34Zm-4.957,0A10.691,10.691,0,1,0,93.37,43.03,10.7,10.7,0,0,0,104.061,32.34Zm3.2-19.289H79.483V30.315h2.045a12.014,12.014,0,0,1,23.684,0h2.045ZM79.483,51.628h27.774V34.365h-2.045a12.014,12.014,0,0,1-23.684,0H79.483ZM110.341,32.34a2.027,2.027,0,0,0-1.761-2.006v-17.3A2.025,2.025,0,0,0,108.315,9H78.425a2.025,2.025,0,0,0-.264,4.032v17.3a2.023,2.023,0,0,0,0,4.012v17.3a2.025,2.025,0,0,0,.264,4.032h29.891a2.025,2.025,0,0,0,.264-4.032v-17.3A2.027,2.027,0,0,0,110.341,32.34Z" stroke="#000" stroke-width="0.5" fill-rule="evenodd"/>
      </g>
    </g>
  </g>
</svg>
