<svg xmlns="http://www.w3.org/2000/svg" width="40" height="53.455" viewBox="0 0 40 53.455">
  <path id="Trazado_912151" data-name="Trazado 912151" d="M0,45.99c0,4.06,3.94,7.383,8.755,7.383s8.755-3.322,8.755-7.383a1.642,1.642,0,0,1,1.757-1.482,1.642,1.642,0,0,1,1.757,1.482v3.863c0,1.981,1.922,3.6,4.271,3.6s4.271-1.621,4.271-3.6a3.452,3.452,0,0,1,3.694-3.115c3.707,0,6.74-2.557,6.74-5.683V7.694C40,3.634,36.06.312,31.245.312S22.49,3.634,22.49,7.694v.714A1.642,1.642,0,0,1,20.733,9.89a1.642,1.642,0,0,1-1.757-1.481V3.6c0-1.981-1.922-3.6-4.271-3.6s-4.267,1.617-4.271,3.595c0,0,0,3.865,0,3.867A3.452,3.452,0,0,1,6.74,10.577C3.033,10.577,0,13.134,0,16.26Z" fill="#7ad8ec" fill-rule="evenodd"/>
</svg>
