<svg xmlns="http://www.w3.org/2000/svg" xmlns:xlink="http://www.w3.org/1999/xlink" width="820" height="326" viewBox="0 0 820 326">
  <defs>
    <clipPath id="clip-path">
      <rect id="Rectángulo_403717" data-name="Rectángulo 403717" width="340.608" height="291.342" transform="translate(0 0)" fill="none"/>
    </clipPath>
  </defs>
  <g id="Grupo_1102683" data-name="Grupo 1102683" transform="translate(-390 -17426.637)">
    <g id="Grupo_1102129" data-name="Grupo 1102129" transform="translate(0 -58.363)">
      <g id="Grupo_1101977" data-name="Grupo 1101977" transform="translate(789.73 17485.348)" opacity="0.53">
        <rect id="Rectángulo_35205" data-name="Rectángulo 35205" width="420.27" height="325.652" transform="translate(0 0)" fill="#a46ab9"/>
      </g>
      <g id="Grupo_1101976" data-name="Grupo 1101976" transform="translate(-105)">
        <path id="Rectángulo_403676" data-name="Rectángulo 403676" d="M20,0H400a0,0,0,0,1,0,0V326a0,0,0,0,1,0,0H20A20,20,0,0,1,0,306V20A20,20,0,0,1,20,0Z" transform="translate(495 17485)" fill="#f56364" opacity="0.3"/>
        <text id="Promedio_6_meses_" data-name="Promedio (6 meses)" transform="translate(526 17534)" fill="#12263f" font-size="16" font-family="Roboto-Black, Roboto" font-weight="800"><tspan x="0" y="0">Promedio (6 meses)</tspan></text>
        <text id="Media_móvil_mes_7_" data-name="Media móvil (mes 7)" transform="translate(526 17648.379)" fill="#12263f" font-size="16" font-family="Roboto-Black, Roboto" font-weight="800"><tspan x="0" y="0">Media móvil (mes 7)</tspan></text>
        <text id="Se_excluye_el_primer_dato_y_se_incluye_el_del_mes_7" data-name="Se excluye el primer dato y se incluye el 
del mes 7" transform="translate(526 17688.672)" fill="#12263f" font-size="16" font-family="Roboto-Regular, Roboto"><tspan x="0" y="0">Se excluye el primer dato y se incluye el </tspan><tspan x="0" y="20">del mes 7</tspan></text>
        <text id="_680_435_520_386_814_577" data-name="680 + 435 + 520 + 386 + 814 + 577" transform="translate(527 17557.5)" fill="#12263f" font-size="16" font-family="Roboto-Regular, Roboto"><tspan x="0" y="15">680 + 435 + 520 + 386 + 814 + 577</tspan></text>
        <text id="_435_520_386_814_577_438_" data-name="435 + 520 + 386 + 814 + 577 + 438
​
 " transform="translate(527 17727.965)" fill="#12263f" font-size="16" font-family="Roboto-Regular, Roboto"><tspan x="0" y="15">435 + 520 + 386 + 814 + 577 + 438</tspan></text>
        <text id="_568_66" data-name=" = 568,66" transform="translate(790 17575.293)" fill="#12263f" font-size="16" font-family="Roboto-Regular, Roboto"><tspan x="0" y="15" xml:space="preserve"> = 568,66</tspan></text>
        <text id="_528_33" data-name=" = 528,33" transform="translate(790 17745.758)" fill="#12263f" font-size="16" font-family="Roboto-Regular, Roboto"><tspan x="0" y="15" xml:space="preserve"> = 528,33</tspan></text>
        <text id="_6" data-name="6" transform="translate(610 17593.086)" fill="#12263f" font-size="16" font-family="Roboto-Regular, Roboto"><tspan x="33.008" y="15">6</tspan></text>
        <text id="_6-2" data-name="6" transform="translate(610 17763.551)" fill="#12263f" font-size="16" font-family="Roboto-Regular, Roboto"><tspan x="33.008" y="15">6</tspan></text>
        <path id="Trazado_913125" data-name="Trazado 913125" d="M-8386.718,6043.793h253" transform="translate(8913.718 11545)" fill="none" stroke="#12263f" stroke-width="1"/>
        <path id="Trazado_913126" data-name="Trazado 913126" d="M-8386.718,6043.793h253" transform="translate(8913.718 11715.465)" fill="none" stroke="#12263f" stroke-width="1"/>
      </g>
      <g id="Grupo_1102063" data-name="Grupo 1102063" transform="translate(828.109 17519.658)">
        <g id="Grupo_1102062" data-name="Grupo 1102062" transform="translate(0 -0.001)" clip-path="url(#clip-path)">
          <path id="Trazado_913634" data-name="Trazado 913634" d="M1793.31,1394.327l76.362,17.558a3.359,3.359,0,0,0,4.026-2.524l14.18-61.74-.97-26.2a4.147,4.147,0,0,0-3.213-3.889l-76.3-17.543a2.767,2.767,0,0,0-3.383,2.8l.954,25.767-14.18,61.74a3.362,3.362,0,0,0,2.521,4.03" transform="translate(-1547.568 -1123.421)" fill="#fff"/>
          <path id="Trazado_913635" data-name="Trazado 913635" d="M1868.531,1410.366a3.69,3.69,0,0,1-.826-.094l-76.362-17.558a3.665,3.665,0,0,1-2.746-4.388l14.171-61.7-.953-25.728a3.065,3.065,0,0,1,3.748-3.1l76.3,17.543a4.453,4.453,0,0,1,3.445,4.17l.97,26.2a.292.292,0,0,1-.007.078l-14.179,61.74a3.663,3.663,0,0,1-3.558,2.843m-63.659-112.052a2.47,2.47,0,0,0-2.458,2.562l.954,25.767a.3.3,0,0,1-.007.078l-14.18,61.74a3.065,3.065,0,0,0,2.3,3.671l76.362,17.558a3.061,3.061,0,0,0,3.667-2.3l14.171-61.7-.968-26.159a3.854,3.854,0,0,0-2.981-3.609l-76.3-17.543a2.5,2.5,0,0,0-.559-.064" transform="translate(-1545.668 -1121.516)"/>
          <path id="Trazado_913636" data-name="Trazado 913636" d="M1765.909,1388.026l76.362,17.558a3.36,3.36,0,0,0,4.026-2.524l14.179-61.74-.97-26.2a4.147,4.147,0,0,0-3.213-3.889L1780,1293.69a2.767,2.767,0,0,0-3.382,2.8l.954,25.767-14.18,61.74a3.362,3.362,0,0,0,2.521,4.029" transform="translate(-1523.887 -1117.975)" fill="#fff"/>
          <path id="Trazado_913637" data-name="Trazado 913637" d="M1841.129,1404.065a3.688,3.688,0,0,1-.826-.094l-76.362-17.558a3.665,3.665,0,0,1-2.746-4.388l14.171-61.7-.952-25.727a3.065,3.065,0,0,1,3.748-3.1l76.3,17.543a4.453,4.453,0,0,1,3.445,4.17l.97,26.2a.3.3,0,0,1-.007.078l-14.18,61.739a3.663,3.663,0,0,1-3.558,2.844m-63.659-112.052a2.47,2.47,0,0,0-2.458,2.561l.954,25.767a.31.31,0,0,1-.007.078l-14.179,61.74a3.066,3.066,0,0,0,2.3,3.671l76.362,17.558a3.06,3.06,0,0,0,3.667-2.3l14.171-61.7-.968-26.159a3.855,3.855,0,0,0-2.981-3.609l-76.3-17.543a2.49,2.49,0,0,0-.558-.064" transform="translate(-1521.986 -1116.07)"/>
          <path id="Trazado_913638" data-name="Trazado 913638" d="M1970.881,1357.353l.615,16.62-73.034-16.793-.615-16.62Z" transform="translate(-1640.165 -1158.544)" fill="#7ad8ec"/>
          <path id="Trazado_913639" data-name="Trazado 913639" d="M1980.989,1526.448a.286.286,0,0,1-.067-.008l-74.182-17.056a.3.3,0,0,1,.134-.583l74.181,17.057a.3.3,0,0,1-.067.591" transform="translate(-1647.649 -1303.935)"/>
          <path id="Trazado_913640" data-name="Trazado 913640" d="M2320.542,1669.2a3.343,3.343,0,0,1-.748-.085l-8.155-1.875a3.314,3.314,0,0,1-2.485-3.968l.708-3.083a3.312,3.312,0,0,1,3.969-2.486l8.156,1.875a3.315,3.315,0,0,1,2.485,3.968l-.708,3.082a3.315,3.315,0,0,1-3.221,2.571m-7.459-10.984a2.715,2.715,0,0,0-2.639,2.107l-.708,3.083a2.713,2.713,0,0,0,2.036,3.251l8.155,1.875a2.713,2.713,0,0,0,3.252-2.037l.708-3.082a2.717,2.717,0,0,0-2.036-3.251l-8.156-1.875a2.754,2.754,0,0,0-.613-.07" transform="translate(-1995.552 -1432.553)"/>
          <path id="Trazado_913641" data-name="Trazado 913641" d="M2182.682,1637.5a3.316,3.316,0,0,1-.748-.085l-8.155-1.875a3.314,3.314,0,0,1-2.485-3.968l.708-3.083a3.311,3.311,0,0,1,3.969-2.486l8.156,1.875a3.316,3.316,0,0,1,2.485,3.968l-.708,3.082a3.315,3.315,0,0,1-3.22,2.571m-7.459-10.984a2.716,2.716,0,0,0-2.639,2.107l-.708,3.083a2.716,2.716,0,0,0,2.036,3.251l8.156,1.875a2.713,2.713,0,0,0,3.252-2.037l.708-3.082a2.716,2.716,0,0,0-2.036-3.251l-8.156-1.875a2.741,2.741,0,0,0-.613-.07" transform="translate(-1876.41 -1405.158)"/>
          <path id="Trazado_913642" data-name="Trazado 913642" d="M2044.818,1605.8a3.32,3.32,0,0,1-.748-.085l-8.156-1.875a3.315,3.315,0,0,1-2.485-3.968l.708-3.083a3.311,3.311,0,0,1,3.969-2.486l8.156,1.875a3.315,3.315,0,0,1,2.485,3.968l-.708,3.082a3.315,3.315,0,0,1-3.221,2.571m-7.459-10.984a2.716,2.716,0,0,0-2.639,2.107l-.708,3.083a2.716,2.716,0,0,0,2.036,3.251l8.156,1.875a2.713,2.713,0,0,0,3.251-2.037l.708-3.082a2.716,2.716,0,0,0-2.036-3.251l-8.155-1.875a2.748,2.748,0,0,0-.613-.07" transform="translate(-1757.265 -1377.763)"/>
          <path id="Trazado_913643" data-name="Trazado 913643" d="M1906.956,1574.1a3.325,3.325,0,0,1-.748-.085l-8.156-1.875h0a3.315,3.315,0,0,1-2.484-3.968l.708-3.083a3.311,3.311,0,0,1,3.969-2.486l8.156,1.875a3.315,3.315,0,0,1,2.485,3.968l-.708,3.083a3.314,3.314,0,0,1-3.221,2.571m-8.77-2.543,8.155,1.875a2.713,2.713,0,0,0,3.252-2.037l.708-3.082a2.716,2.716,0,0,0-2.036-3.251l-8.155-1.875a2.713,2.713,0,0,0-3.252,2.037l-.708,3.083a2.716,2.716,0,0,0,2.036,3.251" transform="translate(-1638.121 -1350.368)"/>
          <path id="Trazado_913644" data-name="Trazado 913644" d="M2295.892,1776.537a3.324,3.324,0,0,1-.748-.085l-8.155-1.875a3.315,3.315,0,0,1-2.485-3.968l.708-3.083a3.311,3.311,0,0,1,3.969-2.486l8.156,1.875a3.315,3.315,0,0,1,2.485,3.968l-.708,3.083a3.313,3.313,0,0,1-3.22,2.571m-8.77-2.543,8.156,1.875a2.712,2.712,0,0,0,3.251-2.037l.709-3.082a2.717,2.717,0,0,0-2.036-3.251l-8.155-1.875a2.713,2.713,0,0,0-3.252,2.037l-.708,3.083a2.716,2.716,0,0,0,2.036,3.251" transform="translate(-1974.249 -1525.316)"/>
          <path id="Trazado_913645" data-name="Trazado 913645" d="M2158.029,1744.839a3.336,3.336,0,0,1-.748-.085l-8.156-1.875h0a3.315,3.315,0,0,1-2.485-3.968l.708-3.083a3.311,3.311,0,0,1,3.969-2.486l8.155,1.875a3.314,3.314,0,0,1,2.485,3.968l-.707,3.083a3.315,3.315,0,0,1-3.221,2.571m-8.77-2.544,8.155,1.875a2.713,2.713,0,0,0,3.252-2.036l.708-3.083a2.716,2.716,0,0,0-2.036-3.251l-8.156-1.875a2.713,2.713,0,0,0-3.252,2.036l-.708,3.083a2.715,2.715,0,0,0,2.036,3.251" transform="translate(-1855.105 -1497.921)"/>
          <path id="Trazado_913646" data-name="Trazado 913646" d="M2020.167,1713.141a3.315,3.315,0,0,1-.748-.085l-8.156-1.875a3.315,3.315,0,0,1-2.485-3.968l.708-3.083a3.31,3.31,0,0,1,3.969-2.485l8.155,1.875a3.315,3.315,0,0,1,2.485,3.968l-.708,3.083a3.314,3.314,0,0,1-3.221,2.571m-8.77-2.543,8.155,1.875a2.713,2.713,0,0,0,3.252-2.037l.708-3.082a2.716,2.716,0,0,0-2.036-3.251l-8.155-1.875a2.713,2.713,0,0,0-3.252,2.037l-.708,3.083a2.716,2.716,0,0,0,2.036,3.251" transform="translate(-1735.961 -1470.528)"/>
          <path id="Trazado_913647" data-name="Trazado 913647" d="M1882.3,1681.442a3.312,3.312,0,0,1-.748-.085l-8.156-1.875a3.315,3.315,0,0,1-2.485-3.968l.708-3.083a3.311,3.311,0,0,1,3.969-2.486l8.156,1.875a3.315,3.315,0,0,1,2.485,3.968l-.708,3.082a3.315,3.315,0,0,1-3.221,2.571m-8.77-2.543,8.155,1.875a2.713,2.713,0,0,0,3.252-2.037l.708-3.082a2.716,2.716,0,0,0-2.036-3.251l-8.156-1.875a2.712,2.712,0,0,0-3.252,2.036l-.708,3.083a2.716,2.716,0,0,0,2.036,3.251" transform="translate(-1616.817 -1443.132)"/>
          <path id="Trazado_913648" data-name="Trazado 913648" d="M2271.24,1883.875a3.327,3.327,0,0,1-.748-.085l-8.156-1.875a3.315,3.315,0,0,1-2.485-3.968l.708-3.083a3.311,3.311,0,0,1,3.969-2.486l8.156,1.875a3.315,3.315,0,0,1,2.485,3.968l-.708,3.082a3.314,3.314,0,0,1-3.221,2.571m-8.77-2.543,8.156,1.875a2.713,2.713,0,0,0,3.252-2.037l.708-3.082a2.716,2.716,0,0,0-2.036-3.251l-8.155-1.875a2.713,2.713,0,0,0-3.252,2.036l-.708,3.083a2.716,2.716,0,0,0,2.036,3.251" transform="translate(-1952.944 -1618.08)"/>
          <path id="Trazado_913649" data-name="Trazado 913649" d="M2133.377,1852.177a3.339,3.339,0,0,1-.748-.085l-8.156-1.875a3.315,3.315,0,0,1-2.485-3.968l.708-3.083a3.31,3.31,0,0,1,3.969-2.486l8.155,1.875a3.315,3.315,0,0,1,2.485,3.968l-.708,3.083a3.314,3.314,0,0,1-3.221,2.571m-8.77-2.543,8.156,1.875a2.712,2.712,0,0,0,3.251-2.036l.708-3.082a2.717,2.717,0,0,0-2.036-3.251l-8.156-1.875a2.712,2.712,0,0,0-3.252,2.036l-.708,3.083a2.716,2.716,0,0,0,2.036,3.251" transform="translate(-1833.8 -1590.685)"/>
          <path id="Trazado_913650" data-name="Trazado 913650" d="M1995.515,1820.479a3.325,3.325,0,0,1-.748-.085l-8.155-1.875a3.315,3.315,0,0,1-2.485-3.968l.708-3.083a3.311,3.311,0,0,1,3.969-2.486l8.155,1.875a3.315,3.315,0,0,1,2.485,3.968l-.708,3.083a3.315,3.315,0,0,1-3.221,2.571m-8.77-2.543,8.156,1.875a2.712,2.712,0,0,0,3.252-2.037l.708-3.082a2.716,2.716,0,0,0-2.036-3.251l-8.155-1.875a2.712,2.712,0,0,0-3.252,2.036l-.708,3.083a2.716,2.716,0,0,0,2.036,3.251" transform="translate(-1714.656 -1563.291)"/>
          <path id="Trazado_913651" data-name="Trazado 913651" d="M1857.652,1788.78a3.316,3.316,0,0,1-.748-.085l-8.156-1.875a3.315,3.315,0,0,1-2.485-3.968l.708-3.083a3.311,3.311,0,0,1,3.969-2.486l8.155,1.875a3.315,3.315,0,0,1,2.485,3.968l-.708,3.082a3.315,3.315,0,0,1-3.221,2.571m-8.77-2.543,8.156,1.875a2.713,2.713,0,0,0,3.252-2.036l.708-3.082a2.716,2.716,0,0,0-2.036-3.251l-8.156-1.875a2.712,2.712,0,0,0-3.252,2.036l-.708,3.082a2.716,2.716,0,0,0,2.036,3.251" transform="translate(-1595.511 -1535.896)"/>
          <path id="Trazado_913652" data-name="Trazado 913652" d="M2246.588,1991.212a3.313,3.313,0,0,1-.748-.085l-8.156-1.875a3.315,3.315,0,0,1-2.485-3.968l.708-3.083a3.311,3.311,0,0,1,3.969-2.486l8.155,1.875a3.315,3.315,0,0,1,2.485,3.968l-.708,3.083a3.314,3.314,0,0,1-3.221,2.571m-8.77-2.543,8.155,1.875a2.713,2.713,0,0,0,3.252-2.036l.708-3.082a2.715,2.715,0,0,0-2.036-3.251l-8.155-1.875a2.712,2.712,0,0,0-3.252,2.036l-.708,3.083a2.715,2.715,0,0,0,2.036,3.251" transform="translate(-1931.64 -1710.843)"/>
          <path id="Trazado_913653" data-name="Trazado 913653" d="M2108.725,1959.515a3.332,3.332,0,0,1-.749-.085l-8.155-1.875a3.315,3.315,0,0,1-2.485-3.968l.708-3.083a3.31,3.31,0,0,1,3.969-2.486l8.155,1.875a3.315,3.315,0,0,1,2.485,3.968l-.708,3.082a3.314,3.314,0,0,1-3.22,2.571m-8.77-2.544,8.156,1.875a2.712,2.712,0,0,0,3.252-2.037l.708-3.082a2.716,2.716,0,0,0-2.036-3.251l-8.155-1.875a2.713,2.713,0,0,0-3.252,2.036l-.708,3.082a2.716,2.716,0,0,0,2.036,3.251" transform="translate(-1812.495 -1683.449)"/>
          <path id="Trazado_913654" data-name="Trazado 913654" d="M1970.864,1927.817a3.332,3.332,0,0,1-.749-.086l-8.155-1.875h0a3.315,3.315,0,0,1-2.485-3.968l.708-3.083a3.311,3.311,0,0,1,3.969-2.486l8.155,1.875a3.315,3.315,0,0,1,2.485,3.968l-.708,3.082a3.314,3.314,0,0,1-3.22,2.571m-8.77-2.544,8.156,1.875a2.712,2.712,0,0,0,3.252-2.037l.708-3.082a2.716,2.716,0,0,0-2.036-3.251l-8.156-1.875a2.713,2.713,0,0,0-3.252,2.036l-.708,3.082a2.716,2.716,0,0,0,2.036,3.251" transform="translate(-1693.352 -1656.055)"/>
          <path id="Trazado_913655" data-name="Trazado 913655" d="M1833,1896.117a3.332,3.332,0,0,1-.749-.085l-8.155-1.875a3.314,3.314,0,0,1-2.485-3.968l.708-3.083a3.312,3.312,0,0,1,3.969-2.486l8.156,1.875a3.315,3.315,0,0,1,2.485,3.968l-.708,3.083a3.314,3.314,0,0,1-3.221,2.571m-8.77-2.543,8.155,1.875a2.712,2.712,0,0,0,3.252-2.036l.708-3.082a2.716,2.716,0,0,0-2.036-3.251l-8.155-1.875a2.713,2.713,0,0,0-3.252,2.036l-.708,3.082a2.716,2.716,0,0,0,2.036,3.251" transform="translate(-1574.207 -1628.66)"/>
          <rect id="Rectángulo_403712" data-name="Rectángulo 403712" width="175.951" height="198.636" transform="translate(76.448 12.271)" fill="#fff"/>
          <path id="Trazado_913656" data-name="Trazado 913656" d="M737.089,287.405H561.138a.3.3,0,0,1-.3-.3V88.47a.3.3,0,0,1,.3-.3H737.089a.3.3,0,0,1,.3.3V287.106a.3.3,0,0,1-.3.3m-175.652-.6H736.79V88.769H561.437Z" transform="translate(-484.69 -76.199)"/>
          <rect id="Rectángulo_403713" data-name="Rectángulo 403713" width="175.951" height="198.636" transform="translate(67.469 6.285)" fill="#fff"/>
          <path id="Trazado_913657" data-name="Trazado 913657" d="M670.959,243.319H495.008a.3.3,0,0,1-.3-.3V44.384a.3.3,0,0,1,.3-.3H670.959a.3.3,0,0,1,.3.3V243.02a.3.3,0,0,1-.3.3m-175.651-.6H670.66V44.683H495.307Z" transform="translate(-427.539 -38.099)"/>
          <rect id="Rectángulo_403714" data-name="Rectángulo 403714" width="175.951" height="198.636" transform="translate(58.49 0.299)" fill="#fff"/>
          <path id="Trazado_913658" data-name="Trazado 913658" d="M604.83,199.232H428.879a.3.3,0,0,1-.3-.3V.3a.3.3,0,0,1,.3-.3H604.83a.3.3,0,0,1,.3.3V198.933a.3.3,0,0,1-.3.3m-175.651-.6H604.531V.6H429.178Z" transform="translate(-370.389 0.002)"/>
          <path id="Trazado_913659" data-name="Trazado 913659" d="M718.846,167.921H585.4a.3.3,0,0,1-.3-.3V140.555a.3.3,0,0,1,.3-.3H718.846a.3.3,0,0,1,.3.3v27.066a.3.3,0,0,1-.3.3m-133.148-.6H718.547V140.854H585.7Z" transform="translate(-505.657 -121.212)"/>
          <path id="Trazado_913660" data-name="Trazado 913660" d="M1045.436,192.1H974.092a.3.3,0,0,1,0-.6h71.344a.3.3,0,1,1,0,.6" transform="translate(-841.575 -165.5)"/>
          <path id="Trazado_913661" data-name="Trazado 913661" d="M1045.436,240.528H974.092a.3.3,0,0,1,0-.6h71.344a.3.3,0,1,1,0,.6" transform="translate(-841.575 -207.353)"/>
          <path id="Trazado_913662" data-name="Trazado 913662" d="M1045.436,288.956H974.092a.3.3,0,0,1,0-.6h71.344a.3.3,0,1,1,0,.6" transform="translate(-841.575 -249.206)"/>
          <rect id="Rectángulo_403715" data-name="Rectángulo 403715" width="81.08" height="40.297" transform="translate(79.742 57.359)" fill="#e2eaff"/>
          <rect id="Rectángulo_403716" data-name="Rectángulo 403716" width="43.147" height="40.297" transform="translate(170.042 57.359)" fill="#e2eaff"/>
          <path id="Trazado_913663" data-name="Trazado 913663" d="M718.846,812.708H585.4a.3.3,0,0,1-.3-.3V797.978a.3.3,0,0,1,.3-.3H718.846a.3.3,0,0,1,.3.3v14.431a.3.3,0,0,1-.3.3m-133.148-.6H718.547V798.277H585.7Z" transform="translate(-505.657 -689.373)"/>
          <path id="Trazado_913664" data-name="Trazado 913664" d="M872.559,812.708a.3.3,0,0,1-.3-.3V797.978a.3.3,0,1,1,.6,0v14.431a.3.3,0,0,1-.3.3" transform="translate(-753.828 -689.373)"/>
          <path id="Trazado_913665" data-name="Trazado 913665" d="M718.846,958.353H585.4a.3.3,0,0,1-.3-.3V943.623a.3.3,0,0,1,.3-.3H718.846a.3.3,0,0,1,.3.3v14.431a.3.3,0,0,1-.3.3m-133.148-.6H718.547V943.922H585.7Z" transform="translate(-505.657 -815.243)"/>
          <path id="Trazado_913666" data-name="Trazado 913666" d="M872.559,958.353a.3.3,0,0,1-.3-.3V943.623a.3.3,0,0,1,.6,0v14.431a.3.3,0,0,1-.3.3" transform="translate(-753.828 -815.243)"/>
          <path id="Trazado_913667" data-name="Trazado 913667" d="M718.846,1104H585.4a.3.3,0,0,1-.3-.3v-14.431a.3.3,0,0,1,.3-.3H718.846a.3.3,0,0,1,.3.3V1103.7a.3.3,0,0,1-.3.3m-133.148-.6H718.547v-13.833H585.7Z" transform="translate(-505.657 -941.11)"/>
          <path id="Trazado_913668" data-name="Trazado 913668" d="M872.559,1104a.3.3,0,0,1-.3-.3v-14.431a.3.3,0,1,1,.6,0V1103.7a.3.3,0,0,1-.3.3" transform="translate(-753.828 -941.11)"/>
          <path id="Trazado_913669" data-name="Trazado 913669" d="M718.846,1249.638H585.4a.3.3,0,0,1-.3-.3v-14.431a.3.3,0,0,1,.3-.3H718.846a.3.3,0,0,1,.3.3v14.431a.3.3,0,0,1-.3.3m-133.148-.6H718.547v-13.833H585.7Z" transform="translate(-505.657 -1066.978)"/>
          <path id="Trazado_913670" data-name="Trazado 913670" d="M872.559,1249.638a.3.3,0,0,1-.3-.3v-14.431a.3.3,0,0,1,.6,0v14.431a.3.3,0,0,1-.3.3" transform="translate(-753.828 -1066.978)"/>
          <path id="Trazado_913671" data-name="Trazado 913671" d="M1057.247,1188.781v-5.056a4.667,4.667,0,0,0-4.667-4.667H1024.93a4.666,4.666,0,0,0-4.666,4.666v5.057H945.136v78.66a8.77,8.77,0,0,0,8.77,8.77h116.36v-87.43Z" transform="translate(-816.809 -1018.97)" fill="#f56364"/>
          <path id="Trazado_913672" data-name="Trazado 913672" d="M1068.363,1274.605H952a9.08,9.08,0,0,1-9.069-9.069v-78.66a.3.3,0,0,1,.3-.3h74.829v-4.757a4.971,4.971,0,0,1,4.965-4.966h27.649a4.971,4.971,0,0,1,4.966,4.966v4.757h12.721a.3.3,0,0,1,.3.3v87.43a.3.3,0,0,1-.3.3m-124.831-87.43v78.361a8.48,8.48,0,0,0,8.471,8.471h116.061v-86.832h-12.721a.3.3,0,0,1-.3-.3v-5.056a4.372,4.372,0,0,0-4.368-4.368h-27.649a4.372,4.372,0,0,0-4.367,4.367v5.057a.3.3,0,0,1-.3.3Z" transform="translate(-814.905 -1017.065)"/>
          <path id="Trazado_913673" data-name="Trazado 913673" d="M1866.73,1329.528v76.722l11.729-76.722Z" transform="translate(-1613.272 -1149.01)" fill="#db3233"/>
          <path id="Trazado_913674" data-name="Trazado 913674" d="M1865.122,1404.393l-.595-.045v-77.022H1876.9l-.053.344Zm0-76.469v72.488l11.082-72.488Z" transform="translate(-1611.368 -1147.106)"/>
          <path id="Trazado_913675" data-name="Trazado 913675" d="M1804.275,1820.5a11.641,11.641,0,1,0-11.641,11.641,11.641,11.641,0,0,0,11.641-11.641" transform="translate(-1539.176 -1563.259)" fill="#fff"/>
          <path id="Trazado_913676" data-name="Trazado 913676" d="M1688.733,1684.59a6.327,6.327,0,0,0-.761.051,25.588,25.588,0,0,0-2.92-7.049,6.268,6.268,0,1,0-8.793-8.793,25.579,25.579,0,0,0-7.049-2.92,6.268,6.268,0,1,0-12.436,0,25.579,25.579,0,0,0-7.049,2.92,6.269,6.269,0,1,0-8.793,8.793,25.588,25.588,0,0,0-2.92,7.049,6.268,6.268,0,1,0,0,12.435,25.583,25.583,0,0,0,2.92,7.049,6.268,6.268,0,1,0,8.793,8.793,25.58,25.58,0,0,0,7.049,2.92,6.332,6.332,0,0,0-.051.761,6.269,6.269,0,1,0,12.486-.761,25.579,25.579,0,0,0,7.049-2.92,6.337,6.337,0,0,0,.5.574,6.268,6.268,0,1,0,8.291-9.367,25.583,25.583,0,0,0,2.92-7.049,6.266,6.266,0,1,0,.761-12.486m-25.74,17.909a11.641,11.641,0,1,1,11.641-11.641,11.641,11.641,0,0,1-11.641,11.641" transform="translate(-1409.535 -1433.617)" fill="#d2e1f1"/>
          <path id="Trazado_913677" data-name="Trazado 913677" d="M1639.045,1721.262a6.575,6.575,0,0,1-6.568-6.568c0-.169.008-.345.025-.535a25.873,25.873,0,0,1-6.655-2.756c-.122.146-.241.276-.36.4a6.567,6.567,0,0,1-9.288-9.288c.12-.12.249-.238.4-.36a25.87,25.87,0,0,1-2.756-6.655c-.19.017-.366.025-.534.025a6.567,6.567,0,1,1,0-13.135c.169,0,.345.008.534.025a25.869,25.869,0,0,1,2.756-6.655c-.145-.122-.276-.24-.4-.36a6.567,6.567,0,1,1,9.288-9.288c.119.119.238.25.36.4a25.869,25.869,0,0,1,6.655-2.756c-.017-.189-.025-.365-.025-.534a6.568,6.568,0,0,1,13.135,0c0,.168-.009.344-.025.534a25.87,25.87,0,0,1,6.655,2.756c.122-.146.241-.276.36-.4a6.567,6.567,0,1,1,9.287,9.288c-.119.119-.249.238-.4.36a25.891,25.891,0,0,1,2.756,6.655c.189-.017.365-.025.534-.025a6.567,6.567,0,1,1,0,13.135c-.168,0-.344-.008-.534-.025a25.857,25.857,0,0,1-2.756,6.655c.147.123.276.24.4.36a6.567,6.567,0,0,1-9.288,9.288c-.119-.119-.238-.25-.36-.4a25.873,25.873,0,0,1-6.655,2.756c.017.19.025.364.025.535a6.575,6.575,0,0,1-6.568,6.568m-13.267-10.547a.3.3,0,0,1,.154.043,25.267,25.267,0,0,0,6.967,2.885.3.3,0,0,1,.225.327,5.97,5.97,0,1,0,11.841,0,.3.3,0,0,1,.225-.327,25.27,25.27,0,0,0,6.967-2.885.3.3,0,0,1,.39.072,5.939,5.939,0,0,0,8.92.546,5.936,5.936,0,0,0-.546-8.92.3.3,0,0,1-.072-.39,25.26,25.26,0,0,0,2.885-6.967.3.3,0,0,1,.327-.225,5.885,5.885,0,0,0,.724.049,5.969,5.969,0,1,0-.724-11.89.3.3,0,0,1-.327-.225,25.287,25.287,0,0,0-2.885-6.967.3.3,0,0,1,.072-.39,5.967,5.967,0,1,0-7.9-8.92,6.038,6.038,0,0,0-.478.547.3.3,0,0,1-.39.072,25.262,25.262,0,0,0-6.967-2.885.3.3,0,0,1-.225-.327,5.969,5.969,0,1,0-11.841,0,.3.3,0,0,1-.225.327,25.264,25.264,0,0,0-6.967,2.885.3.3,0,0,1-.39-.072,6.055,6.055,0,0,0-.478-.547,5.969,5.969,0,1,0-7.9,8.92.3.3,0,0,1,.072.39,25.267,25.267,0,0,0-2.885,6.967.3.3,0,0,1-.327.225,5.967,5.967,0,1,0-.724,11.89,5.884,5.884,0,0,0,.724-.049.3.3,0,0,1,.327.225,25.255,25.255,0,0,0,2.885,6.967.3.3,0,0,1-.071.39,5.785,5.785,0,0,0-.546.478,5.969,5.969,0,1,0,8.919,7.9.3.3,0,0,1,.236-.115m13.267-9.821a11.94,11.94,0,1,1,11.94-11.94,11.954,11.954,0,0,1-11.94,11.94m0-23.281a11.342,11.342,0,1,0,11.342,11.342,11.354,11.354,0,0,0-11.342-11.342" transform="translate(-1388.58 -1431.713)" fill="#5479f7"/>
          <path id="Trazado_913678" data-name="Trazado 913678" d="M512.349,487.852l3.634-10.238s-1.638-4.669,1.229-6.962,7.535-.819,7.535-.819,3.727,5.938,4.587,9.992c.629,2.966-.737,4.9-6.716,5.153l-1.147,2.874Z" transform="translate(-442.784 -405.637)" fill="#fff"/>
          <path id="Trazado_913679" data-name="Trazado 913679" d="M519.567,486.208h-9.122a.3.3,0,0,1-.282-.4l3.6-10.141c-.234-.73-1.434-4.959,1.358-7.192,2.957-2.366,7.616-.933,7.812-.87a.3.3,0,0,1,.163.126c.153.244,3.765,6.03,4.626,10.089a3.96,3.96,0,0,1-.531,3.411c-.968,1.248-3.021,1.934-6.272,2.094l-1.075,2.695a.3.3,0,0,1-.278.188m-8.7-.6h8.5l1.072-2.686a.3.3,0,0,1,.265-.188c3.176-.134,5.145-.747,6.018-1.872a3.408,3.408,0,0,0,.418-2.92c-.78-3.678-4.008-9.019-4.488-9.8-.693-.193-4.678-1.184-7.154.8-2.666,2.132-1.149,6.585-1.133,6.63a.3.3,0,0,1,0,.2Z" transform="translate(-440.88 -403.694)"/>
          <path id="Trazado_913680" data-name="Trazado 913680" d="M587.991,547.4a.3.3,0,0,1-.285-.389l1.516-4.785a.3.3,0,1,1,.57.181l-1.516,4.785a.3.3,0,0,1-.285.209" transform="translate(-507.897 -468.423)"/>
          <path id="Trazado_913681" data-name="Trazado 913681" d="M489.809,416.326c-2.409-1.832-8.285-.463-11.269.316a10.865,10.865,0,0,0-6.634,5.7c-1.535,3.131-2.169,8.481,1.161,11.374,3.462,3.008,8.682,1.166,9.614.5.292-.21,1.2-.8.984-1.372-.03-.081-.052-.164-.079-.247a4.765,4.765,0,0,1-.908-1.047,6.07,6.07,0,0,1-.956-2.744,2.865,2.865,0,0,1,.724-2.372,2.151,2.151,0,0,1,2.1-.455,2.514,2.514,0,0,1,.66.317c.709,1.236,1.148,1.631,1.441,1.566.6-.134.15-1.892,1.3-3.161.928-1.027,1.788-.5,2.8-1.519a4.47,4.47,0,0,0,.979-4.02,5.039,5.039,0,0,0-1.913-2.836" transform="translate(-406.752 -359.011)"/>
          <path id="Trazado_913682" data-name="Trazado 913682" d="M567.8,537.071a1.891,1.891,0,0,1-.993-.278.3.3,0,0,1,.315-.508,1.278,1.278,0,0,0,1.922-.815.3.3,0,1,1,.585.127,1.905,1.905,0,0,1-1.1,1.329,1.871,1.871,0,0,1-.727.145" transform="translate(-489.729 -462.562)"/>
          <path id="Trazado_913683" data-name="Trazado 913683" d="M571.746,516.146a.3.3,0,0,1-.259-.148,3.193,3.193,0,0,0-1.347-1.246.3.3,0,1,1,.261-.538A3.8,3.8,0,0,1,572,515.7a.3.3,0,0,1-.258.45" transform="translate(-492.584 -444.37)"/>
          <path id="Trazado_913684" data-name="Trazado 913684" d="M873.141,603.3s11.216,2,17.456,1.142a33.964,33.964,0,0,0,5.841-10.283c1.885-5.728-2.973-6.018-2.973-6.018s-1.015-3.263-4.5-1.523c0,0-.544-1.668-3.045-1.015s-7.867,3.553-8.049,6.6a5.063,5.063,0,0,0-2.683,2.852c-.343,1.023-2.053,8.247-2.053,8.247" transform="translate(-754.589 -505.96)" fill="#fff"/>
          <path id="Trazado_913685" data-name="Trazado 913685" d="M885.044,603.054a95.294,95.294,0,0,1-13.86-1.357.3.3,0,0,1-.238-.363c.07-.3,1.717-7.249,2.06-8.273a5.294,5.294,0,0,1,2.684-2.958c.394-3.285,6.024-6.1,8.255-6.687,2.052-.535,2.937.4,3.254.911a3.516,3.516,0,0,1,2.868-.194,3.406,3.406,0,0,1,1.71,1.833,4.185,4.185,0,0,1,2.857,1.653c.779,1.147.841,2.741.184,4.736a34.577,34.577,0,0,1-5.9,10.386.3.3,0,0,1-.185.1,27.667,27.667,0,0,1-3.69.214M871.6,601.161c1.842.309,11.376,1.829,16.938,1.1a33.894,33.894,0,0,0,5.711-10.1c.6-1.81.559-3.228-.111-4.213a3.7,3.7,0,0,0-2.6-1.413.3.3,0,0,1-.268-.21,2.917,2.917,0,0,0-1.448-1.651,3.119,3.119,0,0,0-2.628.308.3.3,0,0,1-.418-.175c-.019-.055-.505-1.385-2.685-.818-2.568.67-7.658,3.51-7.826,6.327a.3.3,0,0,1-.187.26,4.8,4.8,0,0,0-2.511,2.67c-.294.878-1.641,6.518-1.972,7.911" transform="translate(-752.685 -504.063)"/>
          <path id="Trazado_913686" data-name="Trazado 913686" d="M979.416,597.689a.3.3,0,0,1-.271-.426,13.012,13.012,0,0,0,1.172-4.371.3.3,0,0,1,.6.052,13.618,13.618,0,0,1-1.226,4.572.3.3,0,0,1-.271.173" transform="translate(-846.176 -512.155)"/>
          <path id="Trazado_913687" data-name="Trazado 913687" d="M1012.1,608.687a.3.3,0,0,1-.273-.421l.033-.072a.252.252,0,0,1,.015-.029,13.009,13.009,0,0,0,1.173-4.572.3.3,0,1,1,.6.04,13.619,13.619,0,0,1-1.275,4.884.3.3,0,0,1-.271.171" transform="translate(-874.418 -521.398)"/>
          <path id="Trazado_913688" data-name="Trazado 913688" d="M905.4,636.73a.3.3,0,0,1-.1-.581,20.844,20.844,0,0,1,6.132-1.36.3.3,0,0,1,.037.6,20.287,20.287,0,0,0-5.968,1.326.3.3,0,0,1-.1.017" transform="translate(-782.207 -548.6)"/>
          <path id="Trazado_913689" data-name="Trazado 913689" d="M935.9,602.673a.3.3,0,0,1-.268-.431,40.986,40.986,0,0,1,2.419-4.251.3.3,0,1,1,.5.326,40.434,40.434,0,0,0-2.384,4.188.3.3,0,0,1-.269.167" transform="translate(-808.573 -516.681)"/>
          <path id="Trazado_913690" data-name="Trazado 913690" d="M848.4,634.532a1.12,1.12,0,0,1-.754-1.948l10.336-9.405a1.119,1.119,0,1,1,1.507,1.656l-10.336,9.405a1.115,1.115,0,0,1-.753.292" transform="translate(-732.238 -538.314)"/>
          <path id="Trazado_913691" data-name="Trazado 913691" d="M305.123,922.364l-11.13-3.155s3.374-11.864,6.036-12.767l9.605,1Z" transform="translate(-254.076 -783.369)" fill="#fff"/>
          <path id="Trazado_913692" data-name="Trazado 913692" d="M303.219,920.76a.292.292,0,0,1-.081-.011l-11.13-3.155a.3.3,0,0,1-.206-.37c.35-1.23,3.5-12.042,6.228-12.969a.306.306,0,0,1,.127-.014l9.605,1a.3.3,0,0,1,.255.384l-4.511,14.924a.3.3,0,0,1-.286.213M292.46,917.1l10.558,2.993,4.322-14.3-9.175-.953c-2,.814-4.71,8.841-5.7,12.257" transform="translate(-252.172 -781.465)"/>
          <path id="Trazado_913693" data-name="Trazado 913693" d="M119.64,648.214l6.9-14.593-6.036-6.483,11.257-10.931a39.787,39.787,0,0,1-1.795,13.051c-2.121,6.036-.082,11.257,6.526,12.725,5.255,1.168,28.672.478,38.038.147a4.033,4.033,0,0,0,3.89-4.032v-3.293s12.072,13.949,24.471,12.4,14.112-17.13,13.7-38.175c0,0-11.5-3.671-17.456-1.142l-1.631,2.937-10.265-12.781a19.487,19.487,0,0,0-16.589-7.234c-10.185.731-25.96,1.94-37.685,3.2a40.618,40.618,0,0,0-24.484,11.753c-6.558,6.6-15.233,15.8-15.237,21.575-.011,16.594,26.394,20.878,26.394,20.878" transform="translate(-80.585 -510.548)" fill="#a46ab9"/>
          <path id="Trazado_913694" data-name="Trazado 913694" d="M720,802.185a.3.3,0,0,1-.3-.29,40.134,40.134,0,0,1,2.9-16.235.3.3,0,1,1,.554.225,39.532,39.532,0,0,0-2.858,15.991.3.3,0,0,1-.289.308H720" transform="translate(-621.965 -678.825)"/>
          <path id="Trazado_913695" data-name="Trazado 913695" d="M359.7,743.623h0a.3.3,0,0,1-.3-.3,5.921,5.921,0,0,0-2.145-4.533.3.3,0,0,1,.377-.465,6.445,6.445,0,0,1,2.366,5,.3.3,0,0,1-.3.3" transform="translate(-308.657 -638.02)"/>
          <path id="Trazado_913696" data-name="Trazado 913696" d="M255.6,862.837a.3.3,0,0,1-.205-.517l4.551-4.291a.3.3,0,1,1,.41.435l-4.551,4.291a.3.3,0,0,1-.205.081" transform="translate(-220.64 -741.459)"/>
          <path id="Trazado_913697" data-name="Trazado 913697" d="M870.834,750.412a.3.3,0,0,1-.225-.1c-1.5-1.716-11.513-13.363-11.614-13.48a.3.3,0,1,1,.454-.39c.095.11,8.928,10.386,11.246,13.058l.558-2.016a.3.3,0,0,1,.577.159l-.707,2.552a.3.3,0,0,1-.222.212.288.288,0,0,1-.067.008" transform="translate(-742.301 -636.358)"/>
          <path id="Trazado_913698" data-name="Trazado 913698" d="M44.236,1091.351H20.972a28.211,28.211,0,0,1-15.349-4.541,7.448,7.448,0,0,1-3.129-8.231c6.607-23.948,34.419-122.6,51.815-150.8,0,0,22.679,1.266,38.026-1.653a4.545,4.545,0,0,1,5.383,4.463c.065,26.5.31,135.847-.015,149.808l7.725,7.005a2.27,2.27,0,0,1-1.525,3.951H65.835a8.078,8.078,0,0,1-8.054-8.69l6.826-93.738-21.587,90.128a9.793,9.793,0,0,0,2.529,9.173,1.839,1.839,0,0,1-1.312,3.128" transform="translate(-1.923 -800.308)" fill="#12263f"/>
          <path id="Trazado_913699" data-name="Trazado 913699" d="M101.98,1100.78H63.912a8.377,8.377,0,0,1-8.353-9.012l6.559-90.071L41.387,1088.25a9.435,9.435,0,0,0,2.452,8.893,2.139,2.139,0,0,1-1.526,3.637H19.05a28.447,28.447,0,0,1-15.512-4.589,7.718,7.718,0,0,1-3.255-8.561c7.825-28.363,34.689-123.064,51.848-150.881a.3.3,0,1,1,.509.314C35.082,965.527,6.426,1067.614.86,1087.789a7.123,7.123,0,0,0,3,7.9,27.853,27.853,0,0,0,15.186,4.492H42.314a1.54,1.54,0,0,0,1.1-2.619,10.031,10.031,0,0,1-2.606-9.453l21.587-90.127a.3.3,0,0,1,.589.091l-6.826,93.738a7.779,7.779,0,0,0,7.756,8.37H101.98a1.97,1.97,0,0,0,1.324-3.43l-7.725-7.005a.3.3,0,0,1-.1-.229c.319-13.7.092-118.122.015-149.8a.3.3,0,0,1,.3-.3h0a.3.3,0,0,1,.3.3c.077,31.577.3,135.434-.012,149.679l7.624,6.913a2.569,2.569,0,0,1-1.725,4.472" transform="translate(0 -809.438)"/>
          <path id="Trazado_913700" data-name="Trazado 913700" d="M438.763,1156.042h-.023a.3.3,0,0,1-.276-.321l2.03-26.733a11.45,11.45,0,0,0-.461-5.433c-.679-1.549-2.456-2.889-4.141-2.35a.3.3,0,1,1-.182-.57c2-.639,4.088.894,4.871,2.68a11.9,11.9,0,0,1,.51,5.719l-2.03,26.733a.3.3,0,0,1-.3.276" transform="translate(-376.371 -968.351)"/>
          <path id="Trazado_913701" data-name="Trazado 913701" d="M438.216,2062.994a143.409,143.409,0,0,1-18.765-1.233.3.3,0,1,1,.078-.593,142.821,142.821,0,0,0,37.332.005.3.3,0,0,1,.078.593,143.42,143.42,0,0,1-18.724,1.227" transform="translate(-362.275 -1781.308)"/>
          <path id="Trazado_913702" data-name="Trazado 913702" d="M53.311,2029.256h-.017a130.434,130.434,0,0,1-36.993-7.569.3.3,0,0,1,.2-.563,129.844,129.844,0,0,0,36.824,7.535.3.3,0,0,1-.016.6" transform="translate(-13.916 -1746.687)"/>
        </g>
      </g>
    </g>
  </g>
</svg>
