<svg xmlns="http://www.w3.org/2000/svg" xmlns:xlink="http://www.w3.org/1999/xlink" width="1329.356" height="672.355" viewBox="0 0 1329.356 672.355">
  <defs>
    <clipPath id="clip-path">
      <rect id="Rectángulo_403137" data-name="Rectángulo 403137" width="672.355" height="1329.356" transform="translate(0 672.355) rotate(-90)" fill="#6fec86"/>
    </clipPath>
    <clipPath id="clip-path-2">
      <rect id="Rectángulo_403136" data-name="Rectángulo 403136" width="1342" height="1519.13" fill="#6fec86"/>
    </clipPath>
    <clipPath id="clip-path-3">
      <circle id="Elipse_11516" data-name="Elipse 11516" cx="70.566" cy="70.566" r="70.566" transform="translate(0 99.795) rotate(-45)" fill="#f56364"/>
    </clipPath>
    <clipPath id="clip-path-4">
      <rect id="Rectángulo_403016" data-name="Rectángulo 403016" width="141.132" height="141.131" fill="none"/>
    </clipPath>
    <clipPath id="clip-path-9">
      <circle id="Elipse_11516-4" data-name="Elipse 11516" cx="108.722" cy="108.722" r="108.722" transform="translate(0 153.756) rotate(-45)" fill="#d2e1f1"/>
    </clipPath>
    <clipPath id="clip-path-10">
      <rect id="Rectángulo_403016-4" data-name="Rectángulo 403016" width="217.444" height="217.444" fill="none"/>
    </clipPath>
    <clipPath id="clip-path-13">
      <ellipse id="Elipse_11517" data-name="Elipse 11517" cx="69.209" cy="69.209" rx="69.209" ry="69.209" fill="#f56364"/>
    </clipPath>
    <clipPath id="clip-path-14">
      <rect id="Rectángulo_403018" data-name="Rectángulo 403018" width="138.418" height="138.418" fill="none"/>
    </clipPath>
    <clipPath id="clip-path-15">
      <ellipse id="Elipse_11518" data-name="Elipse 11518" cx="69.471" cy="69.471" rx="69.471" ry="69.471" fill="#f56364"/>
    </clipPath>
    <clipPath id="clip-path-16">
      <rect id="Rectángulo_403020" data-name="Rectángulo 403020" width="138.942" height="138.942" fill="none"/>
    </clipPath>
    <clipPath id="clip-path-19">
      <rect id="Rectángulo_403013" data-name="Rectángulo 403013" width="58.313" height="84.074" transform="translate(0 0)" fill="none"/>
    </clipPath>
    <clipPath id="clip-path-20">
      <rect id="Rectángulo_403021" data-name="Rectángulo 403021" width="115.189" height="141.496" fill="none"/>
    </clipPath>
  </defs>
  <g id="Grupo_1102679" data-name="Grupo 1102679" transform="translate(-135.321 -673.645)">
    <rect id="Rectángulo_403135" data-name="Rectángulo 403135" width="672.355" height="1329.356" transform="translate(135.321 1346) rotate(-90)" fill="#6fec86" opacity="0.1"/>
    <g id="Enmascarar_grupo_1098710" data-name="Enmascarar grupo 1098710" transform="translate(135.321 673.645)" clip-path="url(#clip-path)">
      <g id="Grupo_1101310" data-name="Grupo 1101310" transform="translate(-5.59 -501.261)" opacity="0.05">
        <g id="Grupo_1101309" data-name="Grupo 1101309" clip-path="url(#clip-path-2)">
          <path id="Trazado_912125" data-name="Trazado 912125" d="M474.945,1519.124c-11.152-4.694-23.27-5.514-34.845-7.064-46.8-6.267-92.954-20.691-140.575-16.8-28.055,2.294-55.935,7.368-83.976,9.973-12.447,1.155-19.325-8.538-23.961-20.995-4.764-12.776-8.461-30.056-24.532-26.987-20.3,3.859-26.021,23.053-28.081,43.736-.3,3-.792,5.955-1.194,8.932-2.275-1.755-4.845-3.167-6.77-5.317-30.168-33.6-27.524-80.05,13.984-100.019,62.873-30.238,97.6-87.046,132.207-147.166,13.984-24.291,33.329-44.677,61.256-29.577,28.84,15.594,23.451,47.868,18.137,74.354-14.232,70.89,3.409,141.347,43.521,160.648,36.18,17.409,75.548,19.9,113.124,30.785,17.943,5.2,35.006,12.632,49.607,25.5H633.5c-20.694-12.715-41.26-25.726-62.43-37.3-34.375-18.807-72.132-24.177-108.97-33.565-55.961-14.257-81.439-78.448-70.274-149.1,14.661-92.773,73.011-142.9,132.355-194.4,51.989-45.111,98.335-94.915,97.409-177.146C621,875.78,601,832.781,569.361,796.739c-47.648-54.3-41.575-114-17.318-177.571,24.143-63.264,41.984-127.8,19.915-197.791-8.777-27.808-28.705-41.51-47.735-57.355-33.154-27.6-34.073-54.165,2.214-75.957,44.507-26.714,64.845-66.561,73.87-121.021,11.259-67.958,61.524-89.53,120.2-57.575,41.253,22.46,74.649,59.8,117.807,78.364,26.565,11.439,52.875,11.295,78.937,0V143.521c-77.6,42-131.831-12.328-186.8-63.014-33.369-30.755-69.63-44.457-113.318-33.573-14.728,3.669-41.26,8.955-41.407-18.45C575.575,1.262,598.456,3.191,616.345,0H521.7c2.483,46.394,20.962,88.664,27.592,134.025,9.193,62.968-19.264,105.283-59.638,140.99-13.749,12.168-27.766,24.215-42.743,34.249-15.95,10.672-36.851,22.658-48-2.112-11.488-25.537,11.313-36.771,27.108-46.425,30.49-18.647,68.569-25.248,78.561-73.017,10.065-48.111-5.5-92.287-13.6-137.747C488.036,33.429,486.124,16.681,483.869,0H447.622c5.053,17.371,10.213,34.72,15.051,52.175,12.816,46.212,30.054,93.518-3.858,137.026-22.7,29.129-55.995,46.007-76.125,78.387-27.578,44.343-56.27,86.56-102.884,107.615-10.8,4.876-26.176,9.806-25.31,25.947.939,17.5,16.372,24.754,28.665,32.38,37.8,23.455,80.741,16.331,120.934,25.62,20.58,4.755,41.971,10.877,49.5,36.679,5.75,19.665-5.187,35.8-18.258,45.832a837.414,837.414,0,0,1-80.1,54.59c-66.57,39.786-125.611,88.368-158.765,168.084-8.877,21.344-15.99,44.867-4.053,67.829,6.542,12.578,18.687,17.333,31.557,15.4,23.666-3.57,42.743-18.852,62.222-32.912,40.428-29.182,79.822-64.214,129.154-67.556,52.687-3.555,91.793,38.047,133.824,66.386,35.61,24,57.25,61.3,50.506,110.319-12.434,90.358-62.108,152.331-126.886,200.563-20.492,15.26-44.165,29.319-68.865,14.508-22.78-13.649-19.573-40.9-15.158-63.735,9.441-48.832-6.482-77.87-43.736-104.493-47.829-34.165-48.755-62.869-9.823-101.47,28.229-27.99,61.054-57.172,100.08-49.41,59.84,11.91,90.961,64.7,91.753,138.043.107,9.426-1.738,22.058,9.173,26.235,3.449,1.329,10.179-2.362,13.044-6.084,11.414-14.865,15.916-33.155,17.07-52.509,3.221-54.005-30.081-78.273-65.134-99.336-27.457-16.483-52.351-44.746-86.606-38.335-45.272,8.454-76.239,49.7-116.5,70.5-35.08,18.123-40.112,43.159-15.721,77.225a204.274,204.274,0,0,0,38.945,40.477c55.693,44.153,62.229,75.045,25.592,131.541-18.976,29.266-43.595,55.5-56.512,87.813-29.618,74.065-70.583,128.632-140.9,157.481-75.071,30.778-96.557,108.967-52.224,166.314ZM257.239,797.514c-9.83,10.976-26.5,26.509-37.334,10.49-15.554-23.015,5.079-41.746,17.654-57.081,53.506-65.285,121.5-109.522,184.78-160.694C447.347,570,470.6,545.627,477.991,510c6.77-32.692-16.929-43.265-36.744-55.547-5.9-3.646-15.95-4.763-14.9-13.786.376-3.274,12.8-6.646,19.768-6.76,37.938-.668,62.215,25.256,62.215,77.369-3.369,50.162-38.334,90.54-79.393,122.4-62.249,48.3-118.2,104.121-171.7,163.838m105.649-60.963a41.231,41.231,0,0,1-5.938,1.223c.7-2.393.986-5.089,2.181-7.117,25.37-43.212,67.221-63.69,102.281-93.161,52.405-44.039,83.694-128.435,61.356-178.285-16.728-37.325-44.977-52.8-86.23-52.714-20.8-.289-45.031,9.479-69.63,17.417-10.447,3.372-24.445,10.459-30.3-3.334-5.7-13.437,7.455-21.473,16.755-27.079,72.589-43.774,183.794-32.16,206.655,74.635,13.581,63.5-11.836,116.631-45.883,163.815-39.3,54.461-93.115,84.053-151.243,104.6" transform="translate(424.745 0.007)" fill="#6fec86"/>
          <path id="Trazado_912126" data-name="Trazado 912126" d="M828,0H800.734c17.064,23.425,30.323,48.825,33.771,80.172,4.294,39.026-3.174,75.037-28.229,101.615-44.487,47.177-72.616,111.056-122.41,152.247-37.267,30.831-77.38,22.825-115.11,3-44.843-23.562-87.337-19.225-130.4,3.259-2.684,1.405-5.8,1.739-8.723,2.567.785-3.418,1.154-7.041,2.409-10.216,14.99-37.743,73.8-52.539,118.734-30.717,45.011,21.86,90.062,50.352,137.481,6.061,32.349-30.216,51.217-72.47,76.34-109.15,19.1-27.876,45.615-51.377,47.017-90.039C813.47,57.416,789.126,24.017,752.986,0H571.528c17.144,6.707,34.221,13.649,51.633,19.263,32.986,10.634,65.771-5.947,98.718-2.6,32.188,3.274,55.988,22.673,71.448,54.21,9.495,19.369,9.193,39.467-2.328,58.6-4.523,7.5-10.421,12.13-18.1,10.831-9.193-1.565-12.95-10.254-14.963-19.5C744.31,58.152,728.414,44.951,673.5,62.186c-35.865,11.249-62.443-9.935-91.343-23.258C519.344,9.973,457.29,55.319,457,131.671c-.067,18.419-1.121,36.884-2.644,55.228-1.067,12.783-3.268,27.466-18.761,25-14.165-2.263-19.392-17.09-18.956-30.474,2.4-74.027,14.95-160.048,91.7-181.422H451.325c-39.616,56.732-56.572,121.834-50.359,193.849,2.328,26.927,15.42,52.114,43.5,47.442,30.4-5.059,26.39-37.94,29.6-62.657,5.831-44.761.195-95.348,44.917-120.437,29.531-16.574,57.726-5.188,81.7,15.609,20.68,17.941,40.569,24.618,67.355,21.435,59.216-7.041,80.44,26.266,66.087,96.8-13.111,64.4-59.29,119.791-100.033,118.8-30.416-.737-52.741-24.959-79.285-36.983-51.761-23.433-93.457,1.937-132.71,37.226-59.618,53.6-123.477,96.769-201.582,104.478-7.247.714-15.869-.509-17.52-9.593-1.852-10.163,7.119-12.989,13.735-15.639,36.422-14.576,74.582-23.7,108.608-45.733,50.949-33,56.639-83.309,48.05-143.5C363.263,130.106,377.474,62.588,408.978,0H379c-24.143,68.224-20.58,140.535-23.592,211.949-1.751,41.579-9.689,81.509-36.382,112.53-55.217,64.153-138.213,61.456-199.542-4.535-8.341-8.978-19.311-27.1-31.55-15.5-12.38,11.728-.02,26.661,7.508,38.442,5.147,8.051,10.233,16.262,16.178,23.516,31.591,38.518,59.873,83.651,114.882,77.62,33.382-3.654,59.451-27.056,88.243-42.885,62.336-34.256,125.222,9.935,125.222,88.588,0,97.27-88.022,165.859-176.755,144.849-61.4-14.538-115.781-50.2-176.728-64.647-34.308-8.135-75.615,18.4-84.164,57.226-7.16,32.517,12.83,60.044,49.6,71.278,52.157,15.936,100.777,38.328,135.126,90.092,36.113,54.415,49.017,56.284,100.06,16.057,42.4-33.413,85.989-48.612,137.119-27.5,46.755,19.316,66.174,5.127,66.624-51.119.57-72.2,29.96-118.561,88.176-144.135,50.07-22,76.286-75.5,63.718-133.41-6.7-30.891-28.585-42.984-54.13-36.391-22.787,5.879-14.433,28.97-11.232,45.885,8.676,45.908,5.643,86.932-31.6,116.722-23.559,18.852-45.843,39.186-57.022,70.989-8.515,24.23-17.587,48.346-33.745,67.48-35.657,42.224-83.841,35.13-128.59,40.227C231.049,764.214,152.213,713.1,73.142,664.08c-15.4-9.548-33.8-23.22-21.472-46.25,11.689-21.838,32.074-14.515,48.1-3.631,53.4,36.292,105.273,74.506,168.468,88.482,53.982,11.933,108.648-3.145,133.71-41.852,48.2-74.483,60.719-158.757,58.109-248.484-1.6-55.038,26.35-79.883,72.475-62.375,73.864,28.035,141.225,26.1,197.059-43.827,28.907-36.208,51.5-78.964,86.841-108.458C847.315,171.912,861.7,139,855.689,94.854,851.12,61.3,838.827,30.99,828,0" transform="translate(5.049)" fill="#6fec86"/>
          <path id="Trazado_912127" data-name="Trazado 912127" d="M274.105,480.271c-65.094-65.513-99.483-132.081-45.749-221.383,29.034-48.248,93.987-64.707,157.88-40.3,7.482,2.856,15.2,4.907,22.874,7.109V144.619c-31.356,6.532-62.839,12.427-94,20-81.936,19.916-144.694,88.117-151.277,178.566-5.408,74.339,38.146,122.579,90.2,160.952,14.52,10.7,35.5,21.458,26.894,47.518-2.691,8.143-7.649,12.047-13.521,13.619H311.9c7.435-38.464-15.634-62.7-37.791-85" transform="translate(932.889 953.856)" fill="#6fec86"/>
          <path id="Trazado_912128" data-name="Trazado 912128" d="M196.952,1269.8c64.248,25.111,117.412,73.632,178.325,105.564,10.85,5.682,21.848,11,32.852,16.315h45.38c-2.335-.4-4.636-.881-6.844-1.375-54.8-12.206-98.214-45.954-136.488-91.186-61.39-72.554-48.064-231.743,24.438-289.1,40.28-31.856,79.433-65.649,117.854-100.339,11.327-10.224,21.854-30.77,8.555-43.409-13.782-13.095-19.553,9.973-27.759,19.483-14.957,17.333-28.571,37.014-45.823,50.762-66.6,53.071-126.611,110.965-143.091,208.129-2.905,17.158-9.508,34.993-28.793,29.175-14.936-4.512-15.8-21.739-13.1-36.573,14.755-81.2,62.437-135.856,116.687-185.418,30.94-28.271,68.556-49.957,83.338-95.644,12.2-37.674-5.146-74.339-6.69-111.717-1.275-30.914,3.979-65.087-13.829-91.231-13.279-19.483-36.482-30.466-49.13-50.276-33.966-53.177-22.358-113.13-9.6-169.915,14.051-62.52,26.578-123.505,13.346-188.638-12.36-60.826-11.622-121.8,13.091-179.728,4.295-10.079,11-19.445,22.2-16.764,11.581,2.78,13.084,14.417,13.038,25.856-.208,46.994-12.655,92.8-8.388,140.527,4.006,44.822,30.443,77.8,60.585,69.69,52.378-14.09,110.185,16.794,128.845,73.5,18.52,56.269,8.18,117.748,19.432,175.725,5.308,27.329,8.871,55.441,26.444,76.663V520.653c-9.736-29.988-12.085-61.844-12.655-93.161-1.785-98.6-41.22-162.213-125.37-192.147-53.868-19.164-72.166-60.158-68.818-142.753,1.194-29.372,9.736-64.016-25.236-72.2-32.322-7.558-40.964,26.418-50.52,52.433-13.507,36.763-34.006,67.146-57.88,96.108-24.21,29.38,1.322,50.747,14.735,72.181,44.487,71.073,37.844,148.123,8.69,219.005-33.671,81.889-19.15,142.707,33.141,205.667,52.948,63.75,59.578,163.656,19.526,224.672-31.269,47.64-80.03,74.885-116.492,116.92-43.42,50.063-94.537,95.857-102.489,171.555-5.677,54.1,30.7,76.085,68.489,90.859" transform="translate(730.168 127.453)" fill="#6fec86"/>
          <path id="Trazado_912129" data-name="Trazado 912129" d="M826.981,96.984c-.684-3.912-7.106-8.37-11.481-9.343-36.7-8.165-74.9-6.722-110.286-23.843-12.595-6.1-18.956,4.345-19.962,17.136-4.9,62.132-29.222,106.514-83.7,127.8-31.819,12.434-63.443,30.542-70.925,72.159-5.234,29.107-3.234,59.968-3.724,90.062-.617,38.434-18.3,56.724-51.023,49.577-28.94-6.32-57.277-19.164-86.324-21.268-62.457-4.542-100.482,43.379-135.361,92.462-16.52,23.25-13.668,49.425,7.254,69.728,13.823,13.406,28.611,8.522,41.743-2.089,15.681-12.67,28.934-30.975,46.084-39.216,89.149-42.824,175.721-22.324,255.255,28.81,70.824,45.543,86.264,107.524,54.009,168.669-29.859,56.6-81.184,72.911-131.456,92.014-67.214,25.537-126.155,61.175-144.345,148.966-9.81,47.351-30.873,87.2-77.561,95.439-42.206,7.444-68.932-24.245-95.369-55.479-22.344-26.4-43.078-56.155-74.7-69.288C79.923,906.369,38.952,937.64,0,975.079v54.529c11.548-19.1,22.183-39.042,39.576-52.63,51.546-40.272,95.584-30.724,134.5,26.448,26.384,38.768,54.72,75.835,88.579,106.7H389.3c-18.761-89.371,16.567-158.377,70.388-218.557,34.375-38.434,82.03-52.57,123.672-77.749,55.217-33.383,101.791-76.26,114.117-150.956,9.045-54.772-25.27-81.433-57.84-109.066-23.579-20.007-53.687-33.93-58.88-72.827-.825-6.183,2.141-13.011,3.362-19.544,2.718,1.474,6.146,2.226,8.018,4.573,4.281,5.363,7.582,11.7,11.655,17.3,25.713,35.289,58.605,61.365,89.659,89.834,42.454,38.912,41.152,85.96,7.24,153.576-44.373,88.482-118.21,132.506-191.886,178.171-54.163,33.573-104.575,128.26-74.8,205.25h42.031c-37.885-89.279,4.254-183.283,82.09-213.21,34.255-13.171,71.958-19.764,95.416-56.732,27.316-43.044,42.052-94.961,74.877-134.284,15.54-18.617,32.148-38.51,29.45-67.1-3.55-37.766-32.778-53.04-54.485-74.392-40.146-39.505-88.988-72.212-105.83-132.84-22.7-81.706,15.735-144.1,61.168-201.14,42.944-53.914,103.582-77.088,156.739-113.251,6.5-4.413,13.152-10.793,11.514-20.2m-218.2,177.624c-21.962,45-29.739,94.042-36.368,144.219-7.864,59.482-46.876,87.213-98.637,63.143-68.6-31.9-125.672-23.091-176.668,37.971-5.771,6.912-17.775,17-22.767,6.988-8.629-17.288,4.757-31.955,14.306-44.442,48.668-63.652,105.978-74.141,174.1-41.085,26.162,12.692,62.665,30.383,78.655-18.457,8.166-24.952,7.341-53.686,10.575-80.7,1.382-32.335-.409-66.242,22.613-91.2,9.75-10.573,22.894-20.82,35.462-11.621,12.326,9.016,4.14,24.1-1.275,35.191" transform="translate(0 409)" fill="#6fec86"/>
          <path id="Trazado_912130" data-name="Trazado 912130" d="M628.922,381.145c-9-9.821-20.72,16.6-30.1,27.967-20.19,24.45-43.568,38.594-72.7,24.929-27.323-12.806-53.854-20.356-82.808-7.694-59.585,26.053-110.634,72.865-176.03,85.975-55.921,11.211-120.1-23.615-137.5-84.783-13.641-47.951-2.53-99.123-13.145-147.72C99.657,202.116,67.758,137.583,0,104.147v36.087c51.211,28.446,74.488,81.2,87.364,139.836,17.419,79.314,27.451,160.724,4.717,240.516C78.131,569.548,41.448,594.97,0,610.974v31.112c95.181-80.415,170.206-54,240.708,38,37.227,48.567,76.024,48.749,96.919-10.854,31.262-89.181,79.708-153.979,163.409-181.118,40.079-13,85.136-13.832,115.493-53.4,11.9-15.51,26.7-37.978,12.393-53.572m-151.143,89.6c-55.015,32.73-97.765,85.1-150.968,120.558-18.983,12.654-39.931,18.89-64.765,19.035-35.791-1.55-70.26-17.06-101.824-41.047-6.744-5.127-16.1-12.836-10.629-24.549,7.213-15.48,20.606-13.756,32.013-8.454,84.935,39.46,151.659-6.069,217.739-57.856,22.271-17.455,45.36-35.039,74.964-32.259,6.267.585,11.964,3.828,11.924,9.563-.034,5.142-4.268,12.518-8.455,15.009" transform="translate(0 686.917)" fill="#6fec86"/>
          <path id="Trazado_912131" data-name="Trazado 912131" d="M568.486,348.87c-64.195-31-132.033-19.8-198.743-13.946-13.581,1.208-27.853,15.434-25.183,33.983,1.765,12.29,16.439,10.391,25.048,8.021,48.325-13.254,96.959-21.5,146.533-12.624,14.695,2.636,37.314.676,37.267,24.367-.06,24.656-21.505,22.787-36.885,21.253-45.48-4.565-90.317-10.178-135.327,7.467-94.4,37.029-149.915,9.684-173.366-100.247C180.124,187.28,109.944,119.656,0,95.563v20.721a13.085,13.085,0,0,1,2.2.562C94.874,150.274,168.865,274.2,173.569,401.5c1.5,40.713,8.267,81.395,42.9,103.825C256.088,531,293.221,511.6,326.657,487.552c61.953-44.556,122.082-86.8,200.951-50.336,21.365,9.89,48.936-1.549,60.491-29.813,9.938-24.352.228-48.939-19.613-58.532" transform="translate(0.006 630.3)" fill="#6fec86"/>
          <path id="Trazado_912132" data-name="Trazado 912132" d="M398.661,120.029c-16.889-27.861-52.3-31.286-83.144-6.525-25.149,20.2-46.151,48.164-80.044,50.655-53.17,3.912-87.143-33.223-120.787-71.619C68.945,40.343,55.586,37.236,0,69.411v50.83c52.72-29.623,91.907,8.37,133.925,36.125,74.6,49.281,122.692,43.417,195.5-20.235,10.172-8.887,23.995-21.313,34.449-7.831,12.648,16.323,1.845,34.894-9.36,47.366-50.258,55.965-111.332,57.408-175.708,43.485C135.6,209.809,101.086,176.874,58.961,165.2,37.341,159.215,18.412,167.547,0,178.477v46.69c20.559-18.966,43.5-34.408,70.468-25.043,43.085,14.971,84.083,37.978,127.423,51.612C257.973,270.65,319.3,285.15,376.706,238.961c32.255-25.947,43.38-83.59,21.955-118.933" transform="translate(0 320.314)" fill="#6fec86"/>
          <path id="Trazado_912133" data-name="Trazado 912133" d="M422.185,399.992c-8.582-10.588-17.661-20.82-24.384-32.76-35.382-62.854-36.422-135.377-42.709-206.108-5.717-64.381-53.284-109.089-108.353-99.837-46.816,7.869-81.4,60.507-83.392,123.627-1.275,40.295-8.891,81.22,13.668,117.467,12.145,19.521,37.871,20.068,48.52,41.829,15.46,31.59,5.844,66.188,7.81,99.382,2.583,43.538,13.118,82.375,46.749,107.972,49.58,37.735,82.728,32.722,142.091-21.929ZM365.472,553.47c-36.227,11.074-64.148-7.094-85.566-38.943-19.063-28.332-22.291-62.2-22.566-96.586-.127-38.913,10.025-81.494-22.136-110.859-18.3-16.7-44.642-20.3-52.848-52.615-16.674-65.634,14.42-144.971,65.516-160.921,40.012-12.487,77.051,24.124,90.015,87.206,13.521,65.763,7.24,136.585,38.307,197.753,14.97,29.479,35.543,56.162,36.549,92.272,1.094,39.429-10.729,71.521-47.272,82.694" transform="translate(919.815 396.23)" fill="#6fec86"/>
          <path id="Trazado_912134" data-name="Trazado 912134" d="M168.57,0H112.045c-10.83,23.091-22.874,45.612-31.577,69.69-14.8,40.956-3.576,73.754,28.927,98.136,12.42,9.32,27.659,17.455,27.967,37.773.074,5.059-5.053,13.429-9.193,14.789-19.144,6.3-34.718-4.55-47.453-18.685C29.277,144.583,20.9,73.868,56.064,2.772A27.29,27.29,0,0,0,57.211,0H31.733C6.188,62.026,18.568,162.418,59.6,212.26c20.251,24.6,44.192,44.412,75.669,29.441,26.974-12.829,28.437-42.726,27.323-70.5C160.283,113.844,156.868,56.588,168.57,0" transform="translate(105.352)" fill="#6fec86"/>
          <path id="Trazado_912135" data-name="Trazado 912135" d="M349.292,76.175C306.476,101.263,271,79.843,234.752,51.55,219.736,39.822,199.673,4.768,181.227,39.5c-14.346,27-6.6,61.418,13.279,87.266,25.988,33.778,65.134,42.665,97.6,64.259,22.022,14.644,40.253,33.725,57.189,54.681Z" transform="translate(992.708 161.858)" fill="#6fec86"/>
          <path id="Trazado_912136" data-name="Trazado 912136" d="M289.224,0H262.867c-1.409,4.611-2.852,9.206-3.905,13.915-14.5,65.034-2.684,132.081-11.8,197.593-6.234,44.754-36.375,87.175-72.347,94.308-32.617,6.471-60.363-8.963-78.091-39.475C49.738,185.478,27.192,97.217,39.371,0H11.564c-.946,5.476-2.127,10.976-1.778,16.338,6.334,97.042,32.148,189.413,76.991,269.934,36.315,65.2,102.26,84.813,155.283,11.8,34.8-47.936,39.1-104.774,39.529-163.474C281.91,89.629,276.5,44.009,289.224,0" transform="translate(55.522)" fill="#6fec86"/>
          <path id="Trazado_912137" data-name="Trazado 912137" d="M223.6,581.841c-66.865-92.743-61.974-193.378,11.9-278.571,61.4-70.8,142.708-86.962,222.195-108.739V129.171c-80.869,29.57-143.9,93.4-213.331,144.8-117.365,86.9-119.512,250.9-5.106,338.971,3.764,2.9,8.032,4.96,12.058,7.413-2.624-3.836-5.167-7.755-7.891-11.5-6.569-9.047-13.279-17.949-19.821-27.018" transform="translate(884.31 851.967)" fill="#6fec86"/>
          <path id="Trazado_912138" data-name="Trazado 912138" d="M214.475,339.022c40.354,36.322,76.487,77.073,70.623,142.1h36.616c-8.535-68-42.662-117.619-89.914-158.977-24.163-21.146-40.059-49.79-30.926-86.211,9.146-36.474,33.785-51.195,66.221-49.372,29.49,1.656,51.956,22.331,76.561,37.2V187.23c-13.507-5.575-27.283-10.55-40.153-17.614-44.3-24.336-94.021-11.553-116.627,31.028-24.042,45.278-10.649,103.946,27.6,138.378" transform="translate(998.344 1038.009)" fill="#6fec86"/>
          <path id="Trazado_912139" data-name="Trazado 912139" d="M51.855,215.386C45.313,176.01,31.812,139.285,0,116.445v53.4c26.84,40.105,30.061,87.692,30.7,135.841.45,33.269-8.2,62.565-30.7,84.692V471.5c19.976-8.545,33.335-25.9,42.488-46.782,29.819-67.958,21.036-139.076,9.367-209.329" transform="translate(0 768.031)" fill="#6fec86"/>
          <path id="Trazado_912140" data-name="Trazado 912140" d="M72.6,177.442C60.081,118.257,29.672,63.758,34.416,0H14.4C9.052,44.131,26.5,82.96,38.415,122.951,58.478,190.317,45.46,248.826,0,292.79v45.885c49.164-12.016,86.338-96.3,72.6-161.233" fill="#6fec86"/>
          <path id="Trazado_912141" data-name="Trazado 912141" d="M32.564,299.79c8.562-39.885,27.222-70.078,68.14-68.042,35.771,1.777,51.318,40.227,74.139,64.852a41.006,41.006,0,0,1,2.657,3.19h23.834c-10.461-14.8-20.7-29.828-31.879-43.9-23.109-29.038-41.381-67.578-80.547-70.807-52.137-4.3-74.387,55.881-86.646,114.7Z" transform="translate(12.916 1219.34)" fill="#6fec86"/>
          <path id="Trazado_912142" data-name="Trazado 912142" d="M413.611,30.808C396.9,43.66,382.067,59.968,361.575,65.869,317.94,78.433,286.483,53.321,256.456,23.114,248.579,15.191,240.406,7.634,232.3,0H162.59c32.013,5.628,58.572,25.575,84.13,47.929,50.54,44.184,101.395,85.808,166.891,41.062Z" transform="translate(928.389)" fill="#6fec86"/>
          <path id="Trazado_912143" data-name="Trazado 912143" d="M182.075,0c12.957,15.26,26.813,29.479,46.614,31.135C250.4,32.942,263.42,16.991,275.458,0Z" transform="translate(1039.648)" fill="#6fec86"/>
          <path id="Trazado_912144" data-name="Trazado 912144" d="M13.178,66.645C10.991,47.77,9.173,28.165,0,11.379V160.3a2.81,2.81,0,0,0,.416-.585c15.272-29.046,16.473-61.023,12.762-93.07" transform="translate(0 75.052)" fill="#6fec86"/>
          <path id="Trazado_912145" data-name="Trazado 912145" d="M75.127,222.646c-7.69-13.839-17.728-25.415-32.678-26.053-15.426-.653-24.471,11.036-29.846,26.053Z" transform="translate(71.963 1296.484)" fill="#6fec86"/>
          <path id="Trazado_912146" data-name="Trazado 912146" d="M241.262,208.63c-3.127,28.484-1.134,66.94-36.153,82.344-22.5,9.89-17.439-14.249-19.164-27.344-4.623-35-22.848-59.17-47.05-79.154-8.891-7.345-23.425-12.92-20.915-27.511,3.442-20.03,20.291-28.643,35.563-34.917,54.15-22.248,87.72,9.13,87.72,86.583" transform="translate(672.023 758.866)" fill="#6fec86"/>
          <path id="Trazado_912147" data-name="Trazado 912147" d="M131.2,157.855c1.053,31.013-6.965,55.562-36.4,64.3C76.6,227.56,73.18,212.8,73.462,198.6c.825-41.571,2.778-83.134,5.234-124.629.6-10.193,3.342-22.848,15.024-23.493,16.735-.934,20.707,15.951,25.183,29.137A235.264,235.264,0,0,1,131.2,157.855" transform="translate(419.381 332.672)" fill="#6fec86"/>
          <path id="Trazado_912148" data-name="Trazado 912148" d="M193.2,193.443c-30.685-21.64-69.24-42.11-100.1-72.592C65.632,93.72,74.013,28.215,101.618,15.295c26.578-12.442,43.561,11.591,61.819,26.79,21.089,17.561,42.843,24.5,69.4,19.445,37.187-7.072,46.822,7.892,35.147,54.787-9.609,38.6-29.6,67.579-74.783,77.126" transform="translate(435.263 78.101)" fill="#6fec86"/>
          <path id="Trazado_912149" data-name="Trazado 912149" d="M123.881,327.452c-27.8-1.778-31.222-18.108-20.412-41.6q22.183-48.206,46.1-95.379c4.8-9.487,11.394-21.321,22.693-18.359,13.286,3.479,17.983,18.868,17.251,31.537-1.932,33.421.342,68.657-19.3,97.505-11.722,17.227-28.5,24.321-46.333,26.3" transform="translate(558.311 1132.143)" fill="#6fec86"/>
          <path id="Trazado_912150" data-name="Trazado 912150" d="M247.1,330.433c.892-47.283,7.616-95.933-25.411-135.051-14.661-17.364-40.723-19.057-49.473-43.629C161.08,120.5,180.949,78.4,213.184,72.492c35.576-6.525,38.583,30.983,45.279,56.641,17.178,65.824,11.347,137.922,41.515,200.389,10.81,22.392,26.364,42.331,29.98,68.406,2.073,14.971-1.919,29.608-16.151,34.6-25.4,8.9-40.9-8.143-53.418-29.881-12.648-22-14.467-46.82-13.286-72.212" transform="translate(965.562 473.187)" fill="#6fec86"/>
        </g>
      </g>
    </g>
    <g id="Grupo_1102112" data-name="Grupo 1102112" transform="translate(16.593 -7)">
      <g id="Grupo_1101281" data-name="Grupo 1101281" transform="translate(462.124 998.161)">
        <g id="Grupo_1101266" data-name="Grupo 1101266" transform="translate(0 0)">
          <g id="Grupo_1101265" data-name="Grupo 1101265" transform="translate(0 0)" clip-path="url(#clip-path-3)">
            <rect id="Rectángulo_403015" data-name="Rectángulo 403015" width="192.789" height="192.789" transform="translate(-31.882 135.078) rotate(-60)" fill="#f56364"/>
          </g>
        </g>
        <g id="Grupo_1101268" data-name="Grupo 1101268" transform="translate(29.23 29.229)">
          <g id="Grupo_1101267" data-name="Grupo 1101267" transform="translate(0 0)" clip-path="url(#clip-path-4)">
            <path id="Trazado_912104" data-name="Trazado 912104" d="M90.468,153.764a63.3,63.3,0,1,1,44.757-18.539,62.884,62.884,0,0,1-44.757,18.539m0-121.745A58.45,58.45,0,1,0,131.8,49.138a58.067,58.067,0,0,0-41.33-17.119" transform="translate(-19.902 -19.902)"/>
            <path id="Trazado_912105" data-name="Trazado 912105" d="M198.718,168.424a20.53,20.53,0,0,0,4.768,5.409,20.606,20.606,0,0,1,25.265,0,20.544,20.544,0,0,0,4.767-5.41,27.781,27.781,0,0,0-34.8,0" transform="translate(-145.552 -118.883)"/>
            <path id="Trazado_912106" data-name="Trazado 912106" d="M166.875,254.358a20.147,20.147,0,0,0-6.785-1.566,27.971,27.971,0,0,0-.229,3.588,27.823,27.823,0,0,0,16.976,25.61c.111.047.223.094.335.139q.277-.555.52-1.132a20.075,20.075,0,0,0,1.492-5.833,20.646,20.646,0,0,1-12.123-18.784q0-.96.086-1.9c-.09-.04-.181-.079-.272-.117" transform="translate(-117.091 -185.159)"/>
            <path id="Trazado_912107" data-name="Trazado 912107" d="M295,275.2a20.063,20.063,0,0,0,1.487,5.782q.252.6.54,1.171c.145-.058.29-.117.435-.178a27.777,27.777,0,0,0,16.976-25.61,28.062,28.062,0,0,0-.23-3.594,20.158,20.158,0,0,0-6.9,1.573c-.053.022-.106.045-.158.069q.091.967.091,1.953A20.645,20.645,0,0,1,295,275.2" transform="translate(-216.072 -185.141)"/>
            <path id="Trazado_912108" data-name="Trazado 912108" d="M96.444,118.124a22.282,22.282,0,0,1,17.142,9.922L118,125.5a5.965,5.965,0,0,1,4.4-7.624v-4.085a22.328,22.328,0,0,1-8.927-42.147,31.961,31.961,0,0,0-21.739,30.281,32.33,32.33,0,0,0,.211,3.695,31.955,31.955,0,0,0-19.428,29.4,32.305,32.305,0,0,0,.211,3.683A22.326,22.326,0,0,1,94.99,118.077q.733,0,1.454.047" transform="translate(-53.117 -52.474)"/>
            <path id="Trazado_912109" data-name="Trazado 912109" d="M166.543,303.681a22.145,22.145,0,0,1-2.061-6.9,22.48,22.48,0,0,1-.183-2.87,22.236,22.236,0,0,1,2.461-10.2l-4.309-2.488a5.962,5.962,0,0,1-8.8,0l-4.4,2.541a22.234,22.234,0,0,1,2.433,10.146,22.625,22.625,0,0,1-.178,2.832,22.333,22.333,0,0,1-32.065,17.172,31.952,31.952,0,0,0,38.611.135,31.952,31.952,0,0,0,38.835-.308,22.339,22.339,0,0,1-30.34-10.064" transform="translate(-87.482 -205.986)"/>
            <path id="Trazado_912110" data-name="Trazado 912110" d="M298.993,105.617a31.986,31.986,0,0,0-21.527-33.976,22.327,22.327,0,0,1-8.928,42.146v4.085a5.965,5.965,0,0,1,4.4,7.624l4.328,2.5a22.282,22.282,0,0,1,17.227-9.879q.663-.04,1.337-.04a22.325,22.325,0,0,1,22.3,21.263,31.991,31.991,0,0,0-19.138-33.723" transform="translate(-196.692 -52.474)"/>
          </g>
        </g>
      </g>
      <g id="Grupo_1101282" data-name="Grupo 1101282" transform="translate(505.41 798.571)">
        <g id="Grupo_1101266-2" data-name="Grupo 1101266" transform="translate(0 0)">
          <g id="Enmascarar_grupo_1101265" data-name="Enmascarar grupo 1101265" transform="translate(0 0)" clip-path="url(#clip-path-3)">
            <rect id="Rectángulo_403015-2" data-name="Rectángulo 403015" width="192.789" height="192.789" transform="translate(-31.882 135.078) rotate(-60)" fill="#f56364"/>
          </g>
        </g>
        <g id="Grupo_1101268-2" data-name="Grupo 1101268" transform="translate(29.229 29.23)">
          <g id="Grupo_1101267-2" data-name="Grupo 1101267" transform="translate(0 0)" clip-path="url(#clip-path-4)">
            <path id="Trazado_912104-2" data-name="Trazado 912104" d="M90.468,153.764a63.3,63.3,0,1,1,44.757-18.539,62.884,62.884,0,0,1-44.757,18.539m0-121.745A58.45,58.45,0,1,0,131.8,49.138a58.067,58.067,0,0,0-41.33-17.119" transform="translate(-19.902 -19.902)"/>
          </g>
        </g>
        <g id="Grupo_1101284" data-name="Grupo 1101284" transform="translate(48.796 71.876)">
          <path id="Trazado_912074" data-name="Trazado 912074" d="M155.134,376.266c-2.516,0-4.058-.873-4.783-2.3H132.22v8.288H177.4V373.97H160.965a7.364,7.364,0,0,1-5.84,2.3" transform="translate(-132.22 -339.928)"/>
          <path id="Trazado_912075" data-name="Trazado 912075" d="M251.685,328.347c.737,0,1.793-.356,2.646-2.063a3.924,3.924,0,0,0,.277-1.406,4.747,4.747,0,0,1,.122-.877,3.2,3.2,0,0,1,.4-.2,2.813,2.813,0,0,0,1.548-1.24,2.579,2.579,0,0,0,.261-1.183,6.716,6.716,0,0,0-.066-.821,6.514,6.514,0,0,1-.063-.809,2.4,2.4,0,0,1,.011-.281,5.338,5.338,0,0,1,1.63-2.172L257.3,315.99c-.349.306-2.092,1.9-2.217,3.33a6.8,6.8,0,0,0,.059,1.451,1.886,1.886,0,0,1-.025,1.016c-.079.156-.4.3-.689.424a2.294,2.294,0,0,0-1.224.923,4.175,4.175,0,0,0-.34,1.607,4.2,4.2,0,0,1-.1.775,3.294,3.294,0,0,1-.467.716,5.2,5.2,0,0,1-.619,1.19v.925" transform="translate(-224.599 -295.092)"/>
          <path id="Trazado_912076" data-name="Trazado 912076" d="M241.7,333.832l1,1.428a5.1,5.1,0,0,0,1.272-1.267,5.2,5.2,0,0,0,.619-1.19c.041-.113.073-.209.1-.279a2.39,2.39,0,0,0-.061-1.356,1.441,1.441,0,0,1-.05-.959,1.93,1.93,0,0,1,.66-.714,2.506,2.506,0,0,0,.959-3.273,3.825,3.825,0,0,1-.188-1.428l-1.714-.3a3.06,3.06,0,0,0-.048.553,6.457,6.457,0,0,0,.263,1.607,4.934,4.934,0,0,1,.172.884.258.258,0,0,1-.009.088,1.666,1.666,0,0,1-.508.508,3.542,3.542,0,0,0-1.17,1.36,2.462,2.462,0,0,0-.215,1.022,4.3,4.3,0,0,0,.165,1.075,2.984,2.984,0,0,1,.086.417,3.312,3.312,0,0,1-1.317,1.814" transform="translate(-216.881 -301.665)"/>
          <path id="Trazado_912077" data-name="Trazado 912077" d="M203.827,334.944a2.742,2.742,0,0,1,.24.608,2.325,2.325,0,0,1,.476.358,3.706,3.706,0,0,1-.045,1.158c-.016.125-.032.245-.043.363a6.937,6.937,0,0,0,1.419,1.072l-.655,1.313a13.632,13.632,0,0,0,1.047,1.3l1.288-1.172a7.845,7.845,0,0,1-1.387-1.959c0-.016,0-.032,0-.054a6.277,6.277,0,0,1,.063-.644,8.613,8.613,0,0,0,.091-1.068,2.655,2.655,0,0,0-.152-.948,2.685,2.685,0,0,0-1.195-1.215c-.254-.161-.6-.383-.619-.524a.842.842,0,0,1-.007-.107,2.254,2.254,0,0,1,.152-.657,5.647,5.647,0,0,0,.331-1.882c0-.116,0-.236-.011-.36l-1.739.1a3.909,3.909,0,0,1-.24,1.61,3.343,3.343,0,0,0-.218,1.512l.014.086a2.684,2.684,0,0,1,1.19,1.1" transform="translate(-186.648 -306.336)"/>
          <path id="Trazado_912078" data-name="Trazado 912078" d="M185.505,321.719a2.613,2.613,0,0,1-.086.861,2.488,2.488,0,0,0,.156,1.857,2.765,2.765,0,0,0,1.394,1.22c.356.177.562.288.678.5a1.119,1.119,0,0,1,.1.746,2.2,2.2,0,0,0,.243,1.417,7.21,7.21,0,0,0,2.457,2.126l.122-.245.655-1.313a6.734,6.734,0,0,1-1.419-1.072,2.094,2.094,0,0,1-.315-.381c-.032-.052-.034-.118-.009-.379a3.084,3.084,0,0,0-.063-1.12,2.581,2.581,0,0,0-1.433-1.712c-.084-.043-.165-.086-.243-.125-.372-.184-.53-.274-.612-.44-.113-.227-.1-.315-.014-.7a4.3,4.3,0,0,0,.122-1.387,5.32,5.32,0,0,0-1.7-2.886l-.528-.592-1.347,1.1.6.671a4.31,4.31,0,0,1,1.249,1.854" transform="translate(-171.999 -296.716)"/>
          <path id="Trazado_912079" data-name="Trazado 912079" d="M225.761,316.7c0,1.337.322,3.135,1.891,3.135s1.981-2.027,1.981-2.856c0-.732-1.113-3.833-1.383-6.642a1.612,1.612,0,0,1-.88-.263c-.243,3.151-1.621,5.409-1.621,6.619" transform="translate(-204.547 -290.514)"/>
          <path id="Trazado_912080" data-name="Trazado 912080" d="M251.155,227.114c-3.423.544-19.065,3.355-20.561,3.65-2.224.426-2.743-1.587-3.754-2.067,0,0,1.5,8.8,1.587,9.458.313,2.353-1.3,3.564-1.3,5.323a3,3,0,0,0,1.086,2.346,1.631,1.631,0,0,0,.88.263h.032c1.523,0,1.85-1.523,1.85-2.684,0-1.8-.871-2.829-.871-3.264s.363-.943,1.741-1.161,18.611-3.21,21.332-3.65,4.733-2.666,4.3-4.951-2.884-3.808-6.311-3.264m1.179,6.42c-2.321.145-22.6,2.1-22.6,2.1l-.435-2.865s20.062-3.482,22.42-3.876,4.026.544,4.026,2.031-1.088,2.466-3.4,2.612" transform="translate(-205.39 -226.276)"/>
          <path id="Trazado_912081" data-name="Trazado 912081" d="M493.758,305.767c-.469,2.421-1.478,4.745-1.478,5.382,0,.83.247,2.9,1.814,2.9s2.063-1.843,2.063-3.174c0-1.056-.925-2.766-1.313-5.237a1.916,1.916,0,0,1-.782.159,1.576,1.576,0,0,1-.3-.029" transform="translate(-410.657 -287.088)"/>
          <path id="Trazado_912082" data-name="Trazado 912082" d="M373.194,232.35c2.72.435,21.785,3.611,23.168,3.831.787.125,1.43.644,1.43.859a5.122,5.122,0,0,0-.841,2.432c0,1.079.168,2.779,1.419,3.013a1.559,1.559,0,0,0,.3.029,1.88,1.88,0,0,0,.782-.159,2.787,2.787,0,0,0,1.31-2.65c0-2.487-1.292-2-.982-4.352.086-.653,1.342-9.19,1.342-9.19-1.016.472-1.285,2.226-3.509,1.8-1.512-.29-19-3.516-22.42-4.06s-5.749,1.238-6.189,3.523,1.469,4.486,4.189,4.922m2.04-6.744c2.36.388,23.6,4.1,23.6,4.1l-.435,2.865s-21.967-1.922-24.279-2.067-3.373-.943-3.373-2.43,1.85-2.9,4.5-2.466" transform="translate(-315.279 -223.805)"/>
          <path id="Trazado_912083" data-name="Trazado 912083" d="M527.666,288.389a1.2,1.2,0,0,1-.116.68,2.35,2.35,0,0,1-1.36,1.421l.4,1.7a3.821,3.821,0,0,0,2.562-2.4,2.885,2.885,0,0,0,.268-1.483.981.981,0,0,1,.211-.75c.165-.258.211-.27.408-.322a2.009,2.009,0,0,0,1.4-1.133,3.082,3.082,0,0,0,.222-2.29,2.271,2.271,0,0,1-.075-.814c.061-.39.336-.689.859-1.226a13.041,13.041,0,0,0,.932-1.038l-1.36-1.077a10.748,10.748,0,0,1-.812.9,4,4,0,0,0-1.331,2.167,3.786,3.786,0,0,0,.091,1.439,1.4,1.4,0,0,1-.052,1.111c-.118.222-.122.222-.308.272a2.194,2.194,0,0,0-1.437,1.074,2.668,2.668,0,0,0-.481,1.77" transform="translate(-436.879 -266.99)"/>
          <path id="Trazado_912084" data-name="Trazado 912084" d="M514.28,295.829a3.773,3.773,0,0,0,1.473-2.224,3.856,3.856,0,0,0,.145-1.743,2.38,2.38,0,0,1,.052-1.011c.059-.222.079-.231.322-.363a2.267,2.267,0,0,0,1.267-1.612,2.807,2.807,0,0,0-.242-2.07,1.432,1.432,0,0,1-.174-1.034l-1.714-.313a3.135,3.135,0,0,0,.306,2.07,1.109,1.109,0,0,1,.138.907.592.592,0,0,1-.4.508,2.118,2.118,0,0,0-1.183,1.449,4.04,4.04,0,0,0-.1,1.646,2.125,2.125,0,0,1-.077,1.038,2.176,2.176,0,0,1-.961,1.433l-.406.36,1.165,1.294.39-.347" transform="translate(-426.463 -271.483)"/>
          <path id="Trazado_912085" data-name="Trazado 912085" d="M462.47,294.317a2.391,2.391,0,0,0,1.272,1.537c.413.256.553.36.61.635a1.1,1.1,0,0,1-.011.73,2.094,2.094,0,0,0-.03,1.4,5.215,5.215,0,0,0,1.836,2.691l1.231-1.231c-1.1-1.1-1.19-1.226-1.394-1.938a.437.437,0,0,1,0-.37,2.8,2.8,0,0,0,.063-1.646,2.637,2.637,0,0,0-1.4-1.752c-.356-.22-.453-.3-.487-.437a1.534,1.534,0,0,1,.152-.9,4.165,4.165,0,0,0,.295-2.024l-1.73.2a2.48,2.48,0,0,1-.206,1.24,3.171,3.171,0,0,0-.209,1.866" transform="translate(-387.552 -275.775)"/>
          <path id="Trazado_912086" data-name="Trazado 912086" d="M446.148,290.547a3.4,3.4,0,0,0-.193-1.1,5.192,5.192,0,0,0-1.308-2.172l-.487-.553-1.34,1.111.546.619a3.5,3.5,0,0,1,.943,1.555,1.68,1.68,0,0,1,.039,1.022,2.9,2.9,0,0,0,.179,1.931,2.3,2.3,0,0,0,1.487,1.349c.281.1.331.122.431.333a.819.819,0,0,1,.107.655,1.82,1.82,0,0,0,.1,1.213c.311.707,1.188,2.376,2.609,2.584l.254-1.723c-.349-.052-.907-.737-1.269-1.562l-.014-.041.023-.116a2.678,2.678,0,0,0,.068-.564,2.776,2.776,0,0,0-.3-1.181,2.2,2.2,0,0,0-1.408-1.236c-.3-.111-.369-.136-.5-.422a1.126,1.126,0,0,1-.118-.474,2.334,2.334,0,0,1,.057-.419,4.093,4.093,0,0,0,.1-.812" transform="translate(-372.409 -272.458)"/>
          <path id="Trazado_912087" data-name="Trazado 912087" d="M461.031,345.871a6.534,6.534,0,0,1-7.549-.354l-.426-.388-.524.243a7.048,7.048,0,0,1-2.646.413c-1.059.03-1.9.054-2.324.723a1.759,1.759,0,0,0,.084,1.811,3.24,3.24,0,0,0,.206.326h3.8a2.788,2.788,0,0,1-2.428-1.088c.222-.016.487-.027.714-.032a9.859,9.859,0,0,0,2.791-.383,7.576,7.576,0,0,0,3.6,1.417,4.833,4.833,0,0,1,3.441-1.505v1.3a6.677,6.677,0,0,0,1.94-.827,30.419,30.419,0,0,1,3.124,1.732,11.533,11.533,0,0,0,1.43.807,29.463,29.463,0,0,0,6.118.574V348.9a30.588,30.588,0,0,1-5.486-.458c-.138-.057-.7-.4-1.149-.671a24.54,24.54,0,0,0-3.876-2.063l-.451-.15-.37.3" transform="translate(-375.912 -317.627)"/>
          <path id="Trazado_912088" data-name="Trazado 912088" d="M433.1,360.6h-6.495c-2.924,0-3.237,1.791-3.237,2.419a2.587,2.587,0,0,0,.082.635h2.639c-.775,0-1.022-.3-1.022-.628s.3-.68,1.539-.68h10.426a3.156,3.156,0,0,1,.671-1.741h-4.6" transform="translate(-357.368 -329.589)"/>
          <path id="Trazado_912089" data-name="Trazado 912089" d="M491.392,362.361h.249l5.2-1.215-2.97-.526h-.054v.15c-.023,0-2.179.1-2.432,1.587" transform="translate(-409.968 -329.605)"/>
          <path id="Trazado_912090" data-name="Trazado 912090" d="M409.727,374.1a2.72,2.72,0,0,0-2.806,2.548,2.757,2.757,0,0,0,2.893,2.591h.542c.125-.669.657-1.621,2.641-1.73V377.5h-3.174a1.307,1.307,0,0,1-1.152-.852,1.011,1.011,0,0,1,1.065-.8h11.31V374.1h-11.31" transform="translate(-344.647 -340.029)"/>
          <path id="Trazado_912091" data-name="Trazado 912091" d="M421.884,390.753a1.992,1.992,0,0,0-.034.376c0,1.428,1.258,2.591,3.4,2.591h.041c.326-.966,1.517-1.646,3.1-1.732v-.011h-3.14c-1.079,0-1.668-.562-1.668-.85,0-.247.666-.376,1.324-.376h7.655V389.01h-7.655c-.136,0-.263,0-.388.011-1.984.109-2.516,1.061-2.641,1.73" transform="translate(-356.193 -351.559)"/>
          <path id="Trazado_912092" data-name="Trazado 912092" d="M436.783,403.861a1.71,1.71,0,0,0-.093.549c0,1.093.979,2.267,3.165,2.46,1.582.132,8.41.347,9.662.347a36.1,36.1,0,0,0,7.6-.809,12.589,12.589,0,0,0,1.814-.725,10.377,10.377,0,0,1,5.123-1.133v-1.741a12.019,12.019,0,0,0-5.858,1.294,11.091,11.091,0,0,1-1.566.632,34.792,34.792,0,0,1-7.111.739c-1.156,0-7.98-.213-9.519-.34-1.106-.093-1.566-.517-1.566-.723.039-.107.571-.549,1.8-.549h7.009l-1.677-1.741h-5.332c-.116,0-.231,0-.345.011-1.585.086-2.772.764-3.1,1.73" transform="translate(-367.668 -361.697)"/>
          <path id="Trazado_912093" data-name="Trazado 912093" d="M484.317,355.081c-.025.03-.05.057-.073.086a3.155,3.155,0,0,0-.671,1.741c-.007.1-.014.195-.014.3,0,1.619.852,4.443,6.565,5.166l.218-1.727c-1.884-.238-5.033-1-5.033-3.439a1.764,1.764,0,0,1,.025-.3c.256-1.494,2.41-1.587,2.432-1.587V353.58a4.824,4.824,0,0,0-3.441,1.5" transform="translate(-403.913 -324.161)"/>
        </g>
      </g>
      <g id="Grupo_1101285" data-name="Grupo 1101285" transform="translate(705 687.644)">
        <g id="Grupo_1101266-3" data-name="Grupo 1101266" transform="translate(0 0)">
          <g id="Grupo_1101265-2" data-name="Grupo 1101265" transform="translate(0 0)" clip-path="url(#clip-path-3)">
            <rect id="Rectángulo_403015-3" data-name="Rectángulo 403015" width="192.789" height="192.789" transform="translate(-31.882 135.078) rotate(-60)" fill="#f56364"/>
          </g>
        </g>
        <g id="Grupo_1101268-3" data-name="Grupo 1101268" transform="translate(29.229 29.23)">
          <g id="Grupo_1101267-3" data-name="Grupo 1101267" transform="translate(0 0)" clip-path="url(#clip-path-4)">
            <path id="Trazado_912104-3" data-name="Trazado 912104" d="M90.468,153.764a63.3,63.3,0,1,1,44.757-18.539,62.884,62.884,0,0,1-44.757,18.539m0-121.745A58.45,58.45,0,1,0,131.8,49.138a58.067,58.067,0,0,0-41.33-17.119" transform="translate(-19.902 -19.902)"/>
          </g>
        </g>
        <path id="Trazado_912120" data-name="Trazado 912120" d="M177.57,137.247c-.021,0-.035.025-.052.067s-2.706,7.715-5.982,17.057-5.963,17-5.974,17.012c-.034.034-.271-.052-.268-.1s7-21.8,7.07-21.995a2.985,2.985,0,0,0-.626-.418c-.634-.378-.709-.418-.709-.373s-5.829,22.759-5.84,22.77a1.9,1.9,0,0,1-.351-.082,13.732,13.732,0,0,0-1.693-.343,12.757,12.757,0,0,0-2.3,0,9.668,9.668,0,0,0-5.832,2.968,10.967,10.967,0,0,0-2.551,4.281,3.19,3.19,0,0,1-.127.358c-.011.011-.9-.64-1.984-1.454s-1.978-1.478-1.984-1.469.1.229.239.5l.246.492,1.7,1.141c1.643,1.1,1.692,1.142,1.678,1.216s.041.139.515.649c.29.316.61.656.709.761l.186.186.5-.03.5-.03.94.627c.516.341.906.591.858.552s-.419-.327-.828-.634a7.327,7.327,0,0,1-.7-.559c.02,0,.672-.04,1.447-.082l1.41-.075,2.029,1.022c1.122.558,2.05,1.014,2.059,1.014s.518-.608,1.141-1.357,1.151-1.38,1.171-1.4-.051-.25-.485-1.313c-.285-.7-.513-1.27-.507-1.275s.716.071,1.581.164,1.577.165,1.589.157.122-.442.246-.955l.231-.94.7-.007c.386,0,.809,0,.947.015l.254.022-2.4,2.625c-1.325,1.44-2.43,2.653-2.461,2.692-.107.127.848-.83,3.08-3.088l2.2-2.23.82-.015.813-.015-.142-.209c-.082-.116-.236-.318-.343-.447a1.535,1.535,0,0,1-.186-.254c.006-.011.312-.331.679-.709l.664-.679.075.157a1.038,1.038,0,0,1,.067.186c0,.045.037.031,1.156-.485a10.56,10.56,0,0,1,1.074-.455c.011.011.117.372.239.8s.227.787.239.8,3.429-2.731,3.528-2.849c.023-.031.446-.8.94-1.715s.93-1.715.97-1.783.057-.125.037-.119-.719.587-1.559,1.283l-1.529,1.26-1.1.03c-.606.014-1.145.021-1.193.015-.082-.008.524-.625,10.255-10.449,5.686-5.739,10.345-10.445,10.345-10.457s-.27-.287-.6-.612c-.558-.558-.6-.585-.641-.537-.025.025-4.755,5.175-10.509,11.441l-10.457,11.4-.828.582c-.454.319-.841.595-.858.612s0,.092.067.239c.079.186.086.219.052.261s-1.119,1.239-1.328,1.462c-.051.054-.053.05-.3-.186a10.086,10.086,0,0,0-1.477-1.208l-.269-.187,5.184-8.905c4.087-7.022,5.174-8.91,5.146-8.935s-.285-.187-.589-.373l-.559-.343-.1.172c-.051.1-2.152,4.246-4.669,9.219-2.6,5.136-4.587,9.04-4.609,9.04s-.025-.034.015-.149c.031-.079,2.781-7.748,6.116-17.042s6.062-16.906,6.056-16.923-2.038-.973-2.252-1.052a.045.045,0,0,0-.022,0Zm-10.285,13.015-.291.723-.283.731-.552-.216a3.967,3.967,0,0,0-.574-.2c-.008.011-.139.622-.291,1.357s-.275,1.362-.283,1.387.116.1.567.313c.324.152.6.287.612.3s.15.509.313,1.1.3,1.083.306,1.089.236-.322.515-.731a17.418,17.418,0,0,1,2.2-2.588l.089-.1-.485-1.566-.485-1.566-.209-.015c-.116-.011-.419-.02-.679-.022Zm38.44,6.959c-.011,0-.029.033-.037.067-.087.29-.981,3.054-.992,3.065s-.61.041-1.342.075l-1.335.06-.38.283c-.209.161-.382.3-.388.3s-.364,2.281-.358,2.29,2.08,1.193,2.088,1.193.381-.4.835-.888.834-.89.843-.888.756.509,1.663,1.126l1.648,1.119.007-.41c0-.226,0-1.145-.015-2.036l-.03-1.618-1.1-1.872c-.6-1.026-1.1-1.865-1.111-1.865Zm-28.051,1.141-.052.067c-.028.037-.2.28-.38.537l-.328.462-.209,1.044c-.113.575-.209,1.073-.209,1.1a4.964,4.964,0,0,0,.738.694c.406.35.744.634.761.634s.269-.289.559-.641l.53-.649.119-.582c.065-.319.132-.653.149-.746l.03-.172-.321-.865c-.175-.474-.327-.869-.336-.88a1.377,1.377,0,0,0-.269.254l-.246.268-.268-.268ZM194.91,159.9c-.014,0-6.229,4.375-13.82,9.726s-13.8,9.735-13.8,9.741,6.228-3.846,13.828-8.562l13.813-8.577v-1.171C194.933,160.421,194.922,159.9,194.91,159.9Zm-2.73,7.608-.559.626-.567.619-.269.723c-.149.4-.271.725-.269.731s4.926.6,4.937.589-.731-.749-1.633-1.648l-1.641-1.641Zm22.666.433c-.014,0-10.962,2.828-24.329,6.295s-24.3,6.312-24.3,6.317,49.295-11.156,49.315-11.173-.664-1.434-.686-1.439Zm-28.64,3.341c-.014,0-3.657,1.719-8.1,3.819s-8.1,3.832-8.122,3.849-.021.024.03.007c.1-.034,16.331-6.3,16.334-6.3s-.018-.308-.052-.686a3.235,3.235,0,0,0-.089-.686Zm35.218,1.693c-.037,0-12.048,2.041-26.7,4.527s-26.676,4.52-26.716,4.52-.171-.082-.388-.254l-.328-.261-.015,1.081-.015,1.081-.843.574c-.465.313-.86.564-.88.567s-.376-.238-.791-.537c-1.1-.795-1.116-.792-.067.022.395.307.735.563.746.574a12.851,12.851,0,0,1-1.365.925c-.02-.006-3.346-2.84-4.169-3.55l-.186-.164-1.544,1.335c-.848.736-1.555,1.343-1.566,1.343s-.888-.228-1.939-.507l-1.909-.507.537.015c.3.008.743.014,1,.022.443.011-.819-.083-2.327-.179-.279-.02-1.792-.122-3.356-.224l-2.849-.186-.007-.082c-.017-.1-.006-.092-.254-.007-.178.059-.2.056-.753.022-.31-.017-.631-.036-.716-.045l-.157-.022-.134-.246-.134-.239-.962-.052c-.53-.028-1.032-.045-1.111-.045h-.142l-.127.2-.119.209-.142-.015c-.079,0-3.029-.191-6.556-.425s-6.459-.42-6.519-.418l-.1.007.328.351c.285.31.338.357.425.365.056.006,2.846.118,6.2.254s6.107.253,6.116.261a4.773,4.773,0,0,1-.3.53,3.042,3.042,0,0,0-.291.544c.011.011.42.3.9.649l.873.634.962.157c.527.09.98.158,1,.149a4.145,4.145,0,0,0,.328-.492l.3-.485h1.223v-.1c0-.059-.021-.394-.052-.738s-.053-.633-.045-.641,6.088.216,6.243.239c.073.011.089.02.089.082a9.515,9.515,0,0,0,.261,1.149c.1.327.1.329.037.343-.031.006-7.5.862-16.595,1.9s-16.532,1.9-16.535,1.9-.068.73-.06.738,7.473-1.006,16.595-2.238,16.607-2.238,16.632-2.238.07.061.112.179c.037.1.12.3.179.455a1.923,1.923,0,0,1,.1.283c-.006,0-5.589,1.239-12.411,2.745s-12.424,2.753-12.455,2.767c-.048.02-.077.092-.142.425a2.193,2.193,0,0,0-.06.418c.014.011,25.007-6.145,25.12-6.19.017-.006.071.073.119.172.062.124.075.185.052.194s-1.9.514-4.192,1.126l-4.169,1.1-.052.425c-.031.234-.055.43-.052.433s1.948-.633,4.318-1.417c4.324-1.426,4.353-1.436,4.356-1.32,0,.017-3.037,1.67-6.75,3.677l-6.757,3.647.022.269c.011.147.019.314.03.373l.022.1,6.705-3.945c3.69-2.171,6.732-3.964,6.757-3.975s.09.046.276.351a11.356,11.356,0,0,0,.791,1.126c.113.147.12.168.075.2-.025.017-3.58,2.855-7.9,6.3l-7.846,6.272.552.544c.307.3.582.553.6.567s1.083-.937,4.691-4.244c2.56-2.348,4.656-4.262,4.661-4.259a.935.935,0,0,1-.082.186.99.99,0,0,0-.082.194c0,.02.774.9.955,1.081.048.048.073.041.612-.2l.559-.254.283.283.283.276.559-.336.567-.343.216-.723c.121-.4.213-.746.216-.768a2.694,2.694,0,0,0-.515-.365l-.507-.321-.82-.015-.813-.015L152.644,191c1.1-1.009,2.008-1.835,2.014-1.835s.229.217.5.485.621.592.776.716a9.475,9.475,0,0,0,6.317,2.17,9.753,9.753,0,0,0,6.548-2.857l.358-.343,5.363,4.318c2.954,2.379,5.372,4.321,5.377,4.318s-.137-.34-.321-.746l-.328-.738-4.982-3.655-4.982-3.647.1-.119c.054-.062.2-.243.313-.4a1.741,1.741,0,0,1,.239-.269c.014.006,3.021,2.352,6.683,5.213s6.7,5.235,6.765,5.281l.112.082.321-.321a3.423,3.423,0,0,0,.321-.343c-.006-.008-3.143-2.286-6.974-5.057s-6.985-5.054-7.011-5.079c-.045-.042-.037-.064.127-.321.11-.172.186-.27.209-.261s2.866,1.744,6.325,3.863,6.294,3.839,6.3,3.834-.144-.33-.336-.716l-.351-.7-5.922-3.252-5.922-3.252.2-.4c.113-.217.252-.493.306-.612l.1-.216,3.67.947c2.018.521,3.673.958,3.684.97a1.392,1.392,0,0,1-.3.418c-.014,0-.513-.094-1.1-.2s-1.081-.194-1.1-.194a2.314,2.314,0,0,0-.358.567l-.313.574.738.544c.406.3.918.679,1.141.843l.4.3,3,.515c1.646.282,3,.505,3.006.5s.061-.772.089-1.268l.007-.172-.492-.567-.492-.559-.612-.261c-.338-.144-.607-.266-.6-.268s1.919.486,4.259,1.089,4.273,1.1,4.3,1.1.03-.008.03-.022.085-.588.186-1.275.182-1.247.179-1.253-4.314-.614-9.577-1.35-9.571-1.344-9.577-1.35a3.8,3.8,0,0,1,.127-.433,4.542,4.542,0,0,0,.142-.462,2.824,2.824,0,0,0-.738-.306l-.738-.261-.149-.261a1.128,1.128,0,0,1-.134-.268c.006-.008,4.145.185,9.2.425l9.181.433.075.075.075.082,1.663.112,1.656.112.1-.1.1-.1,11.739.559c6.458.3,11.744.547,11.747.544s-.217-.175-.485-.38l-.485-.38-11.061-.343c-6.083-.195-11.075-.355-11.1-.358a9.953,9.953,0,0,1,.8-.962c.462-.524.833-.959.828-.962s-1.333-.6-2.954-1.313-2.95-1.312-2.961-1.32-.379.331-.813.746l-.791.753-1.119.373c-.612.206-1.121.379-1.126.388s.1.462.246,1.014.247,1.018.239,1.029-3.333-.094-7.384-.224-7.372-.227-7.384-.224a1.329,1.329,0,0,1-.149-.224c-.127-.209-.156-.24-.917-.843l-.791-.619.149-.022,26.746-3.632,26.6-3.61.015-.91v-.91h-.06Zm-75.031,4.386a.094.094,0,0,0,.007.03c.011.031.061.169.112.3l.1.231,4.408,2.126c2.422,1.167,4.41,2.114,4.415,2.111s-1.963-1.057-4.371-2.334-4.443-2.356-4.527-2.4c-.1-.059-.139-.078-.142-.06Zm-3.871,2.581c-.008,0-.2.161-.425.358a3,3,0,0,0-.4.373c.028.023,13.14,2.068,13.156,2.051s-12.288-2.785-12.336-2.782Zm12.426,2.789c-.031,0-.049.007-.037.015a.056.056,0,0,0,.052,0C154.986,182.741,154.98,182.735,154.949,182.735Zm-10.9.641.194.015c.1.011.231.02.276.022.07,0,.062.014-.082.067-.293.113-.279.113-.336,0Zm43.348.373a1.944,1.944,0,0,1,.3.283l.261.291-.477-.022c-.265-.011-.784-.026-1.156-.037a4.55,4.55,0,0,1-.634-.037c.073-.025,1.68-.475,1.708-.477Zm-32.533.06c-.007,0-.006.011,0,.015a.056.056,0,0,0,.052,0c.023-.008.009-.015-.022-.015a.067.067,0,0,0-.03,0Zm-21.488.85c-.011,0-.407.286-.88.641l-.858.634-.007.343c-.008.335-.01.347.052.358.1.023,4.7.441,4.743.433s-2.994-2.395-3.05-2.409Zm5.72,5.5c0,.025,1.725,1.686,1.753,1.686s.3-.114.634-.246l.6-.239v-1.044H142c-.1,0-2.515-.132-2.737-.149a.817.817,0,0,0-.172-.007Zm-6.332,4.385c-.008,0-.024.02-.03.037s-.142.471-.306,1.007l-.3.977.09.127c.488.679,1.7,2.329,1.715,2.335a1.335,1.335,0,0,0,.127-.3c.059-.169.183-.516.276-.776l.164-.47.1-.015c.059-.008.3-.026.537-.037l.425-.015.336-.365.336-.358.179-.544a5.173,5.173,0,0,0,.157-.544c-.017-.017-1.587-.6-1.618-.6a1.878,1.878,0,0,0-.261.291,1.151,1.151,0,0,1-.276.283c-.017-.006-.393-.236-.835-.515S132.768,194.541,132.76,194.541Z" transform="translate(-72.321 -78.73)"/>
      </g>
      <g id="Grupo_1101303" data-name="Grupo 1101303" transform="translate(646.349 869.621)">
        <g id="Grupo_1101266-4" data-name="Grupo 1101266" transform="translate(0 0)">
          <g id="Grupo_1101265-3" data-name="Grupo 1101265" transform="translate(0 0)" clip-path="url(#clip-path-9)">
            <rect id="Rectángulo_403015-4" data-name="Rectángulo 403015" width="297.033" height="297.034" transform="translate(-49.122 208.117) rotate(-60)" fill="#d2e1f1"/>
          </g>
        </g>
        <g id="Grupo_1101268-4" data-name="Grupo 1101268" transform="translate(45.034 45.035)">
          <g id="Grupo_1101267-4" data-name="Grupo 1101267" transform="translate(0 0)" clip-path="url(#clip-path-10)">
            <path id="Trazado_912104-4" data-name="Trazado 912104" d="M124.693,222.214A97.521,97.521,0,0,1,55.735,55.735,97.521,97.521,0,1,1,193.651,193.651a96.885,96.885,0,0,1-68.958,28.563m0-187.575a90.054,90.054,0,1,0,63.678,26.376,89.465,89.465,0,0,0-63.678-26.376" transform="translate(-15.971 -15.971)"/>
          </g>
        </g>
      </g>
      <g id="Grupo_1101286" data-name="Grupo 1101286" transform="translate(905.41 800.643)">
        <g id="Grupo_1101266-5" data-name="Grupo 1101266" transform="translate(0 0)">
          <g id="Grupo_1101265-4" data-name="Grupo 1101265" transform="translate(0 0)" clip-path="url(#clip-path-3)">
            <rect id="Rectángulo_403015-5" data-name="Rectángulo 403015" width="192.789" height="192.789" transform="translate(-31.882 135.078) rotate(-60)" fill="#f56364"/>
          </g>
        </g>
        <g id="Grupo_1101268-5" data-name="Grupo 1101268" transform="translate(29.23 29.23)">
          <g id="Grupo_1101267-5" data-name="Grupo 1101267" transform="translate(0 0)" clip-path="url(#clip-path-4)">
            <path id="Trazado_912104-5" data-name="Trazado 912104" d="M90.468,153.764a63.3,63.3,0,1,1,44.757-18.539,62.884,62.884,0,0,1-44.757,18.539m0-121.745A58.45,58.45,0,1,0,131.8,49.138a58.067,58.067,0,0,0-41.33-17.119" transform="translate(-19.902 -19.902)"/>
          </g>
        </g>
        <g id="Grupo_1101287" data-name="Grupo 1101287" transform="translate(68.113 60.275)">
          <g id="Grupo_1101260" data-name="Grupo 1101260" transform="translate(0 0)">
            <path id="Trazado_912099" data-name="Trazado 912099" d="M223.7,367.2h66.473" transform="translate(-223.7 -327.836)" stroke="#000" stroke-width="2"/>
            <path id="Trazado_912100" data-name="Trazado 912100" d="M281.038,252.053l7.8,5.624-7.413,3.57,9.976.9-2.685,3.57h5.508l.128,3.962-69.546-.379s11.63-3.447,13.545-2.041c2.558-1.151,21.228-9.077,21.228-8.557m-17.9-6.141.383-20.188-10.1-5.484a4.651,4.651,0,0,0-3.707-.383c-.768.255-1.789.511-1.789.511s5.508-4.6,6.52-4.217,8.182,3.834,8.182,3.834-.768-5.368-2.685-6.9-9.33-7.413-9.33-7.413V210.9l10.1,6.137s.383-5.879-1.655-9.33-3.569-6.52-3.569-6.52l.638-.511,4.988,7.669L241.3,203.1l1.024-.255s-1.279,7.413-.383,9.716,4.217,14.829,4.217,14.829l4.988-7.163a37.065,37.065,0,0,0-.128-4.988c-.255-2.045-.638-11.505-.638-11.505h.9l1.407,10.354,8.061-9.33v1.024s-7.922,9.976-7.539,12.15.766,3.451-.638,6.52-2.3,5.248-2.3,5.248,4.217-4.988,6.137-5.368c1.917-.128,4.47.128,6.26-1.407s6.137-6.383,6.137-6.383l-6.775,10.472s-3.194.128-4.47,1.534-6.52,7.413-6.52,7.413v13.805l8.69,4.345-10.607,1.534-2.558,3.707-3.451-2.941-9.6.883Z" transform="translate(-224.54 -200.68)" stroke="#000" stroke-width="2"/>
            <path id="Trazado_912101" data-name="Trazado 912101" d="M339.538,371.413c2.432-1.014,6.383-2.685,8.69-6.009,2.388-3.437,10.865-17.895,22.5-16.737a53.175,53.175,0,0,1-2.685,4.858l8.3-2.558s.128,10.992-15.595,18.013c-7.286,2.558-8.817,2.685-9.456,3.569s-3.57,5.368-3.57,5.368l-13.035-5.744a19.212,19.212,0,0,0,4.848-.76Z" transform="translate(-308.453 -313.634)" fill="#f56364" stroke="#000" stroke-width="2"/>
          </g>
          <ellipse id="Elipse_11515" data-name="Elipse 11515" cx="1.407" cy="1.213" rx="1.407" ry="1.213" transform="translate(60.197 44.31)"/>
        </g>
      </g>
      <g id="Grupo_1101273" data-name="Grupo 1101273" transform="translate(966.582 1028.748)">
        <g id="Grupo_1101270" data-name="Grupo 1101270" transform="translate(0 0)">
          <g id="Grupo_1101269" data-name="Grupo 1101269" clip-path="url(#clip-path-13)">
            <rect id="Rectángulo_403017" data-name="Rectángulo 403017" width="189.082" height="189.082" transform="matrix(0.5, -0.866, 0.866, 0.5, -59.937, 103.813)" fill="#f56364"/>
          </g>
        </g>
        <g id="Grupo_1101272" data-name="Grupo 1101272" transform="translate(0 0)">
          <g id="Grupo_1101271" data-name="Grupo 1101271" clip-path="url(#clip-path-14)">
            <path id="Trazado_912111" data-name="Trazado 912111" d="M89.251,151.33a62.079,62.079,0,1,1,43.9-18.182,61.675,61.675,0,0,1-43.9,18.182m0-119.4a57.326,57.326,0,1,0,40.535,16.79,56.951,56.951,0,0,0-40.535-16.79" transform="translate(-20.042 -20.042)"/>
            <path id="Trazado_912112" data-name="Trazado 912112" d="M303.211,142.807h34.374A50.757,50.757,0,0,0,312.2,98.825L295.01,128.6a16.4,16.4,0,0,1,8.2,14.207" transform="translate(-217.599 -72.893)"/>
            <path id="Trazado_912113" data-name="Trazado 912113" d="M192.374,322.778a16.323,16.323,0,0,1-8.2-2.2l-17.191,29.774a50.84,50.84,0,0,0,50.786,0l-17.191-29.774a16.323,16.323,0,0,1-8.2,2.2" transform="translate(-123.165 -236.461)"/>
            <path id="Trazado_912114" data-name="Trazado 912114" d="M112.815,128.6,95.625,98.825A50.758,50.758,0,0,0,70.24,142.807h34.374a16.4,16.4,0,0,1,8.2-14.207" transform="translate(-51.809 -72.893)"/>
            <path id="Trazado_912115" data-name="Trazado 912115" d="M215.876,231.125a12.563,12.563,0,1,0,12.563-12.563,12.563,12.563,0,0,0-12.563,12.563" transform="translate(-159.23 -161.211)"/>
          </g>
        </g>
      </g>
      <g id="Grupo_1101278" data-name="Grupo 1101278" transform="translate(631.058 1177.133)">
        <g id="Grupo_1101275" data-name="Grupo 1101275" transform="translate(0 0.001)">
          <g id="Grupo_1101274" data-name="Grupo 1101274" clip-path="url(#clip-path-15)">
            <rect id="Rectángulo_403019" data-name="Rectángulo 403019" width="189.798" height="189.798" transform="translate(-60.164 104.206) rotate(-60)" fill="#f56364"/>
          </g>
        </g>
        <g id="Grupo_1101277" data-name="Grupo 1101277" transform="translate(0 0)">
          <g id="Grupo_1101276" data-name="Grupo 1101276" clip-path="url(#clip-path-16)">
            <path id="Trazado_912116" data-name="Trazado 912116" d="M89.486,151.8a62.314,62.314,0,1,1,44.063-18.251A61.907,61.907,0,0,1,89.486,151.8m0-119.856A57.543,57.543,0,1,0,130.175,48.8,57.165,57.165,0,0,0,89.486,31.943" transform="translate(-20.015 -20.015)"/>
            <path id="Trazado_912117" data-name="Trazado 912117" d="M223.637,94.192a27.706,27.706,0,0,0,.48-10.494c-1.941-9.917-12.426-13.42-20.927-13.3-8.5-.116-18.987,3.388-20.927,13.3a27.713,27.713,0,0,0,.48,10.494c.332,1.738.616,3.511,1.013,5.232.409,1.772,1.066,3.5.5,5.331-.327,1.049-.9,1.866-.645,3.027a6.019,6.019,0,0,0,.894,1.927,6.786,6.786,0,0,0,2,2.224,10.245,10.245,0,0,0,2.852.7,4.087,4.087,0,0,1,2.968,3.129c.145.792.045,1.617.2,2.408a5.309,5.309,0,0,0,3,3.507,15.709,15.709,0,0,0,15.353,0,5.309,5.309,0,0,0,3-3.507c.152-.79.051-1.616.2-2.408a4.088,4.088,0,0,1,2.968-3.129,10.245,10.245,0,0,0,2.852-.7,6.79,6.79,0,0,0,2-2.224,6.019,6.019,0,0,0,.894-1.927c.259-1.162-.319-1.979-.645-3.027-.571-1.833.086-3.559.5-5.331.4-1.721.681-3.494,1.013-5.232m-32.314,8.5a5.972,5.972,0,0,1-3.958-1.334,4.579,4.579,0,0,1-1.211-3.876c.445-3.223,3.594-5.524,6.47-6.014a8.054,8.054,0,0,1,5.22.885c2.1,1.238,2.642,3.474,2.441,5.875a5.02,5.02,0,0,1-.579,2.209,4.653,4.653,0,0,1-3.143,1.807,19.9,19.9,0,0,1-5.239.448m11.454,2.884c-.218.778-.724,1.3-.6,2.192a10.12,10.12,0,0,1,.379,1.789,2.554,2.554,0,0,1-.188.779,2.519,2.519,0,0,1-.85,1.245,1.435,1.435,0,0,1-1.338.09,3.61,3.61,0,0,1-1.875-3.217c-.091-2.376,1.841-4.284,3.354-5.517.645-.526.975-.041,1.119.663a5.34,5.34,0,0,1,0,1.977m5.3,2.878a3.61,3.61,0,0,1-1.875,3.217,1.435,1.435,0,0,1-1.338-.09,2.517,2.517,0,0,1-.849-1.245,2.546,2.546,0,0,1-.189-.779,10.123,10.123,0,0,1,.379-1.789c.12-.89-.386-1.413-.6-2.192a5.335,5.335,0,0,1,0-1.977c.144-.7.474-1.189,1.119-.663,1.513,1.234,3.445,3.142,3.354,5.517m10.937-7.1a5.971,5.971,0,0,1-3.958,1.334,19.9,19.9,0,0,1-5.239-.448,4.653,4.653,0,0,1-3.143-1.807,5.021,5.021,0,0,1-.579-2.209c-.2-2.4.338-4.637,2.441-5.875a8.054,8.054,0,0,1,5.22-.885c2.876.49,6.024,2.791,6.47,6.014a4.578,4.578,0,0,1-1.211,3.876" transform="translate(-134.017 -51.85)"/>
            <path id="Trazado_912118" data-name="Trazado 912118" d="M185.113,266.43l3.316-.987a3.307,3.307,0,1,0-1.887-6.338l-4.754,1.415a3.29,3.29,0,0,0-.425.161l-59.248-32.061a3.266,3.266,0,0,0-.1-.444l-1.415-4.754a3.307,3.307,0,0,0-6.339,1.887l.987,3.316-3.316.987a3.307,3.307,0,0,0,1.887,6.339l4.754-1.415.06-.021,59.7,32.3c.006.02.01.041.016.061l1.415,4.754a3.307,3.307,0,0,0,6.339-1.888Z" transform="translate(-80.711 -162.833)"/>
            <path id="Trazado_912119" data-name="Trazado 912119" d="M115.1,266.573l-3.314-1a3.307,3.307,0,0,1,1.9-6.334l4.75,1.427a3.29,3.29,0,0,1,.425.162l59.328-31.912a3.291,3.291,0,0,1,.1-.444l1.427-4.75a3.307,3.307,0,1,1,6.334,1.9l-1,3.314,3.314,1a3.307,3.307,0,1,1-1.9,6.334l-4.75-1.427-.06-.021-59.776,32.153c-.006.02-.01.041-.016.061l-1.428,4.751a3.307,3.307,0,1,1-6.334-1.9Z" transform="translate(-80.608 -163.064)"/>
          </g>
        </g>
      </g>
      <g id="Grupo_1101279" data-name="Grupo 1101279" transform="translate(835.852 1175.175)">
        <g id="Grupo_1101275-2" data-name="Grupo 1101275" transform="translate(0 0)">
          <g id="Grupo_1101274-2" data-name="Grupo 1101274" clip-path="url(#clip-path-15)">
            <rect id="Rectángulo_403019-2" data-name="Rectángulo 403019" width="189.798" height="189.798" transform="translate(-60.164 104.206) rotate(-60)" fill="#f56364"/>
          </g>
        </g>
        <g id="Grupo_1101277-2" data-name="Grupo 1101277" transform="translate(0 0)">
          <g id="Grupo_1101276-2" data-name="Grupo 1101276" clip-path="url(#clip-path-16)">
            <path id="Trazado_912116-2" data-name="Trazado 912116" d="M89.486,151.8a62.314,62.314,0,1,1,44.063-18.251A61.907,61.907,0,0,1,89.486,151.8m0-119.856A57.543,57.543,0,1,0,130.175,48.8,57.165,57.165,0,0,0,89.486,31.943" transform="translate(-20.015 -20.015)"/>
            <g id="Grupo_1101280" data-name="Grupo 1101280" transform="translate(40.314 22.717)">
              <g id="Grupo_1101261" data-name="Grupo 1101261" transform="translate(0 0)" clip-path="url(#clip-path-19)">
                <path id="Trazado_912102" data-name="Trazado 912102" d="M49.765,32.664a10.71,10.71,0,0,1-6.5,11.3.206.206,0,0,1-.276-.256C44.184,40.24,51.27,16.4,26.77.035a.206.206,0,0,0-.3.261C33.135,14.346,15.687,24.3,8.848,36.076c-5.3,9.124-2.907,16.589-1.806,19.1a.206.206,0,0,1-.333.23C5.442,54.15,3,51.041,2.208,45.142a.207.207,0,0,0-.4-.045c-5.5,14.948,2.12,33.3,15.071,38.958a.206.206,0,0,0,.226-.336c-3.136-3.091-5.474-11.652.5-17.6a.206.206,0,0,1,.352.121c.658,5.932,4.878,7.408,6.83,7.312a.206.206,0,0,0,.136-.346c-6.974-7.634-5.719-17.07-3.5-22.289A24.683,24.683,0,0,1,32.094,38.8a.206.206,0,0,1,.268.3c-3.973,5.916-3.607,16,3.429,21.439,5.383,4.16,8.959,8.1,9.337,14.165.228,3.656-.678,6.374-2.7,8.341a.206.206,0,0,0,.248.325C53.5,76.81,67.464,57.33,50.141,32.529a.206.206,0,0,0-.375.135" transform="translate(0 0.001)"/>
              </g>
            </g>
          </g>
        </g>
      </g>
      <g id="Grupo_1101298" data-name="Grupo 1101298" transform="translate(742.51 960.456)">
        <path id="Trazado_912121" data-name="Trazado 912121" d="M246.651,144.052l.34.005.349-.005Z" transform="translate(-189.049 -110.41)"/>
        <g id="Grupo_1101297" data-name="Grupo 1101297">
          <g id="Grupo_1101296" data-name="Grupo 1101296" clip-path="url(#clip-path-20)">
            <path id="Trazado_912122" data-name="Trazado 912122" d="M113.035,55.086a7.482,7.482,0,0,0-6.392-2.054.739.739,0,0,1-.812-.778,71.049,71.049,0,0,0-.259-12.061c-1.384-12.756-6.315-23.213-14.258-30.24C90.852,9.551,80.106.4,57.621,0h-.053C35.083.4,24.337,9.551,23.875,9.953,15.931,16.981,11,27.437,9.617,40.194a71.127,71.127,0,0,0-.26,12.061.739.739,0,0,1-.812.778,7.48,7.48,0,0,0-6.391,2.054c-4.844,5.053-.147,16.831.866,19.189,3.562,8.551,12.109,15.532,14.822,17.6-.03,8.487,6.518,17.1,8.964,20.02a3.88,3.88,0,0,1,.907,2.494v8.833a.329.329,0,0,0,.486.291c4-2.17,31.958-16.223,58.725-.036a.329.329,0,0,0,.5-.28v-8.834A3.881,3.881,0,0,1,88.3,111.9c2.359-2.885,8.664-11.381,8.747-19.8,2.313-1.728,11.414-8.925,15.121-17.821,1.013-2.358,5.71-14.136.866-19.189M25.467,57.658c0-6.626,6-12,13.4-12s13.4,5.371,13.4,12-6,12-13.4,12-13.4-5.371-13.4-12m59.751,49.206-.02.028a1.859,1.859,0,0,1-2.506.514,47.19,47.19,0,0,0-36.242-6.1,53.906,53.906,0,0,0-15.16,5.94,1.853,1.853,0,0,1-2.434-.494l-.023-.03a1.773,1.773,0,0,1,.544-2.584,57.291,57.291,0,0,1,16.241-6.366,51.561,51.561,0,0,1,39.061,6.57,1.771,1.771,0,0,1,.539,2.519M76.294,70.213c-7.4,0-13.4-5.371-13.4-12s6-12,13.4-12,13.4,5.37,13.4,12-6,12-13.4,12m30.741,1.875-.013.03c-2.2,5.291-6.923,10.08-10.212,12.968a3.976,3.976,0,0,0-.3-.867,6.488,6.488,0,0,1-.6-2.688V42.592s1.214-7.859-27.7-8.788l-10.275-.156L47.408,33.8c-29.638.929-28.4,8.788-28.4,8.788v38.93a6.385,6.385,0,0,1-.616,2.7,4.518,4.518,0,0,0-.254.659c-3.275-2.907-7.828-7.593-9.977-12.76l-.013-.03C6.023,67.12,4.689,60.5,6.182,58.947c.515-.536,2.225-.667,5.482.575l1.065.405A2.142,2.142,0,0,0,15.6,57.558l-.2-1.124a62.741,62.741,0,0,1-.226-15.789c1.27-11.433,5.433-20.347,12.374-26.5.3-.252,10.023-8.192,30.04-8.566,20.017.374,29.738,8.313,30.04,8.566,6.941,6.149,11.1,15.064,12.374,26.5a62.741,62.741,0,0,1-.226,15.789l-.2,1.124a2.142,2.142,0,0,0,2.873,2.369l1.065-.405c3.256-1.242,4.967-1.111,5.481-.575,1.492,1.555.159,8.173-1.971,13.141" transform="translate(0)"/>
            <path id="Trazado_912123" data-name="Trazado 912123" d="M149.682,508.517c-16.522,0-29.917,5.089-29.917,11.369s13.395,11.368,29.917,11.368,29.913-5.089,29.913-11.368-13.394-11.369-29.913-11.369M162.7,516.1c1.682,0,3.046.748,3.046,1.671s-1.364,1.674-3.046,1.674-3.049-.751-3.049-1.674,1.364-1.671,3.049-1.671m-12.627-6.032c1.4,0,2.53.5,2.53,1.108s-1.133,1.107-2.53,1.107-2.53-.494-2.53-1.107,1.133-1.108,2.53-1.108m-10.976,7.167c0,.862-1.269,1.557-2.834,1.557s-2.837-.695-2.837-1.557,1.27-1.554,2.837-1.554,2.834.695,2.834,1.554m-13.252,3.836c-1.8,0-3.253-.747-3.253-1.674s1.456-1.671,3.253-1.671,3.256.748,3.256,1.671-1.457,1.674-3.256,1.674m7.07-9.064c1.565,0,2.834.7,2.834,1.557s-1.27,1.557-2.834,1.557-2.838-.7-2.838-1.557S131.343,512,132.911,512m-.235,16.321a2.189,2.189,0,1,1,2.53-2.163,2.368,2.368,0,0,1-2.53,2.163m3.953-5.3c-1.8,0-3.256-.748-3.256-1.674s1.459-1.671,3.256-1.671,3.256.748,3.256,1.671-1.459,1.674-3.256,1.674m7.929-10.786c2.2,0,3.976.781,3.976,1.744s-1.78,1.741-3.976,1.741-3.976-.778-3.976-1.741,1.78-1.744,3.976-1.744m-1.046,13.947c-1.568,0-2.837-.695-2.837-1.557s1.269-1.554,2.837-1.554,2.835.7,2.835,1.554-1.27,1.557-2.835,1.557m5.187-8.506c1.024,0,1.855.605,1.855,1.35s-.831,1.348-1.855,1.348-1.858-.6-1.858-1.348.831-1.35,1.858-1.35m.045,12.742c-1.024,0-1.858-.6-1.858-1.347s.834-1.35,1.858-1.35,1.858.605,1.858,1.35-.832,1.347-1.858,1.347m5.51-4.185c-1.4,0-2.53-.823-2.53-1.836s1.133-1.839,2.53-1.839,2.53.823,2.53,1.839-1.133,1.836-2.53,1.836m.976-10.183c-1.875,0-3.395-.792-3.395-1.766s1.52-1.769,3.395-1.769,3.393.792,3.393,1.769-1.518,1.766-3.393,1.766m3.094,6c0-.848,1.058-1.534,2.361-1.534s2.357.687,2.357,1.534-1.057,1.535-2.357,1.535-2.361-.686-2.361-1.535m5.879,6.322c-1.565,0-2.835-.7-2.835-1.557s1.269-1.557,2.835-1.557,2.837.7,2.837,1.557-1.269,1.557-2.837,1.557m2.631-13.208c-1.682,0-3.049-.748-3.049-1.671s1.367-1.674,3.049-1.674,3.05.751,3.05,1.674-1.367,1.671-3.05,1.671m5.87,6.141c-1.443,0-2.614-.862-2.614-1.928s1.172-1.93,2.614-1.93,2.614.865,2.614,1.93-1.172,1.928-2.614,1.928" transform="translate(-91.795 -389.759)"/>
          </g>
        </g>
      </g>
    </g>
  </g>
</svg>
