<svg xmlns="http://www.w3.org/2000/svg" xmlns:xlink="http://www.w3.org/1999/xlink" width="1330" height="635" viewBox="0 0 1330 635">
  <defs>
    <linearGradient id="linear-gradient" x1="0.5" x2="0.5" y2="1" gradientUnits="objectBoundingBox">
      <stop offset="0" stop-color="#7ad8ec" stop-opacity="0"/>
      <stop offset="0.238" stop-color="#7ad8ec" stop-opacity="0.502"/>
      <stop offset="0.737" stop-color="#7ad8ec" stop-opacity="0.502"/>
      <stop offset="1" stop-color="#7ad8ec" stop-opacity="0"/>
    </linearGradient>
    <clipPath id="clip-path">
      <path id="Trazado_913772" data-name="Trazado 913772" d="M111.128,250.755a281.9,281.9,0,0,1-36.36-48.166A275.241,275.241,0,0,1,37.086,89.318L0,92.987,87.24,0,191.007,74.092l-34.645,3.427A155.234,155.234,0,0,0,177.649,141.1a161.972,161.972,0,0,0,20.7,27.452,157.234,157.234,0,0,0,26.159,22.271l-67.429,99.084a276.9,276.9,0,0,1-45.955-39.156" fill="#7ad8ec"/>
    </clipPath>
    <clipPath id="clip-path-2">
      <path id="Trazado_913773" data-name="Trazado 913773" d="M0,27.686A278.683,278.683,0,0,1,56.965,7.365,274.666,274.666,0,0,1,116.978.024,279.524,279.524,0,0,1,234.561,24.261l-49.11,109.328a159.706,159.706,0,0,0-66.9-13.723,154.993,154.993,0,0,0-34.016,4.139,158.917,158.917,0,0,0-32.248,11.526Z" transform="translate(0 0)" fill="#c44f50"/>
    </clipPath>
    <clipPath id="clip-path-3">
      <path id="Trazado_913774" data-name="Trazado 913774" d="M0,111.27,49.11,1.94a159.616,159.616,0,0,0,66.9,13.725,155.1,155.1,0,0,0,34.016-4.139A158.955,158.955,0,0,0,182.273,0l52.29,107.845A278.736,278.736,0,0,1,177.6,128.164a274.793,274.793,0,0,1-60.013,7.345c-1.222.016-2.437.024-3.659.024A279.562,279.562,0,0,1,0,111.27" fill="#62adbd"/>
    </clipPath>
    <clipPath id="clip-path-4">
      <path id="Trazado_913775" data-name="Trazado 913775" d="M0,116.306A158.294,158.294,0,0,0,45.443,65.323,158.21,158.21,0,0,0,65.008,0L184.544,8.745a278.256,278.256,0,0,1-34.5,115.089,278.115,278.115,0,0,1-79.861,89.627Z" fill="#31565e"/>
    </clipPath>
    <clipPath id="clip-path-5">
      <path id="Trazado_913776" data-name="Trazado 913776" d="M46.863,148.807a161.994,161.994,0,0,0-20.7-27.45A156.977,156.977,0,0,0,0,99.086L67.431,0a276.622,276.622,0,0,1,45.953,39.158,281.546,281.546,0,0,1,36.36,48.166,275.24,275.24,0,0,1,37.78,114.112L68.274,213.445a155.3,155.3,0,0,0-21.41-64.639" transform="translate(0 0)" fill="#933c3c"/>
    </clipPath>
    <clipPath id="clip-path-6">
      <path id="Trazado_913777" data-name="Trazado 913777" d="M34.192,89.625A278.11,278.11,0,0,1,114.053,0l70.184,97.154A157.277,157.277,0,0,0,120.8,200.045l-71.7-51.2L0,201.186A278.278,278.278,0,0,1,34.192,89.625" transform="translate(0 0)" fill="#f56364"/>
    </clipPath>
    <clipPath id="clip-path-7">
      <rect id="Rectángulo_403770" data-name="Rectángulo 403770" width="228.971" height="228.959" fill="none"/>
    </clipPath>
    <clipPath id="clip-path-8">
      <rect id="Rectángulo_403766" data-name="Rectángulo 403766" width="135.021" height="45.454" fill="#62adbd"/>
    </clipPath>
  </defs>
  <g id="Grupo_1102686" data-name="Grupo 1102686" transform="translate(-135 -749.605)">
    <rect id="Rectángulo_403736" data-name="Rectángulo 403736" width="1330" height="635" transform="translate(135 749.605)" opacity="0.3" fill="url(#linear-gradient)"/>
    <g id="Grupo_1102354" data-name="Grupo 1102354">
      <g id="Grupo_1102105" data-name="Grupo 1102105" transform="translate(1068.043 758.7) rotate(90)">
        <g id="Grupo_1102086" data-name="Grupo 1102086" transform="translate(0 216.994)">
          <g id="Grupo_1102085" data-name="Grupo 1102085" clip-path="url(#clip-path)">
            <rect id="Rectángulo_403725" data-name="Rectángulo 403725" width="224.513" height="289.911" transform="translate(0 0)" fill="#7ad8ec"/>
          </g>
        </g>
        <g id="Grupo_1102088" data-name="Grupo 1102088" transform="translate(192.148 0)">
          <g id="Grupo_1102087" data-name="Grupo 1102087" clip-path="url(#clip-path-2)">
            <rect id="Rectángulo_403726" data-name="Rectángulo 403726" width="234.561" height="136.039" transform="translate(0 -0.508)" fill="#c44f50"/>
          </g>
        </g>
        <g id="Grupo_1102090" data-name="Grupo 1102090" transform="translate(199.311 419.313)">
          <g id="Grupo_1102089" data-name="Grupo 1102089" transform="translate(0 0)" clip-path="url(#clip-path-3)">
            <rect id="Rectángulo_403727" data-name="Rectángulo 403727" width="234.563" height="135.533" transform="translate(0 0)" fill="#62adbd"/>
          </g>
        </g>
        <g id="Grupo_1102092" data-name="Grupo 1102092" transform="translate(405.2 288.924)">
          <g id="Grupo_1102091" data-name="Grupo 1102091" transform="translate(0 0)" clip-path="url(#clip-path-4)">
            <rect id="Rectángulo_403728" data-name="Rectángulo 403728" width="184.544" height="213.461" transform="translate(0 0)" fill="#31565e"/>
          </g>
        </g>
        <g id="Grupo_1102094" data-name="Grupo 1102094" transform="translate(401.507 47.94)">
          <g id="Grupo_1102093" data-name="Grupo 1102093" transform="translate(0 0)" clip-path="url(#clip-path-5)">
            <rect id="Rectángulo_403729" data-name="Rectángulo 403729" width="187.524" height="213.445" transform="translate(0 0)" fill="#933c3c"/>
          </g>
        </g>
        <g id="Grupo_1102096" data-name="Grupo 1102096" transform="translate(36.585 52.461)">
          <g id="Grupo_1102095" data-name="Grupo 1102095" clip-path="url(#clip-path-6)">
            <rect id="Rectángulo_403730" data-name="Rectángulo 403730" width="184.237" height="201.186" transform="translate(0 0)" fill="#f56364"/>
          </g>
        </g>
      </g>
      <g id="Grupo_1102115" data-name="Grupo 1102115" transform="translate(676.135 961.897)">
        <g id="Grupo_1102114" data-name="Grupo 1102114" clip-path="url(#clip-path-7)">
          <path id="Trazado_913778" data-name="Trazado 913778" d="M228.971,114.207a113.852,113.852,0,0,1-5.407,34.779q-.633,1.973-1.338,3.919c-.267.754-.549,1.505-.836,2.254a114.539,114.539,0,0,1-97.69,72.889q-4.56.363-9.214.366t-9.214-.366A114.539,114.539,0,0,1,7.581,155.158c-.287-.748-.568-1.5-.836-2.254q-.708-1.944-1.338-3.919A113.848,113.848,0,0,1,0,114.207C0,51.132,51.256,0,114.485,0S228.971,51.132,228.971,114.207" fill="#d2e1f1"/>
          <path id="Trazado_913779" data-name="Trazado 913779" d="M264.3,1222.388c-.268.759-.55,1.516-.837,2.269a114.761,114.761,0,0,1-97.813,73.383q-4.566.366-9.226.369t-9.226-.369a114.761,114.761,0,0,1-97.814-73.383c-.287-.753-.569-1.51-.837-2.269Z" transform="translate(-42.475 -1069.45)" fill="#62adbd"/>
          <rect id="Rectángulo_403742" data-name="Rectángulo 403742" width="59.801" height="89.491" transform="translate(109.551 75.189)" fill="#622728"/>
          <path id="Trazado_913780" data-name="Trazado 913780" d="M926.406,532.15c0,4.595-14.06,8.319-31.4,8.319s-31.4-3.725-31.4-8.319,14.06-8.319,31.4-8.319,31.4,3.725,31.4,8.319" transform="translate(-755.551 -458.292)" fill="#fff3d3"/>
          <path id="Trazado_913781" data-name="Trazado 913781" d="M1197.836,575.465c0,1.174-3.591,2.125-8.021,2.125s-8.021-.951-8.021-2.125,3.591-2.125,8.021-2.125,8.021.951,8.021,2.125" transform="translate(-1033.934 -501.607)" fill="#933c3c"/>
          <path id="Trazado_913782" data-name="Trazado 913782" d="M916.566,581.3c0,.713-2.182,1.291-4.874,1.291s-4.874-.578-4.874-1.291S909,580,911.692,580s4.874.578,4.874,1.291" transform="translate(-793.362 -507.437)" fill="#933c3c"/>
          <path id="Trazado_913783" data-name="Trazado 913783" d="M894.128,539.719a90.85,90.85,0,0,1-22.238-2.441c-5.991-1.587-9.291-3.719-9.291-6s3.3-4.416,9.291-6a102.519,102.519,0,0,1,44.475,0c5.991,1.587,9.291,3.719,9.291,6s-3.3,4.416-9.291,6a90.85,90.85,0,0,1-22.238,2.441m0-16.638a90.6,90.6,0,0,0-22.174,2.432c-5.786,1.533-9.1,3.633-9.1,5.762s3.319,4.229,9.1,5.762a102.285,102.285,0,0,0,44.347,0c5.786-1.533,9.1-3.633,9.1-5.762s-3.319-4.229-9.1-5.762a90.6,90.6,0,0,0-22.174-2.432" transform="translate(-754.676 -457.417)" fill="#363e44"/>
          <path id="Trazado_913784" data-name="Trazado 913784" d="M904.631,783.318c-13.723,0-25.771-2.33-29.981-5.8a.125.125,0,1,1,.159-.193c4.169,3.434,16.153,5.741,29.822,5.741a98.861,98.861,0,0,0,18.765-1.65c5.257-1.042,9.215-2.521,11.146-4.165a.125.125,0,1,1,.162.191c-4.126,3.514-16.211,5.875-30.073,5.875" transform="translate(-765.179 -679.981)" fill="#363e44"/>
          <path id="Trazado_913785" data-name="Trazado 913785" d="M904.631,1100.89c-13.723,0-25.771-2.33-29.981-5.8a.125.125,0,1,1,.159-.193c4.169,3.434,16.153,5.741,29.822,5.741a98.871,98.871,0,0,0,18.765-1.65c5.257-1.042,9.215-2.521,11.146-4.165a.125.125,0,1,1,.162.19c-4.126,3.514-16.211,5.875-30.073,5.875" transform="translate(-765.179 -957.82)" fill="#363e44"/>
          <path id="Trazado_913786" data-name="Trazado 913786" d="M1069.724,1021.876a7.749,7.749,0,0,1-2.158-.307l-3.3,11.37h11.68l-3.366-11.61a7.73,7.73,0,0,1-2.86.547" transform="translate(-931.115 -893.546)" fill="#fff3d3"/>
          <path id="Trazado_913787" data-name="Trazado 913787" d="M970.094,853.291l-8.543-8.841-5.84,10.073L967.3,857.38a7.7,7.7,0,0,1,2.792-4.088" transform="translate(-836.138 -738.797)" fill="#fff3d3"/>
          <path id="Trazado_913788" data-name="Trazado 913788" d="M1150.16,857.921l12.257-2.732-5.612-10.2-9.131,9.035a7.691,7.691,0,0,1,2.485,3.9" transform="translate(-1004.085 -739.268)" fill="#fff3d3"/>
          <path id="Trazado_913789" data-name="Trazado 913789" d="M1078.016,929.516a4.981,4.981,0,1,1-4.981-4.96,4.971,4.971,0,0,1,4.981,4.96" transform="translate(-934.425 -808.881)" fill="#fff3d3"/>
          <rect id="Rectángulo_403743" data-name="Rectángulo 403743" width="59.801" height="89.491" transform="translate(163.479 85.159)" fill="#933c3c"/>
          <path id="Trazado_913790" data-name="Trazado 913790" d="M1357.435,611.835c0,4.595-14.06,8.319-31.4,8.319s-31.4-3.725-31.4-8.319,14.06-8.319,31.4-8.319,31.4,3.725,31.4,8.319" transform="translate(-1132.652 -528.008)" fill="#fff3d3"/>
          <path id="Trazado_913791" data-name="Trazado 913791" d="M1628.866,655.151c0,1.174-3.591,2.125-8.021,2.125s-8.021-.951-8.021-2.125,3.591-2.125,8.021-2.125,8.021.951,8.021,2.125" transform="translate(-1411.036 -571.323)" fill="#933c3c"/>
          <path id="Trazado_913792" data-name="Trazado 913792" d="M1347.6,660.98c0,.713-2.182,1.291-4.874,1.291s-4.874-.578-4.874-1.291,2.182-1.291,4.874-1.291,4.874.578,4.874,1.291" transform="translate(-1170.464 -577.153)" fill="#933c3c"/>
          <path id="Trazado_913793" data-name="Trazado 913793" d="M1325.157,619.406a90.849,90.849,0,0,1-22.238-2.441c-5.991-1.587-9.291-3.719-9.291-6s3.3-4.416,9.291-6a102.522,102.522,0,0,1,44.475,0c5.991,1.587,9.291,3.719,9.291,6s-3.3,4.416-9.291,6a90.847,90.847,0,0,1-22.238,2.441m0-16.638a90.593,90.593,0,0,0-22.174,2.432c-5.786,1.533-9.1,3.633-9.1,5.762s3.318,4.229,9.1,5.762a102.287,102.287,0,0,0,44.347,0c5.786-1.533,9.1-3.633,9.1-5.762s-3.318-4.229-9.1-5.762a90.594,90.594,0,0,0-22.174-2.432" transform="translate(-1131.777 -527.134)" fill="#363e44"/>
          <path id="Trazado_913794" data-name="Trazado 913794" d="M1335.659,863c-13.723,0-25.771-2.33-29.981-5.8a.125.125,0,1,1,.159-.193c4.169,3.434,16.153,5.741,29.822,5.741a98.871,98.871,0,0,0,18.765-1.65c5.257-1.042,9.215-2.521,11.146-4.165a.125.125,0,1,1,.162.191c-4.126,3.514-16.211,5.875-30.073,5.875" transform="translate(-1142.28 -749.697)" fill="#363e44"/>
          <path id="Trazado_913795" data-name="Trazado 913795" d="M1335.659,1180.575c-13.723,0-25.771-2.33-29.981-5.8a.125.125,0,1,1,.159-.193c4.169,3.434,16.153,5.741,29.822,5.741a98.871,98.871,0,0,0,18.765-1.65c5.257-1.042,9.215-2.521,11.146-4.165a.125.125,0,1,1,.162.191c-4.126,3.514-16.211,5.875-30.073,5.875" transform="translate(-1142.28 -1027.536)" fill="#363e44"/>
          <path id="Trazado_913796" data-name="Trazado 913796" d="M1500.753,1101.562a7.749,7.749,0,0,1-2.158-.307l-3.3,11.37h11.68l-3.366-11.61a7.73,7.73,0,0,1-2.86.547" transform="translate(-1308.216 -963.263)" fill="#fff3d3"/>
          <path id="Trazado_913797" data-name="Trazado 913797" d="M1401.124,932.977l-8.543-8.841-5.84,10.074,11.591,2.856a7.7,7.7,0,0,1,2.792-4.088" transform="translate(-1213.24 -808.514)" fill="#fff3d3"/>
          <path id="Trazado_913798" data-name="Trazado 913798" d="M1581.189,937.606l12.257-2.732-5.612-10.2-9.131,9.035a7.692,7.692,0,0,1,2.485,3.9" transform="translate(-1381.186 -808.983)" fill="#fff3d3"/>
          <path id="Trazado_913799" data-name="Trazado 913799" d="M1509.045,1009.2a4.981,4.981,0,1,1-4.981-4.96,4.971,4.971,0,0,1,4.981,4.96" transform="translate(-1311.527 -878.597)" fill="#fff3d3"/>
          <path id="Trazado_913800" data-name="Trazado 913800" d="M42.018,515.784a.125.125,0,0,1-.125-.125v-6.053l-2.37-94.417H24.907l-2.37,94.42v6.05a.125.125,0,1,1-.25,0v-6.053l2.373-94.545a.125.125,0,0,1,.125-.122h14.86a.125.125,0,0,1,.125.122L42.144,509.6v6.056a.125.125,0,0,1-.125.125" transform="translate(-19.499 -363.024)" fill="#363e44"/>
          <path id="Trazado_913801" data-name="Trazado 913801" d="M48.892,384.63H31.579a.125.125,0,0,1-.125-.125v-3.013a.125.125,0,0,1,.125-.125H48.892a.125.125,0,0,1,.125.125v3.013a.125.125,0,0,1-.125.125M31.7,384.38H48.767v-2.763H31.7Z" transform="translate(-27.519 -333.653)" fill="#363e44"/>
          <path id="Trazado_913802" data-name="Trazado 913802" d="M224.627,515.784a.125.125,0,0,1-.125-.125v-6.053l-2.37-94.417H207.515l-2.37,94.42v6.05a.125.125,0,1,1-.25,0v-6.053l2.373-94.545a.125.125,0,0,1,.125-.122h14.86a.125.125,0,0,1,.125.122l2.373,94.542v6.056a.125.125,0,0,1-.125.125" transform="translate(-179.26 -363.024)" fill="#363e44"/>
          <path id="Trazado_913803" data-name="Trazado 913803" d="M231.5,384.63H214.187a.125.125,0,0,1-.125-.125v-3.013a.125.125,0,0,1,.125-.125H231.5a.125.125,0,0,1,.125.125v3.013a.125.125,0,0,1-.125.125m-17.187-.25h17.062v-2.763H214.312Z" transform="translate(-187.28 -333.653)" fill="#363e44"/>
          <rect id="Rectángulo_403744" data-name="Rectángulo 403744" width="39.821" height="63.891" transform="translate(30.255 89.049)" fill="#fff"/>
          <rect id="Rectángulo_403745" data-name="Rectángulo 403745" width="6.156" height="22.989" transform="translate(34.319 92.305)" fill="#31565e"/>
          <rect id="Rectángulo_403746" data-name="Rectángulo 403746" width="6.156" height="22.989" transform="translate(42.831 92.305)" fill="#31565e"/>
          <rect id="Rectángulo_403747" data-name="Rectángulo 403747" width="6.156" height="22.989" transform="translate(51.343 92.305)" fill="#31565e"/>
          <rect id="Rectángulo_403748" data-name="Rectángulo 403748" width="6.156" height="22.989" transform="translate(59.856 92.305)" fill="#31565e"/>
          <path id="Trazado_913804" data-name="Trazado 913804" d="M372.1,885.523h-2.4a.125.125,0,0,1-.125-.125V838.721a.125.125,0,0,1,.125-.125h53.8a.125.125,0,0,1,.125.125v7.184a.125.125,0,0,1-.125.125h-2.4a.125.125,0,0,1-.125-.125v-4.664h-20.7v4.664a.125.125,0,0,1-.125.125h-2.4a.125.125,0,0,1-.125-.125v-4.664h-25.38V885.4a.125.125,0,0,1-.125.125m-2.28-.25h2.155V841.116a.125.125,0,0,1,.125-.125h25.63a.125.125,0,0,1,.125.125v4.664h2.155v-4.664a.125.125,0,0,1,.125-.125h20.953a.125.125,0,0,1,.125.125v4.664h2.154v-6.934H369.823Z" transform="translate(-323.334 -733.676)" fill="#363e44"/>
          <path id="Trazado_913805" data-name="Trazado 913805" d="M544.974,889.36h0A8.46,8.46,0,0,0,536.5,897.8v30.256h16.956V897.8a8.46,8.46,0,0,0-8.478-8.443" transform="translate(-469.373 -778.089)" fill="#62adbd"/>
          <path id="Trazado_913806" data-name="Trazado 913806" d="M548.912,997.616H530.733a.125.125,0,0,1-.125-.125V994.9a.125.125,0,0,1,.125-.125h18.179a.125.125,0,0,1,.125.125v2.586a.125.125,0,0,1-.125.125m-18.054-.25h17.929v-2.336H530.858Z" transform="translate(-464.221 -870.318)" fill="#363e44"/>
          <path id="Trazado_913807" data-name="Trazado 913807" d="M548.912,1099.441H530.733a.125.125,0,0,1-.125-.125v-2.586a.125.125,0,0,1,.125-.125h18.179a.125.125,0,0,1,.125.125v2.586a.125.125,0,0,1-.125.125m-18.054-.25h17.929v-2.336H530.858Z" transform="translate(-464.221 -959.403)" fill="#363e44"/>
          <rect id="Rectángulo_403749" data-name="Rectángulo 403749" width="18.179" height="4.263" transform="translate(66.512 148.677)" fill="#31565e"/>
          <rect id="Rectángulo_403750" data-name="Rectángulo 403750" width="5.29" height="2.107" transform="translate(72.956 110.122)" fill="#fff"/>
          <path id="Trazado_913808" data-name="Trazado 913808" d="M731.666,889.36h0a8.46,8.46,0,0,0-8.478,8.443v30.256h16.956V897.8a8.46,8.46,0,0,0-8.478-8.443" transform="translate(-632.707 -778.089)" fill="#62adbd"/>
          <path id="Trazado_913809" data-name="Trazado 913809" d="M735.6,997.616H717.424a.125.125,0,0,1-.125-.125V994.9a.125.125,0,0,1,.125-.125H735.6a.125.125,0,0,1,.125.125v2.586a.125.125,0,0,1-.125.125m-18.054-.25h17.929v-2.336H717.549Z" transform="translate(-627.555 -870.318)" fill="#363e44"/>
          <path id="Trazado_913810" data-name="Trazado 913810" d="M735.6,1099.441H717.424a.125.125,0,0,1-.125-.125v-2.586a.125.125,0,0,1,.125-.125H735.6a.125.125,0,0,1,.125.125v2.586a.125.125,0,0,1-.125.125m-18.054-.25h17.929v-2.336H717.549Z" transform="translate(-627.555 -959.403)" fill="#363e44"/>
          <rect id="Rectángulo_403751" data-name="Rectángulo 403751" width="18.179" height="4.263" transform="translate(89.869 148.677)" fill="#d3bba3"/>
          <rect id="Rectángulo_403752" data-name="Rectángulo 403752" width="5.29" height="2.107" transform="translate(96.314 110.122)" fill="#fff"/>
          <rect id="Rectángulo_403753" data-name="Rectángulo 403753" width="45.592" height="33.717" transform="translate(17.039 119.222)" fill="#31565e"/>
          <rect id="Rectángulo_403754" data-name="Rectángulo 403754" width="5.964" height="5.939" transform="translate(23.968 123.053)" fill="#fff"/>
          <rect id="Rectángulo_403755" data-name="Rectángulo 403755" width="5.964" height="5.939" transform="translate(32.558 123.053)" fill="#fff"/>
          <rect id="Rectángulo_403756" data-name="Rectángulo 403756" width="5.964" height="5.939" transform="translate(41.148 123.053)" fill="#fff"/>
          <rect id="Rectángulo_403757" data-name="Rectángulo 403757" width="5.964" height="5.939" transform="translate(49.738 123.053)" fill="#fff"/>
          <rect id="Rectángulo_403758" data-name="Rectángulo 403758" width="5.964" height="5.939" transform="translate(23.968 131.387)" fill="#fff"/>
          <rect id="Rectángulo_403759" data-name="Rectángulo 403759" width="5.964" height="5.939" transform="translate(32.558 131.387)" fill="#fff"/>
          <rect id="Rectángulo_403760" data-name="Rectángulo 403760" width="5.964" height="5.939" transform="translate(41.148 131.387)" fill="#fff"/>
          <rect id="Rectángulo_403761" data-name="Rectángulo 403761" width="5.964" height="5.939" transform="translate(49.738 131.387)" fill="#fff"/>
          <rect id="Rectángulo_403762" data-name="Rectángulo 403762" width="5.964" height="5.939" transform="translate(23.968 139.721)" fill="#fff"/>
          <rect id="Rectángulo_403763" data-name="Rectángulo 403763" width="5.964" height="5.939" transform="translate(32.558 139.721)" fill="#fff"/>
          <rect id="Rectángulo_403764" data-name="Rectángulo 403764" width="5.964" height="5.939" transform="translate(41.148 139.721)" fill="#fff"/>
          <rect id="Rectángulo_403765" data-name="Rectángulo 403765" width="5.964" height="5.939" transform="translate(49.738 139.721)" fill="#fff"/>
          <g id="Grupo_1102113" data-name="Grupo 1102113" transform="translate(6.382 2.793)" opacity="0.3">
            <g id="Grupo_1102112" data-name="Grupo 1102112">
              <g id="Grupo_1102111" data-name="Grupo 1102111" clip-path="url(#clip-path-8)">
                <path id="Trazado_913811" data-name="Trazado 913811" d="M112.109,38.189c-2.754,6.028-27.979-13.2-39.447,9.032-4.6,8.929-12.588.1-17.379,5.009-1.929,1.975-5.011,7.419-4.113,15.022.054.46,9.7.418,9.726.114.24-2.5-.309-7.78,4.392-8.6C71.722,57.634,75.8,68.684,84.2,66.112c7.079-2.168,7.052-5.361,13.932-8.256,8.253-3.474,12.146,7.479,23.92,9.511,18.035,3.113,19.464-12.766,27.2-9.276,35.713,16.116,44.205-20.556,30.709-29.52-16.118-10.706-20.574,9.942-27.816,1.592-4.91-5.661-28.239-17.8-40.035,8.026" transform="translate(-51.01 -22.32)" fill="#62adbd"/>
              </g>
            </g>
          </g>
          <path id="Trazado_913812" data-name="Trazado 913812" d="M337.875,1359.281s20.13,6.753,13.161,20.818c-3.156,6.369-9.456-2.081-21.545,20.4-8.277,15.392-53.2,18.314-43.319,8.919,5.884-5.593-15.4-5.31-25.524-1.883s-22.184,5.632-33.488,2.986,7.1-8.087-3.606-10.425-17.9,6.749-30.633-1.05-11.052-13.114-3.4-16.916,42.232-1.929,35.591-5.349c-8.709-4.485-18.464-1.182-23.431-4.78s6.212-8.971,19.012-11.38c10.586-1.992,76.821-6.522,94.661-4.852s22.52,3.515,22.52,3.515" transform="translate(-160.596 -1185.824)" fill="#31565e"/>
          <path id="Trazado_913813" data-name="Trazado 913813" d="M1396.33,1491.268a.125.125,0,0,1-.032-.246c.008,0,.964-.3,3.055-2.851.992-1.211,2.639-1.709,4.382-2.237,2.143-.648,4.358-1.319,5.683-3.361a4.992,4.992,0,0,0-.71-6.494.125.125,0,0,1,.168-.185,5.32,5.32,0,0,1,.752,6.816c-1.375,2.119-3.635,2.8-5.821,3.464-1.706.516-3.318,1-4.261,2.156-2.163,2.641-3.144,2.924-3.184,2.935a.127.127,0,0,1-.032,0" transform="translate(-1221.52 -1291.21)" fill="#fff"/>
          <path id="Trazado_913814" data-name="Trazado 913814" d="M373,1600.448a.125.125,0,0,1-.115-.075,3.826,3.826,0,0,0-4.009-2.62,3.685,3.685,0,0,0-3.238,2.593.125.125,0,1,1-.246-.045,3.943,3.943,0,0,1,3.456-2.8,4.06,4.06,0,0,1,4.267,2.769.125.125,0,0,1-.065.164.122.122,0,0,1-.049.01" transform="translate(-319.678 -1397.609)" fill="#fff"/>
          <path id="Trazado_913815" data-name="Trazado 913815" d="M313.492,1648.614a.125.125,0,0,1-.115-.076,2.349,2.349,0,0,0-2.46-1.611,2.257,2.257,0,0,0-1.985,1.584.125.125,0,0,1-.246-.045,2.482,2.482,0,0,1,2.2-1.788,2.585,2.585,0,0,1,2.718,1.761.125.125,0,0,1-.115.175" transform="translate(-270.063 -1440.641)" fill="#fff"/>
          <path id="Trazado_913816" data-name="Trazado 913816" d="M209.791,1581.48a.125.125,0,0,1-.085-.033c-1.494-1.378-2.061-2.7-1.687-3.917,1.157-3.776,10.862-5.289,11.274-5.352a.125.125,0,0,1,.038.247c-.1.015-9.962,1.551-11.073,5.177-.344,1.122.2,2.353,1.617,3.66a.125.125,0,0,1-.085.217" transform="translate(-181.895 -1375.475)" fill="#fff"/>
          <path id="Trazado_913817" data-name="Trazado 913817" d="M998.108,1755.3c-2.289,0-3.5-.534-4.112-1.22a2.965,2.965,0,0,1-.239-3.134c-.213-2.812-6.783-3.126-6.85-3.129a.125.125,0,0,1,.011-.25c.282.012,6.912.33,7.091,3.4a.124.124,0,0,1-.013.064,2.8,2.8,0,0,0,.188,2.887c1.477,1.654,6.652,2.355,22.917-3.7a.125.125,0,0,1,.087.235c-9.827,3.661-15.657,4.855-19.079,4.855" transform="translate(-863.326 -1528.923)" fill="#fff"/>
          <rect id="Rectángulo_403767" data-name="Rectángulo 403767" width="89.863" height="59.157" transform="translate(79.942 146.353)" fill="#f56364"/>
          <path id="Trazado_913818" data-name="Trazado 913818" d="M569.852,1157.875c4.614,0,8.354,13.908,8.354,31.066s-3.74,31.065-8.354,31.065-8.354-13.908-8.354-31.065,3.74-31.066,8.354-31.066" transform="translate(-491.247 -1013.008)" fill="#fff3d3"/>
          <path id="Trazado_913819" data-name="Trazado 913819" d="M613.346,1212.855c1.178,0,2.134,3.553,2.134,7.935s-.955,7.935-2.134,7.935-2.134-3.553-2.134-7.935.955-7.935,2.134-7.935" transform="translate(-534.741 -1061.11)" fill="#933c3c"/>
          <path id="Trazado_913820" data-name="Trazado 913820" d="M619.2,1534.641c.716,0,1.3,2.159,1.3,4.822s-.581,4.821-1.3,4.821-1.3-2.159-1.3-4.821.581-4.822,1.3-4.822" transform="translate(-540.595 -1342.636)" fill="#933c3c"/>
          <path id="Trazado_913821" data-name="Trazado 913821" d="M568.976,1219.256c-2.293,0-4.434-3.264-6.028-9.192a99.947,99.947,0,0,1,0-44c1.594-5.927,3.735-9.192,6.028-9.192s4.434,3.264,6.028,9.192a99.949,99.949,0,0,1,0,44c-1.594,5.927-3.735,9.192-6.028,9.192m0-62.131c-2.138,0-4.247,3.283-5.786,9.006a99.708,99.708,0,0,0,0,43.868c1.539,5.724,3.648,9.006,5.786,9.006s4.247-3.283,5.786-9.006a99.7,99.7,0,0,0,0-43.868c-1.539-5.724-3.648-9.006-5.786-9.006" transform="translate(-490.371 -1012.134)" fill="#363e44"/>
          <path id="Trazado_913822" data-name="Trazado 913822" d="M816.147,1227.536a.125.125,0,0,1-.1-.205c3.448-4.123,5.765-15.978,5.765-29.5a96.378,96.378,0,0,0-1.657-18.562c-1.046-5.2-2.531-9.115-4.182-11.025a.125.125,0,1,1,.189-.164c3.529,4.082,5.9,16.038,5.9,29.751,0,13.575-2.34,25.495-5.823,29.66a.125.125,0,0,1-.1.045" transform="translate(-713.86 -1021.899)" fill="#363e44"/>
          <path id="Trazado_913823" data-name="Trazado 913823" d="M1135.037,1227.536a.124.124,0,0,1-.08-.029.126.126,0,0,1-.016-.177c3.448-4.123,5.765-15.978,5.765-29.5a96.378,96.378,0,0,0-1.657-18.562c-1.046-5.2-2.531-9.115-4.182-11.025a.125.125,0,1,1,.189-.164c3.529,4.082,5.9,16.038,5.9,29.751,0,13.575-2.34,25.495-5.823,29.66a.125.125,0,0,1-.1.045" transform="translate(-992.852 -1021.899)" fill="#363e44"/>
          <path id="Trazado_913824" data-name="Trazado 913824" d="M1061.611,1369.766a7.566,7.566,0,0,1-.308,2.135l11.417,3.26v-11.554l-11.659,3.329a7.545,7.545,0,0,1,.549,2.829" transform="translate(-928.308 -1193.001)" fill="#fff3d3"/>
          <path id="Trazado_913825" data-name="Trazado 913825" d="M892.327,1449.627l-8.878,8.451,10.115,5.777,2.868-11.466a7.738,7.738,0,0,1-4.105-2.762" transform="translate(-772.917 -1268.258)" fill="#fff3d3"/>
          <path id="Trazado_913826" data-name="Trazado 913826" d="M896.976,1269.012l-2.743-12.125-10.244,5.552,9.073,9.032a7.735,7.735,0,0,1,3.914-2.458" transform="translate(-773.39 -1099.633)" fill="#fff3d3"/>
          <path id="Trazado_913827" data-name="Trazado 913827" d="M968.869,1373.451a4.927,4.927,0,1,1-4.981,4.927,4.954,4.954,0,0,1,4.981-4.927" transform="translate(-843.292 -1201.613)" fill="#fff3d3"/>
          <path id="Trazado_913828" data-name="Trazado 913828" d="M530.141,1601.487c-1.809,1.838-3.8,1.946-3.609,9.035.195,7.233-6.239,3.665-6.239,3.665l-4.614-3.472s6.239-10.576,13.323-10.454c2.318.04,1.438.922,1.139,1.226" transform="translate(-451.159 -1400.045)" fill="#31565e"/>
          <path id="Trazado_913829" data-name="Trazado 913829" d="M507.051,1607.692c-.1,0-.2,0-.308-.01a.125.125,0,0,1,.015-.25c2.476.153,3.974-1.673,5.423-3.437a18.991,18.991,0,0,1,1.8-2,10.559,10.559,0,0,1,7.1-2.73.125.125,0,0,1,0,.25,10.307,10.307,0,0,0-6.93,2.665,18.771,18.771,0,0,0-1.777,1.97c-1.429,1.74-2.906,3.538-5.324,3.538" transform="translate(-443.24 -1399.178)" fill="#fff"/>
          <path id="Trazado_913830" data-name="Trazado 913830" d="M609.647,1626.064a.125.125,0,0,1-.122-.1c-.422-1.931-1.4-2.95-3.727-3.9-.374-.152-3.623-1.58-2.541-4.927a6.2,6.2,0,0,1,2.381-3.58.125.125,0,0,1,.122.219,6.1,6.1,0,0,0-2.265,3.438c-1.012,3.131,2.045,4.475,2.4,4.618,2.39.97,3.441,2.075,3.877,4.075a.125.125,0,0,1-.1.149l-.027,0" transform="translate(-527.589 -1411.668)" fill="#fff"/>
          <path id="Trazado_913831" data-name="Trazado 913831" d="M588.193,1648.072c-3.17,0-5.29-.889-6.159-2.074a2.582,2.582,0,0,1-.018-3.009c2.094-3.465.319-5.276-1.247-6.874a7.065,7.065,0,0,1-1.588-2.039,5.3,5.3,0,0,1,1.872-5.574.125.125,0,0,1,.145.2,5.02,5.02,0,0,0-1.784,5.275,6.9,6.9,0,0,0,1.535,1.958c1.63,1.663,3.477,3.547,1.282,7.179a2.318,2.318,0,0,0,.006,2.731c1.242,1.694,5.2,2.747,11.242,1.28a.125.125,0,0,1,.059.243,22.823,22.823,0,0,1-5.344.7" transform="translate(-506.548 -1424.733)" fill="#fff"/>
          <path id="Trazado_913832" data-name="Trazado 913832" d="M1213.077,47.772h-50.61a.125.125,0,0,1-.11-.185L1187.662.919a.13.13,0,0,1,.22,0l25.305,46.668a.125.125,0,0,1-.11.185m-50.4-.25h50.19L1187.772,1.241Z" transform="translate(-1016.917 -0.751)" fill="#363e44"/>
          <path id="Trazado_913833" data-name="Trazado 913833" d="M1256.663,107.176H1220.6a.125.125,0,0,1-.11-.185l18.032-33.255a.13.13,0,0,1,.22,0l18.032,33.255a.125.125,0,0,1-.11.185m-35.854-.25h35.644l-17.822-32.868Z" transform="translate(-1067.775 -64.457)" fill="#d3bba3"/>
          <rect id="Rectángulo_403768" data-name="Rectángulo 403768" width="5.789" height="15.964" transform="translate(167.961 17.235)" fill="#f56364"/>
          <rect id="Rectángulo_403769" data-name="Rectángulo 403769" width="5.789" height="5.544" transform="translate(167.961 34.803)" fill="#f56364"/>
        </g>
      </g>
      <rect id="Rectángulo_403771" data-name="Rectángulo 403771" width="228.971" height="228.959" transform="translate(676.135 961.897)" fill="none"/>
      <g id="Grupo_1102118" data-name="Grupo 1102118" transform="translate(981.185 999.408)">
        <g id="Truck_2_" transform="translate(45.392 55.727)">
          <path id="Trazado_913835" data-name="Trazado 913835" d="M420,152.211h9.943v-8.106A8.115,8.115,0,0,0,421.837,136H420Z" transform="translate(-420 -136)" fill="#fff3d3"/>
        </g>
        <path id="Trazado_913836" data-name="Trazado 913836" d="M64.863,385.727a4.863,4.863,0,1,1,4.863-4.863A4.869,4.869,0,0,1,64.863,385.727Z" transform="translate(-53.515 -294.335)" fill="#fff3d3"/>
        <g id="Grupo_1102117" data-name="Grupo 1102117" transform="translate(38.907 55.727)">
          <g id="Grupo_1102116" data-name="Grupo 1102116">
            <path id="Trazado_913837" data-name="Trazado 913837" d="M464.54,375.907a7.977,7.977,0,0,1,1.507,6.495h2a1.62,1.62,0,0,0,1.621-1.621v-4.863h-5.08C464.572,375.917,464.557,375.908,464.54,375.907Z" transform="translate(-453.242 -349.979)" fill="#fff3d3"/>
            <path id="Trazado_913838" data-name="Trazado 913838" d="M364.863,155.454a1.62,1.62,0,0,1-1.621-1.621V136H360v24.358a7.944,7.944,0,0,1,9.737.008c0-.017-.01-.032-.01-.05a1.62,1.62,0,0,1,1.621-1.621h5.08v-3.242Z" transform="translate(-360 -136)" fill="#fff3d3"/>
          </g>
          <path id="Trazado_913839" data-name="Trazado 913839" d="M364.863,385.727a4.863,4.863,0,1,1,4.863-4.863A4.869,4.869,0,0,1,364.863,385.727Z" transform="translate(-360 -350.062)" fill="#fff3d3"/>
        </g>
        <path id="Trazado_913840" data-name="Trazado 913840" d="M4.9,376H0v4.863a1.62,1.62,0,0,0,1.621,1.621H3.406A7.978,7.978,0,0,1,4.9,376Z" transform="translate(0 -294.335)" fill="#fff3d3"/>
        <path id="Trazado_913841" data-name="Trazado 913841" d="M164.436,376a7.978,7.978,0,0,1,1.5,6.485h14.754a1.62,1.62,0,0,0,1.621-1.621V376Z" transform="translate(-146.645 -294.335)" fill="#fff3d3"/>
        <path id="Trazado_913842" data-name="Trazado 913842" d="M35.665,54.106A8.115,8.115,0,0,0,27.559,46H8.106A8.115,8.115,0,0,0,0,54.106V70.317a8.115,8.115,0,0,0,8.106,8.106H35.665ZM27.814,66.08a1.62,1.62,0,0,1-1.985-1.146,3.243,3.243,0,0,0-6.265,1.678,3.253,3.253,0,0,0,3.972,2.294,1.621,1.621,0,0,1,.839,3.131,6.308,6.308,0,0,1-6.54-2.092,6.313,6.313,0,0,1-6.544,2.094,1.621,1.621,0,1,1,.839-3.131,3.243,3.243,0,1,0-2.292-3.97A1.621,1.621,0,1,1,6.706,64.1a6.471,6.471,0,0,1,5.012-4.663,6.356,6.356,0,0,1,1.529-6.672,1.621,1.621,0,1,1,2.292,2.292,3.241,3.241,0,0,0,0,4.585,3.319,3.319,0,0,0,4.585,0,3.241,3.241,0,0,0,0-4.585,1.621,1.621,0,1,1,2.292-2.292,6.358,6.358,0,0,1,1.529,6.673A6.35,6.35,0,0,1,28.96,64.1a1.622,1.622,0,0,1-1.146,1.985Z" fill="#fff3d3"/>
      </g>
      <g id="Grupo_1102119" data-name="Grupo 1102119" transform="translate(840.469 816.609)">
        <path id="Trazado_913845" data-name="Trazado 913845" d="M100.085,69.554l1.739.87-2.467,4.935H92.026l-2.467-4.935,1.739-.87a2.055,2.055,0,0,1,2.054.128,4.207,4.207,0,0,0,4.679,0A2.054,2.054,0,0,1,100.085,69.554ZM65.558,34.515l1.886-1.886a1.266,1.266,0,0,1,1.908.135,3.434,3.434,0,0,0,5.176.368l.758-.758a1.268,1.268,0,0,1,1.791,0l.758.758a3.434,3.434,0,0,0,5.176-.368,1.266,1.266,0,0,1,1.908-.135L86.8,34.515l-4.815,10.5H77.935L80.4,40.075l-1.939-.97L76.181,43.67,73.9,39.106l-1.939.97,2.467,4.935H70.373ZM50.538,70.424l1.739-.87a2.055,2.055,0,0,1,2.054.128,4.207,4.207,0,0,0,4.679,0,2.054,2.054,0,0,1,2.054-.128l1.739.87-2.467,4.935H53.005Zm14.8,19.046A3.235,3.235,0,0,1,62.111,92.7H51.231A3.235,3.235,0,0,1,48,89.47V80.758a3.235,3.235,0,0,1,3.231-3.231h2.823L50.485,81.1l1.533,1.533,3.569-3.569v3.887h2.168V79.06l3.569,3.569L62.857,81.1l-3.569-3.569h2.823a3.235,3.235,0,0,1,3.231,3.231Zm19.51,0A3.235,3.235,0,0,1,81.621,92.7H70.741A3.235,3.235,0,0,1,67.51,89.47V80.758a3.235,3.235,0,0,1,3.231-3.231h2.823L70,81.1l1.533,1.533L75.1,79.06v3.887h2.168V79.06l3.569,3.569L82.367,81.1,78.8,77.527h2.823a3.235,3.235,0,0,1,3.231,3.231Zm-14.8-19.046,1.739-.87a2.055,2.055,0,0,1,2.054.128,4.207,4.207,0,0,0,4.679,0,2.054,2.054,0,0,1,2.054-.128l1.739.87-2.467,4.935H72.516Zm15.888,7.093a5.4,5.4,0,0,0-3.685-2.12l2.486-4.972a1.084,1.084,0,0,0-.485-1.454l-2.709-1.355a4.227,4.227,0,0,0-4.226.263,2.046,2.046,0,0,1-2.275,0,4.226,4.226,0,0,0-4.226-.263L68.109,68.97a1.084,1.084,0,0,0-.485,1.454L70.11,75.4a5.4,5.4,0,0,0-3.684,2.12,5.4,5.4,0,0,0-3.685-2.12l2.486-4.972a1.084,1.084,0,0,0-.485-1.454l-2.709-1.355a4.227,4.227,0,0,0-4.226.263,2.044,2.044,0,0,1-2.134.085,15.894,15.894,0,0,1-.086-1.655V62.841a15.569,15.569,0,0,1,4.525-11.013,15.763,15.763,0,0,1,11.138-4.65h.841a22.749,22.749,0,0,0-6.595,7.03l1.859,1.115a20.577,20.577,0,0,1,6.936-6.987l-2.39,7.17,2.056.686,2.223-6.67,2.223,6.67,2.056-.686-2.39-7.17a20.577,20.577,0,0,1,6.936,6.987l1.859-1.115a22.749,22.749,0,0,0-6.595-7.03h.841c.2,0,.4,0,.6.013l.07,0A15.662,15.662,0,0,1,96.775,62.841V66.31a15.916,15.916,0,0,1-.088,1.655,2.044,2.044,0,0,1-2.133-.086,4.226,4.226,0,0,0-4.226-.263l-2.709,1.355a1.084,1.084,0,0,0-.485,1.454L89.621,75.4a5.4,5.4,0,0,0-3.685,2.12ZM104.363,89.47a3.235,3.235,0,0,1-3.231,3.231H90.252A3.235,3.235,0,0,1,87.02,89.47V80.758a3.235,3.235,0,0,1,3.231-3.231h2.823L89.505,81.1l1.533,1.533,3.569-3.569v3.887h2.168V79.06l3.569,3.569,1.533-1.533-3.569-3.569h2.823a3.235,3.235,0,0,1,3.231,3.231Z" transform="translate(-3.704)" fill="#fff3d3"/>
      </g>
      <g id="Grupo_1102120" data-name="Grupo 1102120" transform="translate(871.53 1227.73)">
        <path id="Trazado_913846" data-name="Trazado 913846" d="M64.629,131.067h5.433A5.623,5.623,0,0,1,73.479,126a9.395,9.395,0,0,1,1.415-12.765,13.191,13.191,0,0,1-.137-1.907v-.306c0-.041,0-.081,0-.122a9.238,9.238,0,0,0-8.064,9.15v.3a9.158,9.158,0,0,0,.738,3.617,5.594,5.594,0,0,0-3.534,7.147A5.621,5.621,0,0,1,64.629,131.067Z" transform="translate(-55.037 -96.985)" fill="#fff3d3"/>
        <path id="Trazado_913847" data-name="Trazado 913847" d="M161.578,28.213l18.1.214a5.6,5.6,0,0,0,5.64-5.259H189.1a9.243,9.243,0,0,0,9.33-9.131v-.3a9.23,9.23,0,0,0-8-9.037A9.043,9.043,0,0,0,182.485,0h-3.27a9.046,9.046,0,0,0-7.894,4.607h-1.353a9.243,9.243,0,0,0-9.33,9.131v.3a8.9,8.9,0,0,0,.758,3.606,5.493,5.493,0,0,0,.182,10.57Z" transform="translate(-137.155 0)" fill="#fff3d3"/>
        <path id="Trazado_913848" data-name="Trazado 913848" d="M309.221,388.34h21.788a14.394,14.394,0,0,0-21.788,0Z" transform="translate(-269.848 -335.251)" fill="#fff3d3"/>
        <path id="Trazado_913849" data-name="Trazado 913849" d="M64.736,287.616a1.881,1.881,0,0,0-.07-.5,14.318,14.318,0,0,0-1.145-5.007H37.013A14.3,14.3,0,0,0,36,285.734H32.209a18.161,18.161,0,0,1,9.1-13.774,29.962,29.962,0,0,1-.778-4.454,19.773,19.773,0,0,1,.5-7.436,1.882,1.882,0,0,0-1.779-2.5H20.67a1.876,1.876,0,0,0-1.78,2.5,19.749,19.749,0,0,1,.5,7.437c-.691,7.311-4.228,13.827-7.289,18.228H7.747a5.67,5.67,0,0,1,.747-1.425c2.9-4.012,6.492-10.245,7.145-17.157a20.472,20.472,0,0,0,0-4.052H9.592A1.882,1.882,0,0,0,7.816,265.6c.03.084,2.8,8.39-5.309,20.131a1.881,1.881,0,0,0,.03,3.763H63.015a1.665,1.665,0,0,0,1.609-1.249,1.876,1.876,0,0,0,.112-.634ZM26.158,273.849a1.882,1.882,0,0,1,2.6-.556l1.2.777,1.2-.777a1.882,1.882,0,0,1,2.048,3.159l-1.364.884v1a1.882,1.882,0,0,1-3.764,0v-1l-1.364-.884A1.882,1.882,0,0,1,26.158,273.849Z" transform="translate(0 -225.253)" fill="#fff3d3"/>
      </g>
      <g id="Grupo_1102121" data-name="Grupo 1102121" transform="translate(647.984 1229.307)">
        <path id="Trazado_913850" data-name="Trazado 913850" d="M57,18.963,29.918.309a1.9,1.9,0,0,0-2.07,0L.77,18.963A1.815,1.815,0,0,0,0,20.455v34.9a2.414,2.414,0,0,0,2.407,2.407h9.628V30.684a1.81,1.81,0,0,1,1.805-1.805H43.926a1.809,1.809,0,0,1,1.805,1.805V57.762h9.628a2.414,2.414,0,0,0,2.407-2.407v-34.9A1.815,1.815,0,0,0,57,18.963Z" transform="translate(0 0)" fill="#fff3d3"/>
        <path id="Trazado_913851" data-name="Trazado 913851" d="M6.5,17.5H32.976v6.017H6.5Z" transform="translate(9.145 24.617)" fill="#fff3d3"/>
        <path id="Trazado_913852" data-name="Trazado 913852" d="M6.5,21.5H32.976v6.017H6.5Z" transform="translate(9.145 30.245)" fill="#fff3d3"/>
        <path id="Trazado_913853" data-name="Trazado 913853" d="M6.5,13.5H32.976v6.017H6.5Z" transform="translate(9.145 18.99)" fill="#fff3d3"/>
      </g>
      <g id="Artboard421" transform="translate(517.135 997.889)">
        <path id="Trazado_913854" data-name="Trazado 913854" d="M58.87,53.892H53.184a4.508,4.508,0,0,0-4.5,4.5v1.258l-2.653.005a1.2,1.2,0,0,0-1.2,1.181,3.961,3.961,0,0,1-1.926,3.336,1.2,1.2,0,0,0-.424.43l-.079.137a1.2,1.2,0,0,0,0,1.2l6.076,10.524a1.189,1.189,0,0,0,.2.259v7.426a27.982,27.982,0,0,1-8.534,2.966l-.884.155-.884-.155A28.331,28.331,0,0,1,15,59.308V39.683l24.27-10.4,24.27,10.4v11.38H61.266a2.4,2.4,0,0,0-2.4,2.4Zm-22.083.841a1.2,1.2,0,0,0,.584-.152,3.961,3.961,0,0,1,3.852,0,1.2,1.2,0,0,0,.584.152h.158a1.2,1.2,0,0,0,1.037-.6L49.08,43.61a1.2,1.2,0,0,0-.438-1.636,18.558,18.558,0,0,0-18.558,0,1.2,1.2,0,0,0-.438,1.636l6.076,10.524a1.2,1.2,0,0,0,1.037.6Zm.478-2.715-4.925-8.53a16.164,16.164,0,0,1,14.044,0l-4.946,8.567a6.374,6.374,0,0,0-4.172-.037ZM36.038,64.487a1.2,1.2,0,0,0-.347-.313,3.961,3.961,0,0,1-1.926-3.336,1.2,1.2,0,0,0-.16-.582l-.079-.137a1.2,1.2,0,0,0-1.037-.6H20.336a1.2,1.2,0,0,0-1.2,1.2,18.558,18.558,0,0,0,9.279,16.072,1.2,1.2,0,0,0,1.636-.438L36.13,65.827l-.046.027a1.2,1.2,0,0,0,.032-1.249l-.007-.012a1.107,1.107,0,0,0-.071-.106Zm-2.513,1.061L28.6,74.078a16.164,16.164,0,0,1-7.022-12.162h9.893a6.373,6.373,0,0,0,2.054,3.632Zm1.614.852-.046.027.02-.026ZM39.3,55.229a4.633,4.633,0,1,0,4.633,4.633A4.636,4.636,0,0,0,39.3,55.229Zm0,2.4a2.238,2.238,0,1,1-2.238,2.238A2.239,2.239,0,0,1,39.3,57.625Zm9.387,14.391-3.695-6.4a6.375,6.375,0,0,0,2.114-3.572l1.581,0Zm31.14-15.728h5.686a2.106,2.106,0,0,1,2.1,2.1V97.018a2.1,2.1,0,0,1-2.1,2.1H53.184a2.1,2.1,0,0,1-2.1-2.1V58.389a2.106,2.106,0,0,1,2.1-2.1H58.87v2.63a2.4,2.4,0,0,0,2.4,2.4H77.432a2.4,2.4,0,0,0,2.4-2.4ZM69.912,70.357h4.67a1.2,1.2,0,0,0,0-2.4h-4.67a1.2,1.2,0,0,0,0,2.4ZM59.191,86.316a1.309,1.309,0,0,0-1.305,1.3v3.961a1.31,1.31,0,0,0,1.305,1.308h3.961a1.31,1.31,0,0,0,1.308-1.308V87.621a1.31,1.31,0,0,0-1.308-1.3Zm10.721,2.705h9.341a1.2,1.2,0,1,0,0-2.4H69.912a1.2,1.2,0,1,0,0,2.4ZM59.191,75.2a1.31,1.31,0,0,0-1.305,1.308v3.961a1.309,1.309,0,0,0,1.305,1.305h3.961a1.31,1.31,0,0,0,1.308-1.305V76.512A1.31,1.31,0,0,0,63.152,75.2ZM69.912,66.8h9.341a1.2,1.2,0,1,0,0-2.4H69.912a1.2,1.2,0,1,0,0,2.4Zm0,25.783h4.67a1.2,1.2,0,0,0,0-2.4h-4.67a1.2,1.2,0,0,0,0,2.4Zm0-15.051h9.341a1.2,1.2,0,0,0,0-2.4H69.912a1.2,1.2,0,0,0,0,2.4ZM59.191,64.092A1.31,1.31,0,0,0,57.886,65.4v3.961a1.312,1.312,0,0,0,1.305,1.308h3.961a1.312,1.312,0,0,0,1.308-1.308V65.4a1.31,1.31,0,0,0-1.308-1.308Zm10.721,17h4.67a1.2,1.2,0,0,0,0-2.4h-4.67a1.2,1.2,0,0,0,0,2.4Zm-8.646-27.63H65.88a3.57,3.57,0,0,1,6.939,0h4.614v5.459H61.266Zm8.082,1.14a.943.943,0,1,0-.942-.942A.944.944,0,0,0,69.348,54.6Z" fill="#fff3d3" fill-rule="evenodd"/>
      </g>
      <g id="Grupo_1102122" data-name="Grupo 1102122" transform="translate(673.135 842.016)">
        <path id="Trazado_913855" data-name="Trazado 913855" d="M46.068,24.027c-.2-.617-1.073-1.18-1.9-1.716a8.359,8.359,0,0,1-2.333-1.944,8.224,8.224,0,0,1-1.14-2.842,4.618,4.618,0,0,0-1.032-2.319,4.54,4.54,0,0,0-2.494-.255,8.512,8.512,0,0,1-3.084-.215,8.253,8.253,0,0,1-2.534-1.6,4.646,4.646,0,0,0-2.266-1.3,4.6,4.6,0,0,0-2.266,1.3,8.253,8.253,0,0,1-2.534,1.6,8.512,8.512,0,0,1-3.084.215,4.54,4.54,0,0,0-2.494.255,4.562,4.562,0,0,0-1.032,2.319,8.249,8.249,0,0,1-1.153,2.842,8.4,8.4,0,0,1-2.333,1.944c-.845.536-1.7,1.1-1.9,1.716a4.515,4.515,0,0,0,.523,2.413,8.607,8.607,0,0,1,.751,3.043,8.9,8.9,0,0,1-.751,3.043,4.515,4.515,0,0,0-.523,2.413c.2.617,1.073,1.166,1.9,1.716A8.594,8.594,0,0,1,16.72,38.6a8.224,8.224,0,0,1,1.14,2.842,4.562,4.562,0,0,0,1.032,2.319,4.54,4.54,0,0,0,2.494.255c.389-.013.778-.04,1.166-.04a6.184,6.184,0,0,1,1.917.255A8.253,8.253,0,0,1,27,45.827a4.646,4.646,0,0,0,2.266,1.3,4.6,4.6,0,0,0,2.266-1.3,8.253,8.253,0,0,1,2.534-1.6,8.512,8.512,0,0,1,3.084-.215,4.54,4.54,0,0,0,2.494-.255,4.562,4.562,0,0,0,1.032-2.319,8.5,8.5,0,0,1,1.14-2.842,8.4,8.4,0,0,1,2.333-1.944c.845-.536,1.7-1.1,1.9-1.716a4.515,4.515,0,0,0-.523-2.413,8.607,8.607,0,0,1-.751-3.043,8.9,8.9,0,0,1,.751-3.043,4.423,4.423,0,0,0,.536-2.413ZM29.282,42.207A12.723,12.723,0,1,1,42.005,29.484,12.743,12.743,0,0,1,29.282,42.207Z" transform="translate(4.236 4.034)" fill="#f6f6f6"/>
        <path id="Trazado_913856" data-name="Trazado 913856" d="M33.518,0A33.518,33.518,0,1,0,67.035,33.518,33.513,33.513,0,0,0,33.518,0ZM52.086,35.676a6.042,6.042,0,0,1,.563,4.049,6.267,6.267,0,0,1-2.909,3.03,6.9,6.9,0,0,0-1.676,1.327A7.127,7.127,0,0,0,47.3,46.12a6.2,6.2,0,0,1-1.957,3.674,6.192,6.192,0,0,1-4.076.724,7.186,7.186,0,0,0-2.2.094,6.557,6.557,0,0,0-1.743,1.166,6.191,6.191,0,0,1-3.808,1.85,6.261,6.261,0,0,1-3.821-1.85,6.674,6.674,0,0,0-1.743-1.166,6.786,6.786,0,0,0-2.2-.094,6.206,6.206,0,0,1-4.076-.724,6.2,6.2,0,0,1-1.957-3.674,6.541,6.541,0,0,0-.764-2.038,6.9,6.9,0,0,0-1.676-1.327,6.239,6.239,0,0,1-2.909-3.017,6.123,6.123,0,0,1,.563-4.049,6.9,6.9,0,0,0,.59-2.159,6.713,6.713,0,0,0-.59-2.159,6.042,6.042,0,0,1-.563-4.049,6.267,6.267,0,0,1,2.909-3.03,6.894,6.894,0,0,0,1.676-1.327,7.127,7.127,0,0,0,.764-2.038,6.241,6.241,0,0,1,1.957-3.674,6.192,6.192,0,0,1,4.076-.724,7.186,7.186,0,0,0,2.2-.094A6.556,6.556,0,0,0,29.7,15.271a6.206,6.206,0,0,1,3.821-1.864,6.261,6.261,0,0,1,3.821,1.85,6.674,6.674,0,0,0,1.743,1.166,6.786,6.786,0,0,0,2.2.094,6.206,6.206,0,0,1,4.076.724,6.2,6.2,0,0,1,1.957,3.674,6.541,6.541,0,0,0,.764,2.038,6.894,6.894,0,0,0,1.676,1.327,6.211,6.211,0,0,1,2.909,3.03,6.123,6.123,0,0,1-.563,4.049,6.9,6.9,0,0,0-.59,2.159,6.116,6.116,0,0,0,.576,2.159Z" fill="#f6f6f6"/>
        <path id="Trazado_913857" data-name="Trazado 913857" d="M27.606,17.35A10.256,10.256,0,1,0,37.863,27.606,10.265,10.265,0,0,0,27.606,17.35ZM33.4,24.523l-7.763,7.763a1.23,1.23,0,0,1-1.743,0l-2.909-2.909a1.232,1.232,0,0,1,1.743-1.743l2.038,2.038,6.891-6.891A1.232,1.232,0,1,1,33.4,24.523Z" transform="translate(5.911 5.911)" fill="#f6f6f6"/>
      </g>
    </g>
  </g>
</svg>
